%TF.GenerationSoftware,KiCad,Pcbnew,10.0.6*%
%TF.CreationDate,2026-09-24T17:55:31-04:00*%
%TF.ProjectId,Speaker_Stake_v2.0.1,53706561-6b65-4725-9f53-74616b655f76,v2.0.1*%
%TF.SameCoordinates,Original*%
%TF.FileFunction,Copper,L1,Top*%
%TF.FilePolarity,Positive*%
%FSLAX46Y46*%
G04 Gerber Fmt 4.6, Leading zero omitted, Abs format (unit mm)*
G04 Created by KiCad (PCBNEW 10.0.6) date 2026-09-24 17:55:31*
%MOMM*%
%LPD*%
G01*
G04 APERTURE LIST*
G04 Aperture macros list*
%AMRoundRect*
0 Rectangle with rounded corners*
0 $1 Rounding radius*
0 $2 $3 $4 $5 $6 $7 $8 $9 X,Y pos of 4 corners*
0 Add a 4 corners polygon primitive as box body*
4,1,4,$2,$3,$4,$5,$6,$7,$8,$9,$2,$3,0*
0 Add four circle primitives for the rounded corners*
1,1,$1+$1,$2,$3*
1,1,$1+$1,$4,$5*
1,1,$1+$1,$6,$7*
1,1,$1+$1,$8,$9*
0 Add four rect primitives between the rounded corners*
20,1,$1+$1,$2,$3,$4,$5,0*
20,1,$1+$1,$4,$5,$6,$7,0*
20,1,$1+$1,$6,$7,$8,$9,0*
20,1,$1+$1,$8,$9,$2,$3,0*%
G04 Aperture macros list end*
%TA.AperFunction,SMDPad,CuDef*%
%ADD10RoundRect,0.152400X-0.609600X1.063600X-0.609600X-1.063600X0.609600X-1.063600X0.609600X1.063600X0*%
%TD*%
%TA.AperFunction,ComponentPad*%
%ADD11C,1.700000*%
%TD*%
%TA.AperFunction,SMDPad,CuDef*%
%ADD12RoundRect,0.152400X0.609600X-1.063600X0.609600X1.063600X-0.609600X1.063600X-0.609600X-1.063600X0*%
%TD*%
%TA.AperFunction,ComponentPad*%
%ADD13RoundRect,0.250000X0.362767X-0.996695X0.996695X0.362767X-0.362767X0.996695X-0.996695X-0.362767X0*%
%TD*%
%TA.AperFunction,ComponentPad*%
%ADD14C,2.000000*%
%TD*%
%TA.AperFunction,ComponentPad*%
%ADD15RoundRect,0.249999X0.850001X-0.850001X0.850001X0.850001X-0.850001X0.850001X-0.850001X-0.850001X0*%
%TD*%
%TA.AperFunction,ComponentPad*%
%ADD16C,2.200000*%
%TD*%
%TA.AperFunction,ViaPad*%
%ADD17C,0.450000*%
%TD*%
%TA.AperFunction,Conductor*%
%ADD18C,0.400000*%
%TD*%
%TA.AperFunction,Conductor*%
%ADD19C,0.600000*%
%TD*%
G04 APERTURE END LIST*
D10*
%TO.P,U1,1,D0_1*%
%TO.N,unconnected-(U1-D0-Pad1)*%
X126860000Y-130800000D03*
D11*
X126860000Y-129965000D03*
D10*
%TO.P,U1,2,D1_2*%
%TO.N,unconnected-(U1-D1-Pad2)*%
X129400000Y-130800000D03*
D11*
X129400000Y-129965000D03*
D10*
%TO.P,U1,3,D2_3*%
%TO.N,unconnected-(U1-D2-Pad3)*%
X131940000Y-130800000D03*
D11*
X131940000Y-129965000D03*
D10*
%TO.P,U1,4,D3_4*%
%TO.N,Net-(U1-D3)*%
X134480000Y-130800000D03*
D11*
X134480000Y-129965000D03*
D10*
%TO.P,U1,5,D4_5*%
%TO.N,Net-(U1-D4)*%
X137020000Y-130800000D03*
D11*
X137020000Y-129965000D03*
D10*
%TO.P,U1,6,D5_6*%
%TO.N,Net-(U1-D5)*%
X139560000Y-130800000D03*
D11*
X139560000Y-129965000D03*
D10*
%TO.P,U1,7,D6_7*%
%TO.N,unconnected-(U1-D6-Pad7)*%
X142100000Y-130800000D03*
D11*
X142100000Y-129965000D03*
%TO.P,U1,8,D7_8*%
%TO.N,unconnected-(U1-D7-Pad8)*%
X142100000Y-114725000D03*
D12*
X142100000Y-113890000D03*
D11*
%TO.P,U1,9,D8_9*%
%TO.N,Net-(U1-D8)*%
X139560000Y-114725000D03*
D12*
X139560000Y-113890000D03*
D11*
%TO.P,U1,10,D9_10*%
%TO.N,unconnected-(U1-D9-Pad10)*%
X137020000Y-114725000D03*
D12*
X137020000Y-113890000D03*
D11*
%TO.P,U1,11,D10_11*%
%TO.N,unconnected-(U1-D10-Pad11)*%
X134480000Y-114725000D03*
D12*
X134480000Y-113890000D03*
D11*
%TO.P,U1,12,3V3_OUT_12*%
%TO.N,unconnected-(U1-3V3_OUT-Pad12)*%
X131940000Y-114725000D03*
D12*
X131940000Y-113890000D03*
D11*
%TO.P,U1,13,GND_13*%
%TO.N,GND*%
X129400000Y-114725000D03*
D12*
X129400000Y-113890000D03*
D11*
%TO.P,U1,14,VBUS_14*%
%TO.N,Net-(D1-K)*%
X126860000Y-114725000D03*
D12*
X126860000Y-113890000D03*
%TD*%
D11*
%TO.P,U3,1,GND_1*%
%TO.N,Net-(U2-GND-Pad8)*%
X156762011Y-77146727D03*
%TO.P,U3,2,DAC_2*%
%TO.N,Net-(U2-OUTL)*%
X155688560Y-79448749D03*
%TO.P,U3,3,GND_3*%
%TO.N,GND*%
X154615110Y-81750771D03*
%TO.P,U3,4,VCC_4*%
%TO.N,+5V*%
X153541659Y-84052793D03*
%TO.P,U3,5,SPK+_5*%
%TO.N,Net-(J1-Pin_2)*%
X152468210Y-86354815D03*
%TO.P,U3,6,SPK-_6*%
%TO.N,Net-(J1-Pin_1)*%
X151394760Y-88656836D03*
%TD*%
D13*
%TO.P,J1,1,Pin_1_1*%
%TO.N,Net-(J1-Pin_1)*%
X119653879Y-89389641D03*
D14*
%TO.P,J1,2,Pin_2_2*%
%TO.N,Net-(J1-Pin_2)*%
X120727329Y-87087619D03*
%TO.P,J1,3,Pin_3_3*%
%TO.N,+5V*%
X121800780Y-84785597D03*
%TO.P,J1,4,Pin_4_4*%
%TO.N,GND*%
X122874231Y-82483575D03*
%TD*%
D15*
%TO.P,D1,1,K_1*%
%TO.N,Net-(D1-K)*%
X117400000Y-106780000D03*
D16*
%TO.P,D1,2,A_2*%
%TO.N,+5V*%
X117400000Y-96620000D03*
%TD*%
D11*
%TO.P,U2,1,FLT_1*%
%TO.N,GND*%
X153812397Y-112316174D03*
%TO.P,U2,2,DEMP_2*%
X154885849Y-110014153D03*
%TO.P,U2,3,XSMT_3*%
%TO.N,Net-(U1-D8)*%
X155959298Y-107712130D03*
%TO.P,U2,4,FMT_4*%
%TO.N,GND*%
X157032748Y-105410110D03*
%TO.P,U2,5,AVDD_5*%
%TO.N,unconnected-(U2-AVDD-Pad5)*%
X158106199Y-103108087D03*
%TO.P,U2,6,GND_6*%
%TO.N,unconnected-(U2-GND-Pad6)*%
X159179649Y-100806065D03*
%TO.P,U2,7,OUTR_7*%
%TO.N,unconnected-(U2-OUTR-Pad7)*%
X160253101Y-98504044D03*
%TO.P,U2,8,GND_8*%
%TO.N,Net-(U2-GND-Pad8)*%
X161326550Y-96202022D03*
%TO.P,U2,9,OUTL_9*%
%TO.N,Net-(U2-OUTL)*%
X162400000Y-93900000D03*
%TO.P,U2,10,VIN_10*%
%TO.N,Net-(D1-K)*%
X163353691Y-123893173D03*
%TO.P,U2,11,GND_11*%
%TO.N,GND*%
X161051669Y-122819723D03*
%TO.P,U2,12,LRCK_12*%
%TO.N,Net-(U1-D4)*%
X158749647Y-121746273D03*
%TO.P,U2,13,DIN_13*%
%TO.N,Net-(U1-D5)*%
X156447625Y-120672823D03*
%TO.P,U2,14,BCK_14*%
%TO.N,Net-(U1-D3)*%
X154145605Y-119599373D03*
%TO.P,U2,15,SCK_15*%
%TO.N,GND*%
X151843582Y-118525922D03*
%TD*%
D17*
%TO.N,GND*%
X115000000Y-126000000D03*
X121000000Y-132000000D03*
X109000000Y-87000000D03*
X113000000Y-80000000D03*
X128000000Y-136000000D03*
X117000000Y-75000000D03*
X164000000Y-132000000D03*
X128000000Y-68000000D03*
X177000000Y-86000000D03*
X144000000Y-139000000D03*
X108000000Y-113000000D03*
X106000000Y-100000000D03*
X107000000Y-93000000D03*
X122000000Y-71000000D03*
X161000000Y-69000000D03*
X180000000Y-96000000D03*
X106000000Y-107000000D03*
X151000000Y-66000000D03*
X171000000Y-77000000D03*
X178000000Y-114000000D03*
X134000000Y-138000000D03*
X180000000Y-106000000D03*
X135000000Y-66000000D03*
X155000000Y-137000000D03*
X171000000Y-126000000D03*
%TD*%
%TO.N,Net-(U2-GND-Pad8)*%
D18*
X161326550Y-96202022D02*
X160476550Y-95352022D01*
X160476550Y-79161266D02*
X158462011Y-77146727D01*
X160476550Y-95352022D02*
X160476550Y-79161266D01*
X158462011Y-77146727D02*
X156762011Y-77146727D01*
%TO.N,+5V*%
D19*
X115000000Y-94220000D02*
X115000000Y-87000000D01*
X117214402Y-84785598D02*
X122785598Y-84785598D01*
X123318403Y-84252793D02*
X153341659Y-84252793D01*
X115000000Y-87000000D02*
X117214402Y-84785598D01*
X153341659Y-84252793D02*
X153541659Y-84052793D01*
X122785598Y-84785598D02*
X123318403Y-84252793D01*
X117400000Y-96620000D02*
X115000000Y-94220000D01*
%TO.N,Net-(J1-Pin_2)*%
X152468210Y-86354815D02*
X152268210Y-86554815D01*
X121260133Y-86554815D02*
X120727329Y-87087619D01*
X152268210Y-86554815D02*
X121260133Y-86554815D01*
%TO.N,Net-(J1-Pin_1)*%
X151394760Y-88656836D02*
X151194760Y-88856836D01*
X151194760Y-88856836D02*
X120186684Y-88856836D01*
X120186684Y-88856836D02*
X119653879Y-89389641D01*
%TO.N,Net-(D1-K)*%
X126860000Y-112140000D02*
X129000000Y-110000000D01*
X126860000Y-114725000D02*
X126860000Y-112140000D01*
X117400000Y-110400000D02*
X121725000Y-114725000D01*
X152000000Y-115000000D02*
X157000000Y-115000000D01*
X163353691Y-121353691D02*
X163353691Y-123893173D01*
X121725000Y-114725000D02*
X126860000Y-114725000D01*
X147000000Y-110000000D02*
X152000000Y-115000000D01*
X157000000Y-115000000D02*
X163353691Y-121353691D01*
X117400000Y-106780000D02*
X117400000Y-110400000D01*
X129000000Y-110000000D02*
X147000000Y-110000000D01*
%TO.N,Net-(U1-D3)*%
D18*
X140445000Y-124000000D02*
X149744977Y-124000000D01*
X134480000Y-129965000D02*
X140445000Y-124000000D01*
X149744977Y-124000000D02*
X154145604Y-119599373D01*
%TO.N,Net-(U1-D4)*%
X137020000Y-129965000D02*
X140985000Y-126000000D01*
X154495920Y-126000000D02*
X158749647Y-121746273D01*
X140985000Y-126000000D02*
X154495920Y-126000000D01*
%TD*%
%TA.AperFunction,Conductor*%
%TO.N,GND*%
G36*
X148626959Y-63913444D02*
G01*
X148626982Y-63913454D01*
X148628713Y-63913703D01*
X149171458Y-63997874D01*
X149173210Y-63998158D01*
X149714784Y-64090104D01*
X149716463Y-64090402D01*
X150256656Y-64190086D01*
X150258307Y-64190404D01*
X150797052Y-64297819D01*
X150798749Y-64298169D01*
X151335895Y-64413281D01*
X151337460Y-64413628D01*
X151872944Y-64536424D01*
X151874512Y-64536795D01*
X152408216Y-64667253D01*
X152409852Y-64667666D01*
X152941551Y-64805724D01*
X152943156Y-64806152D01*
X153425605Y-64938823D01*
X153472806Y-64951803D01*
X153474513Y-64952286D01*
X153551986Y-64974788D01*
X154002082Y-65105518D01*
X154003609Y-65105974D01*
X154528951Y-65266746D01*
X154530471Y-65267224D01*
X154928383Y-65395256D01*
X155053373Y-65435473D01*
X155055058Y-65436028D01*
X155083368Y-65445586D01*
X155575584Y-65611770D01*
X155577138Y-65612308D01*
X156095050Y-65795466D01*
X156096630Y-65796038D01*
X156611864Y-65986590D01*
X156613385Y-65987164D01*
X157125932Y-66185106D01*
X157127490Y-66185721D01*
X157636998Y-66390916D01*
X157638548Y-66391552D01*
X158009948Y-66547342D01*
X158145091Y-66604030D01*
X158146722Y-66604728D01*
X158650233Y-66824458D01*
X158651708Y-66825114D01*
X159152087Y-67052057D01*
X159153581Y-67052748D01*
X159650470Y-67286741D01*
X159652050Y-67287498D01*
X159772430Y-67346306D01*
X160145617Y-67528615D01*
X160147206Y-67529406D01*
X160637257Y-67777556D01*
X160638831Y-67778367D01*
X161125248Y-68033488D01*
X161126635Y-68034228D01*
X161609569Y-68296401D01*
X161610943Y-68297160D01*
X162089994Y-68566174D01*
X162091409Y-68566982D01*
X162566482Y-68842779D01*
X162567981Y-68843664D01*
X162674901Y-68907798D01*
X163039021Y-69126209D01*
X163040537Y-69127133D01*
X163507450Y-69416369D01*
X163508952Y-69417314D01*
X163971742Y-69713245D01*
X163973219Y-69714204D01*
X164338228Y-69955038D01*
X164431661Y-70016685D01*
X164433134Y-70017672D01*
X164887223Y-70326699D01*
X164888611Y-70327658D01*
X165338282Y-70643188D01*
X165339627Y-70644146D01*
X165784860Y-70966167D01*
X165786102Y-70967079D01*
X166088655Y-71192572D01*
X166226573Y-71295362D01*
X166227988Y-71296433D01*
X166663653Y-71630936D01*
X166665053Y-71632027D01*
X167095804Y-71972668D01*
X167097188Y-71973778D01*
X167523201Y-72320695D01*
X167524561Y-72321819D01*
X167529407Y-72325882D01*
X167945370Y-72674635D01*
X167946722Y-72675785D01*
X168362538Y-73034673D01*
X168363873Y-73035842D01*
X168774517Y-73400651D01*
X168775835Y-73401839D01*
X169181182Y-73772456D01*
X169182463Y-73773644D01*
X169393808Y-73972509D01*
X169582486Y-74150044D01*
X169583742Y-74151243D01*
X169653600Y-74218887D01*
X169978321Y-74533318D01*
X169979587Y-74534561D01*
X170368693Y-74922277D01*
X170369941Y-74923539D01*
X170753423Y-75316747D01*
X170754653Y-75318026D01*
X171132466Y-75716681D01*
X171133678Y-75717978D01*
X171505755Y-76122009D01*
X171506948Y-76123323D01*
X171635457Y-76266940D01*
X171867222Y-76525952D01*
X171873207Y-76532640D01*
X171874371Y-76533960D01*
X171996955Y-76674965D01*
X172234749Y-76948494D01*
X172235904Y-76949842D01*
X172590293Y-77369470D01*
X172591428Y-77370834D01*
X172644694Y-77435768D01*
X172929082Y-77782454D01*
X172939760Y-77795470D01*
X172940844Y-77796810D01*
X173110936Y-78010323D01*
X173283132Y-78226477D01*
X173284228Y-78227873D01*
X173620255Y-78662297D01*
X173621330Y-78663708D01*
X173679313Y-78740928D01*
X173951185Y-79102999D01*
X173952157Y-79104313D01*
X173972705Y-79132509D01*
X174275702Y-79548299D01*
X174276736Y-79549741D01*
X174593751Y-79998106D01*
X174594766Y-79999562D01*
X174905454Y-80452599D01*
X174906447Y-80454070D01*
X175210590Y-80911464D01*
X175211562Y-80912949D01*
X175509073Y-81374566D01*
X175510024Y-81376064D01*
X175800995Y-81842044D01*
X175801895Y-81843510D01*
X176086143Y-82313567D01*
X176087006Y-82315017D01*
X176364467Y-82789045D01*
X176365352Y-82790583D01*
X176635964Y-83268466D01*
X176636827Y-83270016D01*
X176900612Y-83751797D01*
X176901454Y-83753360D01*
X177158360Y-84238950D01*
X177159178Y-84240525D01*
X177409025Y-84729580D01*
X177409821Y-84731166D01*
X177652644Y-85223746D01*
X177653418Y-85225343D01*
X177889216Y-85721457D01*
X177889966Y-85723065D01*
X178118646Y-86222512D01*
X178119373Y-86224131D01*
X178340833Y-86726691D01*
X178341537Y-86728320D01*
X178555811Y-87234068D01*
X178556492Y-87235708D01*
X178763519Y-87744504D01*
X178764176Y-87746152D01*
X178963857Y-88257748D01*
X178964486Y-88259397D01*
X179006655Y-88372176D01*
X179156861Y-88773894D01*
X179157471Y-88775561D01*
X179342446Y-89292720D01*
X179343032Y-89294394D01*
X179434031Y-89560766D01*
X179499499Y-89752408D01*
X179520570Y-89814085D01*
X179521132Y-89815770D01*
X179691278Y-90338159D01*
X179691815Y-90339850D01*
X179854403Y-90864408D01*
X179854916Y-90866107D01*
X180009992Y-91392978D01*
X180010481Y-91394684D01*
X180157997Y-91923706D01*
X180158462Y-91925419D01*
X180298423Y-92456619D01*
X180298863Y-92458338D01*
X180431180Y-92991381D01*
X180431595Y-92993106D01*
X180556286Y-93528055D01*
X180556676Y-93529786D01*
X180673681Y-94066382D01*
X180674047Y-94068120D01*
X180783365Y-94606373D01*
X180783706Y-94608114D01*
X180885313Y-95147888D01*
X180885629Y-95149634D01*
X180979516Y-95690891D01*
X180979806Y-95692642D01*
X181065915Y-96235057D01*
X181066181Y-96236812D01*
X181144516Y-96780393D01*
X181144757Y-96782151D01*
X181215321Y-97326918D01*
X181215536Y-97328680D01*
X181278288Y-97874335D01*
X181278478Y-97876100D01*
X181333414Y-98422598D01*
X181333579Y-98424364D01*
X181380685Y-98971552D01*
X181380825Y-98973322D01*
X181420101Y-99521241D01*
X181420215Y-99523012D01*
X181451640Y-100071327D01*
X181451729Y-100073099D01*
X181475305Y-100621833D01*
X181475368Y-100623607D01*
X181491088Y-101172619D01*
X181491126Y-101174393D01*
X181498995Y-101724148D01*
X181499008Y-101725701D01*
X181499498Y-101999777D01*
X181499498Y-102000221D01*
X181499008Y-102274297D01*
X181498995Y-102275850D01*
X181491126Y-102825605D01*
X181491088Y-102827379D01*
X181475368Y-103376391D01*
X181475305Y-103378165D01*
X181451729Y-103926899D01*
X181451640Y-103928671D01*
X181420215Y-104476986D01*
X181420101Y-104478757D01*
X181380825Y-105026676D01*
X181380685Y-105028446D01*
X181333579Y-105575634D01*
X181333414Y-105577400D01*
X181278478Y-106123898D01*
X181278288Y-106125663D01*
X181215536Y-106671318D01*
X181215321Y-106673080D01*
X181144757Y-107217847D01*
X181144516Y-107219605D01*
X181066181Y-107763186D01*
X181065915Y-107764941D01*
X180979806Y-108307356D01*
X180979516Y-108309107D01*
X180885629Y-108850364D01*
X180885313Y-108852110D01*
X180783706Y-109391884D01*
X180783365Y-109393625D01*
X180674047Y-109931878D01*
X180673681Y-109933616D01*
X180556676Y-110470212D01*
X180556286Y-110471943D01*
X180431595Y-111006892D01*
X180431180Y-111008617D01*
X180298863Y-111541660D01*
X180298423Y-111543379D01*
X180158462Y-112074579D01*
X180157997Y-112076292D01*
X180010481Y-112605314D01*
X180009992Y-112607020D01*
X179854916Y-113133891D01*
X179854403Y-113135590D01*
X179691815Y-113660148D01*
X179691278Y-113661839D01*
X179521132Y-114184228D01*
X179520570Y-114185913D01*
X179343032Y-114705604D01*
X179342446Y-114707278D01*
X179157471Y-115224437D01*
X179156861Y-115226104D01*
X178964490Y-115740592D01*
X178963857Y-115742250D01*
X178794763Y-116175478D01*
X178752050Y-116230772D01*
X178686224Y-116254196D01*
X178639051Y-116247695D01*
X178626127Y-116243266D01*
X178618164Y-116241658D01*
X178618211Y-116241423D01*
X178602756Y-116238622D01*
X178544270Y-116221160D01*
X178529812Y-116215029D01*
X178529723Y-116215253D01*
X178522178Y-116212230D01*
X178470440Y-116199011D01*
X178465665Y-116197689D01*
X178414499Y-116182414D01*
X178406481Y-116181126D01*
X178406518Y-116180890D01*
X178390969Y-116178709D01*
X178331825Y-116163599D01*
X178317137Y-116158054D01*
X178317057Y-116158281D01*
X178309396Y-116155562D01*
X178257181Y-116144426D01*
X178252355Y-116143296D01*
X178200618Y-116130079D01*
X178192550Y-116129113D01*
X178192578Y-116128874D01*
X178176953Y-116127317D01*
X178117250Y-116114585D01*
X178102355Y-116109633D01*
X178102284Y-116109863D01*
X178094517Y-116107452D01*
X178041890Y-116098413D01*
X178037021Y-116097476D01*
X177984808Y-116086341D01*
X177976708Y-116085699D01*
X177976726Y-116085460D01*
X177961049Y-116084530D01*
X177900892Y-116074199D01*
X177885809Y-116069845D01*
X177885747Y-116070079D01*
X177877888Y-116067980D01*
X177824930Y-116061052D01*
X177820029Y-116060311D01*
X177767420Y-116051276D01*
X177759298Y-116050958D01*
X177759307Y-116050718D01*
X177743614Y-116050415D01*
X177683084Y-116042498D01*
X177667834Y-116038751D01*
X177667782Y-116038986D01*
X177659860Y-116037206D01*
X177606677Y-116032404D01*
X177601748Y-116031859D01*
X177548800Y-116024933D01*
X177540674Y-116024940D01*
X177540673Y-116024700D01*
X177524983Y-116025027D01*
X177464180Y-116019537D01*
X177448802Y-116016405D01*
X177448759Y-116016641D01*
X177440768Y-116015179D01*
X177387446Y-116012509D01*
X177382501Y-116012162D01*
X177329309Y-116007360D01*
X177321188Y-116007692D01*
X177321178Y-116007452D01*
X177305506Y-116008406D01*
X177244540Y-116005354D01*
X177229044Y-116002839D01*
X177229011Y-116003078D01*
X177220968Y-116001936D01*
X177220965Y-116001936D01*
X177218938Y-116001915D01*
X177167567Y-116001401D01*
X177162613Y-116001252D01*
X177109282Y-115998582D01*
X177101182Y-115999239D01*
X177101162Y-115999001D01*
X177085546Y-116000580D01*
X177024508Y-115999970D01*
X177008923Y-115998076D01*
X177008899Y-115998316D01*
X177000812Y-115997497D01*
X176947446Y-115999099D01*
X176942490Y-115999149D01*
X176895907Y-115998684D01*
X176889089Y-115998616D01*
X176889088Y-115998616D01*
X176889084Y-115998616D01*
X176881024Y-115999595D01*
X176880995Y-115999357D01*
X176865450Y-116001561D01*
X176804437Y-116003393D01*
X176788783Y-116002124D01*
X176788769Y-116002365D01*
X176780659Y-116001870D01*
X176727389Y-116005607D01*
X176722436Y-116005855D01*
X176675096Y-116007277D01*
X176669070Y-116007458D01*
X176669067Y-116007458D01*
X176661047Y-116008760D01*
X176661008Y-116008523D01*
X176645568Y-116011346D01*
X176584675Y-116015618D01*
X176568989Y-116014978D01*
X176568985Y-116015218D01*
X176560856Y-116015048D01*
X176507777Y-116020913D01*
X176502841Y-116021359D01*
X176455226Y-116024700D01*
X176449581Y-116025096D01*
X176449579Y-116025096D01*
X176441618Y-116026718D01*
X176441570Y-116026483D01*
X176426258Y-116029921D01*
X176365577Y-116036627D01*
X176349879Y-116036614D01*
X176349884Y-116036855D01*
X176341753Y-116037011D01*
X176288977Y-116044991D01*
X176284061Y-116045635D01*
X176259512Y-116048348D01*
X176230971Y-116051502D01*
X176230969Y-116051502D01*
X176230965Y-116051503D01*
X176223078Y-116053441D01*
X176223021Y-116053209D01*
X176207852Y-116057258D01*
X176147506Y-116066384D01*
X176131814Y-116066999D01*
X176131829Y-116067240D01*
X176123712Y-116067721D01*
X176071258Y-116077813D01*
X176066373Y-116078652D01*
X176013598Y-116086633D01*
X176005791Y-116088887D01*
X176005724Y-116088655D01*
X175990725Y-116093310D01*
X175971216Y-116097064D01*
X175930779Y-116104844D01*
X175915128Y-116106088D01*
X175915152Y-116106326D01*
X175907066Y-116107131D01*
X175855101Y-116119305D01*
X175850248Y-116120340D01*
X175797798Y-116130432D01*
X175790089Y-116132996D01*
X175790013Y-116132769D01*
X175775210Y-116138021D01*
X175715785Y-116151942D01*
X175700195Y-116153811D01*
X175700229Y-116154049D01*
X175692181Y-116155176D01*
X175640731Y-116169423D01*
X175635927Y-116170650D01*
X175583927Y-116182832D01*
X175576328Y-116185702D01*
X175576243Y-116185477D01*
X175561664Y-116191316D01*
X175502841Y-116207604D01*
X175487334Y-116210096D01*
X175487377Y-116210332D01*
X175479374Y-116211782D01*
X175428507Y-116228084D01*
X175423759Y-116229502D01*
X175372323Y-116243746D01*
X175364843Y-116246918D01*
X175364749Y-116246696D01*
X175350422Y-116253112D01*
X175292292Y-116271743D01*
X175276903Y-116274851D01*
X175276956Y-116275086D01*
X175269018Y-116276855D01*
X175218881Y-116295166D01*
X175214192Y-116296773D01*
X175163330Y-116313075D01*
X175155981Y-116316545D01*
X175155878Y-116316327D01*
X175141814Y-116323313D01*
X175084471Y-116344256D01*
X175069222Y-116347977D01*
X175069284Y-116348210D01*
X175061430Y-116350293D01*
X175012032Y-116370609D01*
X175007411Y-116372402D01*
X174957271Y-116390715D01*
X174950068Y-116394475D01*
X174949957Y-116394262D01*
X174936187Y-116401803D01*
X174879732Y-116425022D01*
X174864643Y-116429351D01*
X174864714Y-116429580D01*
X174856946Y-116431977D01*
X174808420Y-116454244D01*
X174803876Y-116456220D01*
X174754481Y-116476537D01*
X174747438Y-116480580D01*
X174747318Y-116480372D01*
X174733865Y-116488455D01*
X174678377Y-116513918D01*
X174663471Y-116518847D01*
X174663551Y-116519074D01*
X174655890Y-116521778D01*
X174608284Y-116545974D01*
X174603820Y-116548132D01*
X174555294Y-116570400D01*
X174548418Y-116574722D01*
X174548291Y-116574520D01*
X174535169Y-116583135D01*
X174480746Y-116610797D01*
X174466051Y-116616319D01*
X174466140Y-116616542D01*
X174458587Y-116619553D01*
X174411989Y-116645633D01*
X174407616Y-116647967D01*
X174360025Y-116672156D01*
X174353323Y-116676753D01*
X174353187Y-116676555D01*
X174340419Y-116685691D01*
X174335968Y-116688183D01*
X174287151Y-116715506D01*
X174272689Y-116721611D01*
X174272787Y-116721830D01*
X174265359Y-116725142D01*
X174219849Y-116753060D01*
X174215576Y-116755566D01*
X174168971Y-116781652D01*
X174162464Y-116786509D01*
X174162320Y-116786317D01*
X174149931Y-116795954D01*
X174097897Y-116827877D01*
X174083686Y-116834557D01*
X174083793Y-116834773D01*
X174076510Y-116838375D01*
X174032152Y-116868093D01*
X174027981Y-116870768D01*
X173982466Y-116898691D01*
X173976155Y-116903808D01*
X173976004Y-116903622D01*
X173964004Y-116913752D01*
X173913286Y-116947732D01*
X173899359Y-116954974D01*
X173899474Y-116955184D01*
X173892339Y-116959077D01*
X173849220Y-116990536D01*
X173845157Y-116993378D01*
X173800784Y-117023107D01*
X173794682Y-117028473D01*
X173794524Y-117028293D01*
X173782939Y-117038895D01*
X173733634Y-117074869D01*
X173720001Y-117082665D01*
X173720125Y-117082872D01*
X173713151Y-117087046D01*
X173684541Y-117109727D01*
X173671295Y-117120228D01*
X173667366Y-117123218D01*
X173624224Y-117154696D01*
X173618337Y-117160305D01*
X173618171Y-117160131D01*
X173607031Y-117171177D01*
X173559193Y-117209104D01*
X173545886Y-117217437D01*
X173546018Y-117217638D01*
X173539218Y-117222088D01*
X173498745Y-117256900D01*
X173494923Y-117260057D01*
X173453081Y-117293230D01*
X173447424Y-117299070D01*
X173447251Y-117298902D01*
X173436551Y-117310398D01*
X173390267Y-117350208D01*
X173377308Y-117359065D01*
X173377448Y-117359261D01*
X173370827Y-117363982D01*
X173331782Y-117400384D01*
X173328088Y-117403693D01*
X173287603Y-117438516D01*
X173282194Y-117444567D01*
X173282016Y-117444408D01*
X173271783Y-117456320D01*
X173227130Y-117497951D01*
X173214536Y-117507320D01*
X173214683Y-117507510D01*
X173208263Y-117512487D01*
X173170699Y-117550427D01*
X173167143Y-117553877D01*
X173128080Y-117590297D01*
X173122909Y-117596569D01*
X173122723Y-117596416D01*
X173112981Y-117608724D01*
X173070030Y-117652107D01*
X173057816Y-117661975D01*
X173057971Y-117662159D01*
X173051755Y-117667389D01*
X173015738Y-117706803D01*
X173012324Y-117710393D01*
X172974750Y-117748346D01*
X172969840Y-117754813D01*
X172969649Y-117754668D01*
X172960403Y-117767361D01*
X172919223Y-117812426D01*
X172907414Y-117822775D01*
X172907576Y-117822952D01*
X172901579Y-117828422D01*
X172867163Y-117869251D01*
X172863895Y-117872973D01*
X172827878Y-117912391D01*
X172823222Y-117919061D01*
X172823024Y-117918923D01*
X172814295Y-117931974D01*
X172781425Y-117970969D01*
X172774956Y-117978645D01*
X172763571Y-117989458D01*
X172763739Y-117989628D01*
X172757962Y-117995338D01*
X172725204Y-118037516D01*
X172722085Y-118041370D01*
X172687676Y-118082192D01*
X172683295Y-118089037D01*
X172683093Y-118088907D01*
X172674892Y-118102297D01*
X172637446Y-118150512D01*
X172626508Y-118161767D01*
X172626683Y-118161930D01*
X172621139Y-118167866D01*
X172590103Y-118211310D01*
X172587141Y-118215285D01*
X172554385Y-118257463D01*
X172550280Y-118264478D01*
X172550072Y-118264356D01*
X172542414Y-118278065D01*
X172506928Y-118327737D01*
X172496444Y-118339427D01*
X172496625Y-118339583D01*
X172491325Y-118345734D01*
X172462045Y-118390396D01*
X172459243Y-118394489D01*
X172428210Y-118437928D01*
X172424391Y-118445100D01*
X172424179Y-118444987D01*
X172417077Y-118458985D01*
X172383606Y-118510041D01*
X172373601Y-118522137D01*
X172373790Y-118522287D01*
X172368735Y-118528651D01*
X172366229Y-118532829D01*
X172344373Y-118569269D01*
X172341285Y-118574417D01*
X172338649Y-118578618D01*
X172309360Y-118623294D01*
X172305829Y-118630616D01*
X172305612Y-118630511D01*
X172299075Y-118644788D01*
X172267676Y-118697136D01*
X172258159Y-118709625D01*
X172258353Y-118709767D01*
X172253559Y-118716326D01*
X172227940Y-118763191D01*
X172225476Y-118767492D01*
X172198017Y-118813274D01*
X172194784Y-118820725D01*
X172194564Y-118820629D01*
X172188602Y-118835157D01*
X172159324Y-118888716D01*
X172150318Y-118901573D01*
X172150517Y-118901707D01*
X172145990Y-118908451D01*
X172122263Y-118956310D01*
X172119974Y-118960705D01*
X172094366Y-119007553D01*
X172091435Y-119015126D01*
X172091211Y-119015039D01*
X172085837Y-119029789D01*
X172060469Y-119080961D01*
X172058723Y-119084483D01*
X172050237Y-119097692D01*
X172050441Y-119097818D01*
X172046187Y-119104739D01*
X172024405Y-119153484D01*
X172022293Y-119157967D01*
X171998573Y-119205815D01*
X171995946Y-119213504D01*
X171995719Y-119213426D01*
X171990937Y-119228384D01*
X171966036Y-119284113D01*
X171958087Y-119297650D01*
X171958296Y-119297767D01*
X171954323Y-119304851D01*
X171934504Y-119354439D01*
X171932574Y-119359000D01*
X171910790Y-119407756D01*
X171908471Y-119415548D01*
X171908240Y-119415479D01*
X171904062Y-119430618D01*
X171881413Y-119487291D01*
X171874008Y-119501140D01*
X171874221Y-119501249D01*
X171870536Y-119508484D01*
X171852712Y-119558842D01*
X171850964Y-119563482D01*
X171831155Y-119613049D01*
X171829152Y-119620920D01*
X171828920Y-119620860D01*
X171825349Y-119636152D01*
X171804981Y-119693699D01*
X171798137Y-119707831D01*
X171798356Y-119707932D01*
X171794959Y-119715317D01*
X171779171Y-119766325D01*
X171777612Y-119771028D01*
X171759797Y-119821366D01*
X171758109Y-119829315D01*
X171757874Y-119829265D01*
X171754919Y-119844686D01*
X171736871Y-119902998D01*
X171730599Y-119917390D01*
X171730821Y-119917482D01*
X171727725Y-119924992D01*
X171713989Y-119976597D01*
X171712618Y-119981360D01*
X171696831Y-120032369D01*
X171695463Y-120040379D01*
X171695227Y-120040338D01*
X171692891Y-120055861D01*
X171677191Y-120114849D01*
X171671502Y-120129477D01*
X171671727Y-120129560D01*
X171668933Y-120137191D01*
X171657270Y-120189314D01*
X171656091Y-120194128D01*
X171642359Y-120245721D01*
X171641312Y-120253780D01*
X171641074Y-120253749D01*
X171639362Y-120269352D01*
X171626034Y-120328922D01*
X171620932Y-120343771D01*
X171621160Y-120343845D01*
X171618674Y-120351580D01*
X171609109Y-120404112D01*
X171608124Y-120408971D01*
X171596465Y-120461084D01*
X171595741Y-120469177D01*
X171595502Y-120469155D01*
X171594416Y-120484814D01*
X171583483Y-120544867D01*
X171578978Y-120559911D01*
X171579210Y-120559976D01*
X171577033Y-120567810D01*
X171569578Y-120620685D01*
X171568788Y-120625580D01*
X171559226Y-120678106D01*
X171558826Y-120686230D01*
X171558585Y-120686218D01*
X171558127Y-120701904D01*
X171549603Y-120762353D01*
X171545706Y-120777560D01*
X171545940Y-120777615D01*
X171544080Y-120785524D01*
X171538746Y-120838648D01*
X171538152Y-120843568D01*
X171530698Y-120896442D01*
X171530624Y-120904570D01*
X171530383Y-120904567D01*
X171530553Y-120920271D01*
X171524455Y-120981012D01*
X171521170Y-120996359D01*
X171521406Y-120996405D01*
X171519864Y-121004381D01*
X171516660Y-121057683D01*
X171516263Y-121062625D01*
X171510929Y-121115759D01*
X171511180Y-121123884D01*
X171510940Y-121123891D01*
X171511737Y-121139564D01*
X171508074Y-121200502D01*
X171505405Y-121215975D01*
X171505641Y-121216011D01*
X171504420Y-121224039D01*
X171503352Y-121277412D01*
X171503154Y-121282366D01*
X171499951Y-121335673D01*
X171500527Y-121343782D01*
X171500287Y-121343799D01*
X171501711Y-121359437D01*
X171500490Y-121420468D01*
X171498441Y-121436037D01*
X171498680Y-121436064D01*
X171497781Y-121444134D01*
X171498849Y-121497521D01*
X171498849Y-121502479D01*
X171497781Y-121555860D01*
X171498681Y-121563939D01*
X171498441Y-121563965D01*
X171500490Y-121579532D01*
X171501711Y-121640560D01*
X171500287Y-121656196D01*
X171500526Y-121656213D01*
X171499950Y-121664319D01*
X171503154Y-121717632D01*
X171503352Y-121722587D01*
X171504420Y-121775953D01*
X171505642Y-121783988D01*
X171505405Y-121784024D01*
X171508074Y-121799496D01*
X171511737Y-121860436D01*
X171510941Y-121876110D01*
X171511180Y-121876118D01*
X171510929Y-121884240D01*
X171516263Y-121937373D01*
X171516660Y-121942316D01*
X171519864Y-121995618D01*
X171521406Y-122003594D01*
X171521169Y-122003639D01*
X171524455Y-122018988D01*
X171530553Y-122079729D01*
X171530384Y-122095433D01*
X171530624Y-122095431D01*
X171530698Y-122103558D01*
X171538152Y-122156433D01*
X171538746Y-122161353D01*
X171544080Y-122214475D01*
X171545940Y-122222384D01*
X171545706Y-122222438D01*
X171549603Y-122237645D01*
X171555347Y-122278374D01*
X171558127Y-122298093D01*
X171558586Y-122313782D01*
X171558826Y-122313771D01*
X171559226Y-122321894D01*
X171568789Y-122374425D01*
X171569579Y-122379321D01*
X171577033Y-122432194D01*
X171579210Y-122440027D01*
X171578978Y-122440091D01*
X171583484Y-122455136D01*
X171594416Y-122515185D01*
X171595503Y-122530844D01*
X171595741Y-122530823D01*
X171596465Y-122538915D01*
X171596466Y-122538919D01*
X171596466Y-122538921D01*
X171599110Y-122550738D01*
X171608126Y-122591036D01*
X171609107Y-122595874D01*
X171615118Y-122628886D01*
X171618675Y-122648423D01*
X171621161Y-122656158D01*
X171620932Y-122656231D01*
X171626034Y-122671078D01*
X171629739Y-122687637D01*
X171639362Y-122730646D01*
X171641074Y-122746250D01*
X171641312Y-122746220D01*
X171642359Y-122754278D01*
X171656092Y-122805872D01*
X171657272Y-122810692D01*
X171668930Y-122862799D01*
X171671726Y-122870434D01*
X171671499Y-122870516D01*
X171677191Y-122885148D01*
X171692891Y-122944135D01*
X171695227Y-122959662D01*
X171695464Y-122959622D01*
X171696833Y-122967634D01*
X171700639Y-122979930D01*
X171712623Y-123018654D01*
X171713985Y-123023387D01*
X171727722Y-123075000D01*
X171730821Y-123082517D01*
X171730598Y-123082608D01*
X171736872Y-123097003D01*
X171754919Y-123155312D01*
X171757874Y-123170734D01*
X171758109Y-123170685D01*
X171759798Y-123178637D01*
X171777611Y-123228969D01*
X171779172Y-123233675D01*
X171794962Y-123284689D01*
X171798357Y-123292072D01*
X171798138Y-123292172D01*
X171804983Y-123306304D01*
X171825348Y-123363843D01*
X171828918Y-123379133D01*
X171829150Y-123379074D01*
X171831155Y-123386949D01*
X171850970Y-123436533D01*
X171852718Y-123441174D01*
X171870534Y-123491510D01*
X171870535Y-123491512D01*
X171874223Y-123498752D01*
X171874008Y-123498861D01*
X171881413Y-123512708D01*
X171904061Y-123569379D01*
X171908242Y-123584523D01*
X171908472Y-123584455D01*
X171910790Y-123592244D01*
X171932581Y-123641014D01*
X171934513Y-123645580D01*
X171954320Y-123695142D01*
X171958295Y-123702229D01*
X171958084Y-123702347D01*
X171966037Y-123715886D01*
X171990938Y-123771615D01*
X171995720Y-123786575D01*
X171995948Y-123786498D01*
X171998577Y-123794193D01*
X172022291Y-123842028D01*
X172024405Y-123846515D01*
X172046184Y-123895256D01*
X172050438Y-123902176D01*
X172050233Y-123902301D01*
X172058722Y-123915516D01*
X172085834Y-123970203D01*
X172091209Y-123984956D01*
X172091433Y-123984870D01*
X172094365Y-123992444D01*
X172119984Y-124039313D01*
X172122273Y-124043709D01*
X172145987Y-124091541D01*
X172145989Y-124091545D01*
X172145991Y-124091548D01*
X172150518Y-124098292D01*
X172150317Y-124098426D01*
X172159324Y-124111281D01*
X172170700Y-124132091D01*
X172188604Y-124164845D01*
X172194566Y-124179373D01*
X172194787Y-124179278D01*
X172198020Y-124186731D01*
X172225493Y-124232535D01*
X172227939Y-124236806D01*
X172253560Y-124283675D01*
X172253561Y-124283676D01*
X172253563Y-124283679D01*
X172258356Y-124290238D01*
X172258162Y-124290379D01*
X172267677Y-124302865D01*
X172299074Y-124355210D01*
X172305611Y-124369486D01*
X172305828Y-124369382D01*
X172309358Y-124376702D01*
X172338639Y-124421365D01*
X172341277Y-124425569D01*
X172368737Y-124471352D01*
X172373791Y-124477715D01*
X172373601Y-124477865D01*
X172383609Y-124489961D01*
X172417076Y-124541011D01*
X172424177Y-124555010D01*
X172424390Y-124554898D01*
X172428211Y-124562073D01*
X172459234Y-124605497D01*
X172462038Y-124609592D01*
X172491326Y-124654266D01*
X172496631Y-124660424D01*
X172496449Y-124660580D01*
X172506931Y-124672265D01*
X172542417Y-124721938D01*
X172550074Y-124735644D01*
X172550282Y-124735523D01*
X172554380Y-124742527D01*
X172554384Y-124742535D01*
X172578017Y-124772965D01*
X172587145Y-124784718D01*
X172590087Y-124788666D01*
X172621137Y-124832130D01*
X172621138Y-124832131D01*
X172621139Y-124832132D01*
X172626683Y-124838069D01*
X172626507Y-124838233D01*
X172637449Y-124849490D01*
X172674891Y-124897699D01*
X172683090Y-124911089D01*
X172683293Y-124910960D01*
X172687676Y-124917807D01*
X172722079Y-124958622D01*
X172725199Y-124962477D01*
X172757963Y-125004662D01*
X172763744Y-125010377D01*
X172763575Y-125010547D01*
X172774953Y-125021350D01*
X172814296Y-125068026D01*
X172823023Y-125081074D01*
X172823220Y-125080937D01*
X172827872Y-125087600D01*
X172827874Y-125087603D01*
X172848301Y-125109958D01*
X172863891Y-125127020D01*
X172867161Y-125130746D01*
X172901578Y-125171577D01*
X172907582Y-125177054D01*
X172907419Y-125177231D01*
X172919227Y-125187577D01*
X172960401Y-125232635D01*
X172969647Y-125245330D01*
X172969839Y-125245185D01*
X172974750Y-125251653D01*
X172974754Y-125251657D01*
X173012341Y-125289622D01*
X173015719Y-125293174D01*
X173051756Y-125332611D01*
X173051757Y-125332612D01*
X173057976Y-125337845D01*
X173057820Y-125338029D01*
X173070034Y-125347895D01*
X173112979Y-125391272D01*
X173122725Y-125403586D01*
X173122911Y-125403433D01*
X173128079Y-125409702D01*
X173150624Y-125430719D01*
X173167159Y-125446135D01*
X173170663Y-125449536D01*
X173208261Y-125487511D01*
X173208263Y-125487512D01*
X173208265Y-125487514D01*
X173214686Y-125492493D01*
X173214538Y-125492683D01*
X173227134Y-125502051D01*
X173271779Y-125543673D01*
X173282007Y-125555584D01*
X173282187Y-125555424D01*
X173287608Y-125561487D01*
X173294170Y-125567131D01*
X173332159Y-125625770D01*
X173332414Y-125695640D01*
X173311392Y-125737007D01*
X173284227Y-125772126D01*
X173283132Y-125773521D01*
X172940876Y-126203148D01*
X172939760Y-126204528D01*
X172591428Y-126629164D01*
X172590293Y-126630528D01*
X172235904Y-127050156D01*
X172234749Y-127051504D01*
X171874381Y-127466027D01*
X171873207Y-127467358D01*
X171506948Y-127876675D01*
X171505755Y-127877989D01*
X171133678Y-128282020D01*
X171132466Y-128283317D01*
X170754653Y-128681972D01*
X170753423Y-128683251D01*
X170369941Y-129076459D01*
X170368693Y-129077721D01*
X169979587Y-129465437D01*
X169978321Y-129466680D01*
X169583770Y-129848728D01*
X169582486Y-129849954D01*
X169182483Y-130226335D01*
X169181182Y-130227542D01*
X168775835Y-130598159D01*
X168774517Y-130599347D01*
X168363873Y-130964156D01*
X168362538Y-130965325D01*
X167946722Y-131324213D01*
X167945370Y-131325363D01*
X167524569Y-131678172D01*
X167523201Y-131679303D01*
X167097188Y-132026220D01*
X167095804Y-132027330D01*
X166665053Y-132367971D01*
X166663653Y-132369062D01*
X166227988Y-132703565D01*
X166226573Y-132704636D01*
X165786153Y-133032881D01*
X165784771Y-133033895D01*
X165560422Y-133196160D01*
X165339727Y-133355781D01*
X165338282Y-133356810D01*
X164888646Y-133672316D01*
X164887185Y-133673325D01*
X164433135Y-133982325D01*
X164431661Y-133983313D01*
X163973230Y-134285786D01*
X163971742Y-134286753D01*
X163508952Y-134582684D01*
X163507450Y-134583629D01*
X163040537Y-134872865D01*
X163039021Y-134873789D01*
X162568010Y-135156317D01*
X162566482Y-135157219D01*
X162091472Y-135432980D01*
X162089931Y-135433860D01*
X161611032Y-135702789D01*
X161609478Y-135703647D01*
X161126720Y-135965725D01*
X161125154Y-135966560D01*
X160638834Y-136221629D01*
X160637257Y-136222442D01*
X160147206Y-136470592D01*
X160145617Y-136471383D01*
X159652086Y-136712483D01*
X159650486Y-136713250D01*
X159153641Y-136947222D01*
X159152030Y-136947967D01*
X158651783Y-137174850D01*
X158650161Y-137175572D01*
X158146722Y-137395270D01*
X158145091Y-137395968D01*
X157638590Y-137608428D01*
X157636948Y-137609102D01*
X157127539Y-137814257D01*
X157125888Y-137814909D01*
X156613452Y-138012808D01*
X156611792Y-138013435D01*
X156096676Y-138203943D01*
X156095007Y-138204547D01*
X155577201Y-138387668D01*
X155575524Y-138388248D01*
X155055058Y-138563970D01*
X155053373Y-138564525D01*
X154530560Y-138732746D01*
X154528866Y-138733278D01*
X154003713Y-138893993D01*
X154002012Y-138894500D01*
X153474513Y-139047712D01*
X153472806Y-139048195D01*
X152943209Y-139193831D01*
X152941494Y-139194289D01*
X152409879Y-139332325D01*
X152408159Y-139332759D01*
X151874606Y-139463180D01*
X151872878Y-139463589D01*
X151337542Y-139586352D01*
X151335809Y-139586736D01*
X150798789Y-139701820D01*
X150797052Y-139702179D01*
X150258307Y-139809594D01*
X150256563Y-139809929D01*
X149716486Y-139909592D01*
X149714739Y-139909902D01*
X149173210Y-140001840D01*
X149171458Y-140002124D01*
X148628713Y-140086295D01*
X148626958Y-140086555D01*
X148083062Y-140162952D01*
X148081302Y-140163186D01*
X147536314Y-140231796D01*
X147534552Y-140232005D01*
X146988714Y-140292801D01*
X146986949Y-140292985D01*
X146440243Y-140345966D01*
X146438475Y-140346124D01*
X145891150Y-140391270D01*
X145889381Y-140391404D01*
X145341231Y-140428728D01*
X145339459Y-140428835D01*
X144791082Y-140458294D01*
X144789310Y-140458377D01*
X144240498Y-140479990D01*
X144238723Y-140480047D01*
X143689619Y-140493803D01*
X143687845Y-140493835D01*
X143138612Y-140499730D01*
X143136837Y-140499736D01*
X142587591Y-140497771D01*
X142585816Y-140497752D01*
X142036707Y-140487926D01*
X142034933Y-140487882D01*
X141485954Y-140470197D01*
X141484181Y-140470127D01*
X140935502Y-140444586D01*
X140933730Y-140444491D01*
X140385461Y-140411101D01*
X140383690Y-140410980D01*
X139836066Y-140369752D01*
X139834298Y-140369606D01*
X139287245Y-140320541D01*
X139285478Y-140320370D01*
X138739187Y-140263479D01*
X138737424Y-140263283D01*
X138191935Y-140198573D01*
X138190174Y-140198351D01*
X137645762Y-140125852D01*
X137644004Y-140125605D01*
X137100608Y-140045309D01*
X137098854Y-140045037D01*
X136556718Y-139956983D01*
X136554968Y-139956686D01*
X136014139Y-139860879D01*
X136012394Y-139860557D01*
X135473033Y-139757029D01*
X135471293Y-139756682D01*
X134933435Y-139645438D01*
X134931700Y-139645066D01*
X134668712Y-139586736D01*
X134395429Y-139526122D01*
X134393768Y-139525741D01*
X134117321Y-139460261D01*
X133859322Y-139399150D01*
X133857598Y-139398729D01*
X133324897Y-139264470D01*
X133323180Y-139264024D01*
X132792578Y-139122190D01*
X132790867Y-139121719D01*
X132262387Y-138972315D01*
X132260682Y-138971820D01*
X131734325Y-138814847D01*
X131732628Y-138814328D01*
X131208532Y-138649825D01*
X131206843Y-138649281D01*
X130685259Y-138477330D01*
X130683577Y-138476763D01*
X130164372Y-138297315D01*
X130162699Y-138296723D01*
X129646205Y-138109896D01*
X129644541Y-138109280D01*
X129286558Y-137973966D01*
X129130844Y-137915107D01*
X129129210Y-137914477D01*
X128981714Y-137856299D01*
X128618165Y-137712901D01*
X128616519Y-137712238D01*
X128108613Y-137503450D01*
X128106977Y-137502764D01*
X127601991Y-137286680D01*
X127600364Y-137285970D01*
X127098573Y-137062701D01*
X127096956Y-137061968D01*
X126598233Y-136831458D01*
X126596628Y-136830701D01*
X126101543Y-136593215D01*
X126099948Y-136592436D01*
X125608098Y-136347782D01*
X125606515Y-136346981D01*
X125118279Y-136095345D01*
X125116707Y-136094520D01*
X124632245Y-135835986D01*
X124630685Y-135835140D01*
X124149838Y-135569626D01*
X124148291Y-135568757D01*
X123671284Y-135296385D01*
X123669749Y-135295494D01*
X123196779Y-135016374D01*
X123195257Y-135015461D01*
X122726207Y-134729525D01*
X122724699Y-134728590D01*
X122550242Y-134618785D01*
X122259882Y-134436029D01*
X122258473Y-134435129D01*
X121797765Y-134135863D01*
X121796301Y-134134897D01*
X121793507Y-134133025D01*
X121339990Y-133829114D01*
X121338578Y-133828153D01*
X120886675Y-133515858D01*
X120885246Y-133514855D01*
X120437907Y-133196160D01*
X120436469Y-133195120D01*
X119993751Y-132870066D01*
X119992328Y-132869005D01*
X119554295Y-132537639D01*
X119552887Y-132536558D01*
X119119679Y-132198985D01*
X119118287Y-132197885D01*
X118689888Y-131854094D01*
X118688512Y-131852973D01*
X118265118Y-131503119D01*
X118263758Y-131501979D01*
X118076101Y-131342343D01*
X117845283Y-131145990D01*
X117844101Y-131144970D01*
X117430782Y-130783044D01*
X117429480Y-130781886D01*
X117021539Y-130414221D01*
X117020229Y-130413024D01*
X116878154Y-130281243D01*
X116617439Y-130039418D01*
X116616169Y-130038223D01*
X116603002Y-130025655D01*
X116395501Y-129827588D01*
X116218884Y-129659001D01*
X116217609Y-129657766D01*
X115825779Y-129272884D01*
X115824521Y-129271631D01*
X115438231Y-128881171D01*
X115436993Y-128879901D01*
X115056396Y-128484023D01*
X115055175Y-128482735D01*
X114680108Y-128081262D01*
X114678905Y-128079956D01*
X114381078Y-127751870D01*
X114309778Y-127673326D01*
X114308611Y-127672022D01*
X114290855Y-127651891D01*
X113945248Y-127260045D01*
X113944084Y-127258705D01*
X113586741Y-126841673D01*
X113585595Y-126840317D01*
X113234221Y-126418168D01*
X113233096Y-126416796D01*
X112887811Y-125989675D01*
X112886705Y-125988287D01*
X112547567Y-125556267D01*
X112547479Y-125556048D01*
X112546481Y-125554864D01*
X112455450Y-125435422D01*
X112430470Y-125370170D01*
X112444732Y-125301772D01*
X112457957Y-125284033D01*
X112457055Y-125283336D01*
X112459795Y-125279794D01*
X112465544Y-125273857D01*
X112466808Y-125272163D01*
X112467869Y-125271112D01*
X112468038Y-125271282D01*
X112478906Y-125260061D01*
X112525970Y-125221191D01*
X112539105Y-125212596D01*
X112538970Y-125212398D01*
X112545675Y-125207816D01*
X112545678Y-125207812D01*
X112545682Y-125207811D01*
X112585480Y-125172167D01*
X112589211Y-125168959D01*
X112630387Y-125134952D01*
X112630387Y-125134950D01*
X112630390Y-125134949D01*
X112635926Y-125129001D01*
X112636102Y-125129165D01*
X112646563Y-125117462D01*
X112692041Y-125076733D01*
X112704822Y-125067622D01*
X112704678Y-125067428D01*
X112711194Y-125062581D01*
X112711198Y-125062579D01*
X112749547Y-125025363D01*
X112753099Y-125022051D01*
X112792918Y-124986391D01*
X112792919Y-124986390D01*
X112798211Y-124980227D01*
X112798393Y-124980383D01*
X112808381Y-124968267D01*
X112852187Y-124925757D01*
X112864590Y-124916143D01*
X112864439Y-124915956D01*
X112870764Y-124910845D01*
X112870763Y-124910845D01*
X112870766Y-124910844D01*
X112907593Y-124872125D01*
X112911040Y-124868643D01*
X112949375Y-124831444D01*
X112949376Y-124831440D01*
X112954420Y-124825069D01*
X112954609Y-124825219D01*
X112964107Y-124812712D01*
X113006168Y-124768493D01*
X113018186Y-124758382D01*
X113018027Y-124758200D01*
X113024134Y-124752847D01*
X113024139Y-124752845D01*
X113059395Y-124712675D01*
X113062688Y-124709072D01*
X113099506Y-124670366D01*
X113099511Y-124670356D01*
X113104292Y-124663794D01*
X113104487Y-124663936D01*
X113113469Y-124651068D01*
X113153743Y-124605183D01*
X113165338Y-124594608D01*
X113165172Y-124594433D01*
X113171063Y-124588837D01*
X113171068Y-124588834D01*
X113204661Y-124547319D01*
X113207829Y-124543560D01*
X113243075Y-124503406D01*
X113243076Y-124503402D01*
X113243078Y-124503401D01*
X113247596Y-124496647D01*
X113247795Y-124496780D01*
X113256257Y-124483559D01*
X113294656Y-124436108D01*
X113305819Y-124425077D01*
X113305646Y-124424909D01*
X113311305Y-124419085D01*
X113311314Y-124419079D01*
X113343226Y-124376244D01*
X113346241Y-124372363D01*
X113379848Y-124330835D01*
X113379850Y-124330830D01*
X113384095Y-124323899D01*
X113384301Y-124324025D01*
X113392224Y-124310479D01*
X113428696Y-124261528D01*
X113439409Y-124250058D01*
X113439230Y-124249898D01*
X113444655Y-124243850D01*
X113444655Y-124243848D01*
X113444658Y-124243847D01*
X113474837Y-124199761D01*
X113477703Y-124195751D01*
X113509605Y-124152934D01*
X113509606Y-124152932D01*
X113513569Y-124145838D01*
X113513779Y-124145955D01*
X113521161Y-124132094D01*
X113555635Y-124081736D01*
X113565885Y-124069841D01*
X113565700Y-124069688D01*
X113570882Y-124063424D01*
X113570882Y-124063423D01*
X113570886Y-124063420D01*
X113599315Y-124018102D01*
X113601949Y-124014085D01*
X113632142Y-123969982D01*
X113632144Y-123969975D01*
X113635818Y-123962734D01*
X113636033Y-123962843D01*
X113642852Y-123948702D01*
X113675292Y-123896991D01*
X113685057Y-123884697D01*
X113684865Y-123884551D01*
X113689783Y-123878095D01*
X113689790Y-123878089D01*
X113716333Y-123831756D01*
X113718880Y-123827511D01*
X113747261Y-123782273D01*
X113747262Y-123782269D01*
X113750645Y-123774882D01*
X113750864Y-123774982D01*
X113757114Y-123760576D01*
X113757356Y-123760153D01*
X113787455Y-123707617D01*
X113796723Y-123694938D01*
X113796525Y-123694800D01*
X113801183Y-123688150D01*
X113801187Y-123688147D01*
X113825866Y-123640769D01*
X113828246Y-123636417D01*
X113854776Y-123590111D01*
X113857863Y-123582588D01*
X113858086Y-123582679D01*
X113863751Y-123568042D01*
X113891949Y-123513909D01*
X113900702Y-123500871D01*
X113900499Y-123500741D01*
X113904889Y-123493907D01*
X113904895Y-123493901D01*
X113927674Y-123445541D01*
X113929839Y-123441174D01*
X113954519Y-123393798D01*
X113954520Y-123393795D01*
X113957301Y-123386162D01*
X113957527Y-123386244D01*
X113962601Y-123371393D01*
X113988617Y-123316162D01*
X113996838Y-123302792D01*
X113996629Y-123302670D01*
X114000743Y-123295665D01*
X114000747Y-123295661D01*
X114021558Y-123246462D01*
X114023552Y-123241997D01*
X114046327Y-123193652D01*
X114046328Y-123193648D01*
X114048801Y-123185910D01*
X114049030Y-123185983D01*
X114053507Y-123170938D01*
X114077288Y-123114722D01*
X114084968Y-123101030D01*
X114084755Y-123100916D01*
X114088583Y-123093755D01*
X114088590Y-123093747D01*
X114107421Y-123043743D01*
X114109235Y-123039204D01*
X114130053Y-122989995D01*
X114130053Y-122989990D01*
X114132215Y-122982161D01*
X114132447Y-122982225D01*
X114136319Y-122967012D01*
X114157833Y-122909888D01*
X114164960Y-122895899D01*
X114164743Y-122895794D01*
X114168285Y-122888479D01*
X114168284Y-122888479D01*
X114168287Y-122888476D01*
X114185091Y-122837790D01*
X114186740Y-122833133D01*
X114196103Y-122808273D01*
X114205565Y-122783151D01*
X114205566Y-122783145D01*
X114207413Y-122775234D01*
X114207647Y-122775288D01*
X114210908Y-122759930D01*
X114230117Y-122701994D01*
X114236679Y-122687733D01*
X114236458Y-122687637D01*
X114239705Y-122680187D01*
X114242661Y-122669911D01*
X114254476Y-122628842D01*
X114255932Y-122624140D01*
X114265099Y-122596493D01*
X114272740Y-122573450D01*
X114272740Y-122573442D01*
X114274270Y-122565461D01*
X114274507Y-122565506D01*
X114277148Y-122550037D01*
X114294027Y-122491372D01*
X114300011Y-122476861D01*
X114299787Y-122476774D01*
X114302730Y-122469205D01*
X114302734Y-122469200D01*
X114315439Y-122417304D01*
X114316711Y-122412528D01*
X114321916Y-122394437D01*
X114331471Y-122361229D01*
X114331471Y-122361224D01*
X114332679Y-122353192D01*
X114332917Y-122353227D01*
X114334938Y-122337666D01*
X114349459Y-122278360D01*
X114354857Y-122263626D01*
X114354629Y-122263548D01*
X114357267Y-122255867D01*
X114357270Y-122255863D01*
X114367889Y-122203498D01*
X114368955Y-122198735D01*
X114381665Y-122146830D01*
X114381665Y-122146825D01*
X114382551Y-122138748D01*
X114382790Y-122138774D01*
X114384187Y-122123141D01*
X114396321Y-122063310D01*
X114401126Y-122048370D01*
X114400895Y-122048301D01*
X114403226Y-122040517D01*
X114403225Y-122040517D01*
X114403227Y-122040515D01*
X114411743Y-121987762D01*
X114412613Y-121982982D01*
X114423240Y-121930593D01*
X114423240Y-121930588D01*
X114423802Y-121922484D01*
X114424042Y-121922500D01*
X114424814Y-121906818D01*
X114434544Y-121846559D01*
X114438746Y-121831434D01*
X114438512Y-121831374D01*
X114440527Y-121823508D01*
X114440531Y-121823500D01*
X114446933Y-121770426D01*
X114447608Y-121765641D01*
X114456130Y-121712866D01*
X114456130Y-121712863D01*
X114456367Y-121704738D01*
X114456608Y-121704745D01*
X114456751Y-121689041D01*
X114459733Y-121664323D01*
X114464061Y-121628449D01*
X114467655Y-121613170D01*
X114467419Y-121613120D01*
X114469122Y-121605166D01*
X114471178Y-121579532D01*
X114473392Y-121551914D01*
X114473881Y-121547044D01*
X114480282Y-121493997D01*
X114480282Y-121493996D01*
X114480194Y-121485865D01*
X114480434Y-121485862D01*
X114479950Y-121470170D01*
X114481610Y-121449473D01*
X114484830Y-121409330D01*
X114487812Y-121393914D01*
X114487574Y-121393873D01*
X114488955Y-121385868D01*
X114488954Y-121385868D01*
X114488956Y-121385865D01*
X114491093Y-121332476D01*
X114491386Y-121327602D01*
X114495659Y-121274339D01*
X114495658Y-121274337D01*
X114495659Y-121274333D01*
X114495246Y-121266222D01*
X114495486Y-121266209D01*
X114494373Y-121250545D01*
X114496752Y-121191135D01*
X114499009Y-121176562D01*
X114498562Y-121176501D01*
X114499663Y-121168449D01*
X114499808Y-121139564D01*
X114499938Y-121113493D01*
X114500035Y-121109153D01*
X114502234Y-121054234D01*
X114501497Y-121046146D01*
X114502038Y-121046096D01*
X114500677Y-121034140D01*
X114500509Y-121000620D01*
X114500509Y-120999377D01*
X114500677Y-120965861D01*
X114502039Y-120953908D01*
X114501496Y-120953859D01*
X114502232Y-120945769D01*
X114502234Y-120945761D01*
X114500034Y-120890842D01*
X114499938Y-120886503D01*
X114499663Y-120831550D01*
X114498562Y-120823496D01*
X114499008Y-120823434D01*
X114496752Y-120808861D01*
X114494373Y-120749451D01*
X114495486Y-120733793D01*
X114495245Y-120733781D01*
X114495657Y-120725669D01*
X114495659Y-120725661D01*
X114491385Y-120672394D01*
X114491093Y-120667525D01*
X114488956Y-120614135D01*
X114487574Y-120606131D01*
X114487810Y-120606090D01*
X114484830Y-120590666D01*
X114482996Y-120567805D01*
X114479950Y-120529826D01*
X114480434Y-120514130D01*
X114480193Y-120514128D01*
X114480280Y-120506010D01*
X114480282Y-120506003D01*
X114473882Y-120452959D01*
X114473392Y-120448078D01*
X114469122Y-120394832D01*
X114469118Y-120394823D01*
X114467419Y-120386879D01*
X114467654Y-120386828D01*
X114464061Y-120371549D01*
X114456750Y-120310955D01*
X114456608Y-120295255D01*
X114456367Y-120295263D01*
X114456130Y-120287140D01*
X114456129Y-120287137D01*
X114456130Y-120287134D01*
X114447608Y-120234355D01*
X114446931Y-120229553D01*
X114440531Y-120176500D01*
X114440530Y-120176498D01*
X114440530Y-120176496D01*
X114438513Y-120168628D01*
X114438746Y-120168568D01*
X114434544Y-120153445D01*
X114424812Y-120093175D01*
X114424042Y-120077499D01*
X114423802Y-120077516D01*
X114423240Y-120069408D01*
X114420492Y-120055861D01*
X114412621Y-120017055D01*
X114411738Y-120012204D01*
X114403227Y-119959485D01*
X114403223Y-119959476D01*
X114400894Y-119951696D01*
X114401125Y-119951626D01*
X114396321Y-119936680D01*
X114384189Y-119876866D01*
X114382790Y-119861217D01*
X114382550Y-119861244D01*
X114381664Y-119853165D01*
X114368965Y-119801303D01*
X114367880Y-119796454D01*
X114363938Y-119777017D01*
X114357270Y-119744137D01*
X114357266Y-119744130D01*
X114354630Y-119736456D01*
X114354857Y-119736377D01*
X114349459Y-119721638D01*
X114334939Y-119662334D01*
X114332917Y-119646773D01*
X114332679Y-119646809D01*
X114331471Y-119638776D01*
X114331471Y-119638771D01*
X114316712Y-119587474D01*
X114315435Y-119582678D01*
X114302734Y-119530800D01*
X114302732Y-119530796D01*
X114299787Y-119523224D01*
X114300010Y-119523137D01*
X114294027Y-119508622D01*
X114277566Y-119451411D01*
X114277563Y-119451402D01*
X114273332Y-119436696D01*
X114272740Y-119426550D01*
X114255155Y-119373515D01*
X114239706Y-119319817D01*
X114234463Y-119311109D01*
X114210909Y-119240071D01*
X114207647Y-119224712D01*
X114207413Y-119224767D01*
X114205564Y-119216845D01*
X114186743Y-119166873D01*
X114185086Y-119162191D01*
X114168287Y-119111524D01*
X114168281Y-119111515D01*
X114164743Y-119104208D01*
X114164959Y-119104102D01*
X114157833Y-119090111D01*
X114136319Y-119032986D01*
X114132448Y-119017775D01*
X114132216Y-119017840D01*
X114130054Y-119010007D01*
X114109246Y-118960820D01*
X114107404Y-118956210D01*
X114088591Y-118906255D01*
X114084759Y-118899090D01*
X114084971Y-118898976D01*
X114077290Y-118885281D01*
X114053508Y-118829062D01*
X114049030Y-118814017D01*
X114048801Y-118814091D01*
X114046325Y-118806343D01*
X114023576Y-118758050D01*
X114021551Y-118753518D01*
X114000746Y-118704337D01*
X113996630Y-118697329D01*
X113996754Y-118697256D01*
X113989488Y-118685646D01*
X113989050Y-118684755D01*
X113956721Y-118616121D01*
X113954519Y-118606202D01*
X113928712Y-118556661D01*
X113904895Y-118506099D01*
X113898329Y-118498336D01*
X113863749Y-118431953D01*
X113858085Y-118417317D01*
X113857862Y-118417409D01*
X113854777Y-118409892D01*
X113854777Y-118409891D01*
X113828228Y-118363550D01*
X113825880Y-118359256D01*
X113801187Y-118311853D01*
X113801184Y-118311850D01*
X113801184Y-118311849D01*
X113796522Y-118305194D01*
X113796718Y-118305056D01*
X113787457Y-118292386D01*
X113757110Y-118239417D01*
X113750861Y-118225014D01*
X113750643Y-118225115D01*
X113747263Y-118217734D01*
X113747261Y-118217727D01*
X113718870Y-118172473D01*
X113716341Y-118168256D01*
X113689790Y-118121911D01*
X113689786Y-118121907D01*
X113684866Y-118115450D01*
X113685057Y-118115303D01*
X113675294Y-118103011D01*
X113642849Y-118051292D01*
X113636033Y-118037157D01*
X113635819Y-118037266D01*
X113632144Y-118030020D01*
X113601989Y-117985971D01*
X113599270Y-117981823D01*
X113570889Y-117936585D01*
X113570886Y-117936580D01*
X113570881Y-117936575D01*
X113565705Y-117930319D01*
X113565890Y-117930165D01*
X113555635Y-117918262D01*
X113521161Y-117867904D01*
X113513781Y-117854049D01*
X113513571Y-117854167D01*
X113509606Y-117847070D01*
X113509605Y-117847066D01*
X113483823Y-117812462D01*
X113477694Y-117804235D01*
X113474827Y-117800222D01*
X113444658Y-117756153D01*
X113444656Y-117756151D01*
X113444654Y-117756148D01*
X113439230Y-117750101D01*
X113439408Y-117749941D01*
X113428699Y-117738475D01*
X113392224Y-117689519D01*
X113384298Y-117675971D01*
X113384093Y-117676097D01*
X113379848Y-117669165D01*
X113346251Y-117627647D01*
X113343207Y-117623728D01*
X113311314Y-117580921D01*
X113305647Y-117575091D01*
X113305819Y-117574923D01*
X113294655Y-117563888D01*
X113256260Y-117516442D01*
X113247794Y-117503216D01*
X113247594Y-117503350D01*
X113243078Y-117496597D01*
X113207839Y-117456449D01*
X113204640Y-117452653D01*
X113199994Y-117446912D01*
X113185979Y-117429592D01*
X113171070Y-117411168D01*
X113165178Y-117405573D01*
X113165343Y-117405399D01*
X113153743Y-117394815D01*
X113130817Y-117368695D01*
X113113472Y-117348934D01*
X113113470Y-117348931D01*
X113104364Y-117338557D01*
X113099506Y-117329634D01*
X113061004Y-117289156D01*
X113024139Y-117247155D01*
X113017039Y-117242415D01*
X113008422Y-117233814D01*
X113008005Y-117233053D01*
X113006173Y-117231511D01*
X112992977Y-117217638D01*
X112964101Y-117187281D01*
X112954611Y-117174781D01*
X112954421Y-117174932D01*
X112949376Y-117168558D01*
X112949375Y-117168556D01*
X112911019Y-117131334D01*
X112907589Y-117127869D01*
X112870766Y-117089156D01*
X112864445Y-117084049D01*
X112864595Y-117083862D01*
X112852188Y-117074242D01*
X112808383Y-117031732D01*
X112798395Y-117019618D01*
X112798213Y-117019775D01*
X112792918Y-117013609D01*
X112776857Y-116999225D01*
X112753129Y-116977974D01*
X112749515Y-116974605D01*
X112711199Y-116937421D01*
X112704681Y-116932574D01*
X112704824Y-116932381D01*
X112692036Y-116923261D01*
X112646566Y-116882539D01*
X112636098Y-116870831D01*
X112635922Y-116870995D01*
X112630389Y-116865049D01*
X112598092Y-116838375D01*
X112589189Y-116831022D01*
X112585467Y-116827819D01*
X112545682Y-116792189D01*
X112545680Y-116792188D01*
X112538971Y-116787603D01*
X112539106Y-116787404D01*
X112525968Y-116778806D01*
X112478909Y-116739939D01*
X112467986Y-116728664D01*
X112467817Y-116728836D01*
X112462041Y-116723108D01*
X112419540Y-116690776D01*
X112415664Y-116687704D01*
X112374490Y-116653697D01*
X112367602Y-116649384D01*
X112367729Y-116649179D01*
X112354258Y-116641115D01*
X112305679Y-116604159D01*
X112294312Y-116593330D01*
X112294150Y-116593508D01*
X112288157Y-116588023D01*
X112288155Y-116588020D01*
X112272233Y-116576884D01*
X112244388Y-116557409D01*
X112240383Y-116554487D01*
X112218853Y-116538109D01*
X112197894Y-116522165D01*
X112197891Y-116522163D01*
X112197890Y-116522163D01*
X112190838Y-116518130D01*
X112190956Y-116517922D01*
X112177177Y-116510403D01*
X112127150Y-116475416D01*
X112115366Y-116465054D01*
X112115211Y-116465239D01*
X112108994Y-116459990D01*
X112064073Y-116431179D01*
X112059949Y-116428416D01*
X112016180Y-116397804D01*
X112008969Y-116394055D01*
X112009079Y-116393842D01*
X111995002Y-116386878D01*
X111943622Y-116353924D01*
X111931425Y-116344037D01*
X111931278Y-116344227D01*
X111924870Y-116339242D01*
X111924867Y-116339240D01*
X111924866Y-116339239D01*
X111878796Y-116312229D01*
X111874579Y-116309642D01*
X111853343Y-116296022D01*
X111829630Y-116280813D01*
X111829627Y-116280812D01*
X111829624Y-116280810D01*
X111822270Y-116277353D01*
X111822371Y-116277136D01*
X111808034Y-116270743D01*
X111767017Y-116246696D01*
X111755376Y-116239871D01*
X111742796Y-116230481D01*
X111742656Y-116230678D01*
X111736051Y-116225951D01*
X111736049Y-116225949D01*
X111736045Y-116225947D01*
X111736044Y-116225946D01*
X111688933Y-116200801D01*
X111684607Y-116198380D01*
X111638551Y-116171379D01*
X111638548Y-116171378D01*
X111631057Y-116168216D01*
X111631150Y-116167994D01*
X111616567Y-116162180D01*
X111562719Y-116133440D01*
X111549774Y-116124563D01*
X111549643Y-116124764D01*
X111542851Y-116120303D01*
X111494773Y-116097064D01*
X111490353Y-116094817D01*
X111443248Y-116069677D01*
X111435643Y-116066820D01*
X111435727Y-116066595D01*
X111420920Y-116061368D01*
X111365955Y-116034801D01*
X111352664Y-116026449D01*
X111352541Y-116026655D01*
X111345576Y-116022470D01*
X111296618Y-116001179D01*
X111292109Y-115999109D01*
X111244035Y-115975873D01*
X111236316Y-115973321D01*
X111236390Y-115973094D01*
X111221387Y-115968462D01*
X111165410Y-115944119D01*
X111151792Y-115936303D01*
X111151677Y-115936514D01*
X111144547Y-115932609D01*
X111094751Y-115913283D01*
X111090166Y-115911398D01*
X111054249Y-115895779D01*
X111041220Y-115890113D01*
X111041218Y-115890112D01*
X111041217Y-115890112D01*
X111033407Y-115887872D01*
X111033473Y-115887641D01*
X111018303Y-115883616D01*
X110961398Y-115861533D01*
X110947480Y-115854268D01*
X110947374Y-115854484D01*
X110940097Y-115850869D01*
X110940092Y-115850867D01*
X110899104Y-115836819D01*
X110889589Y-115833558D01*
X110884935Y-115831858D01*
X110847246Y-115817232D01*
X110835143Y-115812536D01*
X110835142Y-115812535D01*
X110835140Y-115812535D01*
X110827248Y-115810610D01*
X110827304Y-115810377D01*
X110811978Y-115806960D01*
X110777564Y-115795166D01*
X110754236Y-115787171D01*
X110740033Y-115780467D01*
X110739935Y-115780687D01*
X110732522Y-115777366D01*
X110732521Y-115777366D01*
X110732519Y-115777365D01*
X110732516Y-115777364D01*
X110681359Y-115762090D01*
X110676634Y-115760576D01*
X110660682Y-115755109D01*
X110626126Y-115743266D01*
X110626124Y-115743265D01*
X110626122Y-115743265D01*
X110618164Y-115741658D01*
X110618211Y-115741423D01*
X110602756Y-115738622D01*
X110544270Y-115721160D01*
X110529812Y-115715029D01*
X110529723Y-115715253D01*
X110522178Y-115712230D01*
X110470440Y-115699011D01*
X110465665Y-115697689D01*
X110414499Y-115682414D01*
X110406481Y-115681126D01*
X110406518Y-115680890D01*
X110390969Y-115678709D01*
X110331825Y-115663599D01*
X110317137Y-115658054D01*
X110317057Y-115658281D01*
X110309396Y-115655562D01*
X110257181Y-115644426D01*
X110252355Y-115643296D01*
X110200618Y-115630079D01*
X110192550Y-115629113D01*
X110192578Y-115628874D01*
X110176953Y-115627317D01*
X110117250Y-115614585D01*
X110102355Y-115609633D01*
X110102284Y-115609863D01*
X110094517Y-115607452D01*
X110041890Y-115598413D01*
X110037021Y-115597476D01*
X109984808Y-115586341D01*
X109976708Y-115585699D01*
X109976726Y-115585460D01*
X109961049Y-115584530D01*
X109900892Y-115574199D01*
X109885809Y-115569845D01*
X109885747Y-115570079D01*
X109877888Y-115567980D01*
X109824930Y-115561052D01*
X109820029Y-115560311D01*
X109767420Y-115551276D01*
X109759298Y-115550958D01*
X109759307Y-115550718D01*
X109743614Y-115550415D01*
X109683084Y-115542498D01*
X109667834Y-115538751D01*
X109667782Y-115538986D01*
X109659860Y-115537206D01*
X109606677Y-115532404D01*
X109601748Y-115531859D01*
X109548800Y-115524933D01*
X109540674Y-115524940D01*
X109540673Y-115524700D01*
X109524983Y-115525027D01*
X109464180Y-115519537D01*
X109448802Y-115516405D01*
X109448759Y-115516641D01*
X109440768Y-115515179D01*
X109387446Y-115512509D01*
X109382501Y-115512162D01*
X109329309Y-115507360D01*
X109321188Y-115507692D01*
X109321178Y-115507452D01*
X109305506Y-115508406D01*
X109244540Y-115505354D01*
X109229044Y-115502839D01*
X109229011Y-115503078D01*
X109220968Y-115501936D01*
X109220965Y-115501936D01*
X109218938Y-115501915D01*
X109167567Y-115501401D01*
X109162613Y-115501252D01*
X109109282Y-115498582D01*
X109101182Y-115499239D01*
X109101162Y-115499001D01*
X109085546Y-115500580D01*
X109024508Y-115499970D01*
X109008923Y-115498076D01*
X109008899Y-115498316D01*
X109000812Y-115497497D01*
X108947446Y-115499099D01*
X108942490Y-115499149D01*
X108895907Y-115498684D01*
X108889089Y-115498616D01*
X108889088Y-115498616D01*
X108889084Y-115498616D01*
X108881024Y-115499595D01*
X108880995Y-115499357D01*
X108865450Y-115501561D01*
X108804437Y-115503393D01*
X108788783Y-115502124D01*
X108788769Y-115502365D01*
X108780659Y-115501870D01*
X108727389Y-115505607D01*
X108722436Y-115505855D01*
X108675096Y-115507277D01*
X108669070Y-115507458D01*
X108669067Y-115507458D01*
X108661047Y-115508760D01*
X108661008Y-115508523D01*
X108645568Y-115511346D01*
X108584675Y-115515618D01*
X108568989Y-115514978D01*
X108568985Y-115515218D01*
X108560856Y-115515048D01*
X108507777Y-115520913D01*
X108502841Y-115521359D01*
X108455226Y-115524700D01*
X108449581Y-115525096D01*
X108449579Y-115525096D01*
X108441618Y-115526718D01*
X108441570Y-115526483D01*
X108426258Y-115529921D01*
X108365577Y-115536627D01*
X108349879Y-115536614D01*
X108349884Y-115536855D01*
X108341753Y-115537011D01*
X108288977Y-115544991D01*
X108284061Y-115545635D01*
X108259512Y-115548348D01*
X108230971Y-115551502D01*
X108230969Y-115551502D01*
X108230965Y-115551503D01*
X108223078Y-115553441D01*
X108223021Y-115553209D01*
X108207852Y-115557258D01*
X108147506Y-115566384D01*
X108131814Y-115566999D01*
X108131829Y-115567240D01*
X108123712Y-115567721D01*
X108071258Y-115577813D01*
X108066373Y-115578652D01*
X108013598Y-115586633D01*
X108005791Y-115588887D01*
X108005724Y-115588655D01*
X107990725Y-115593310D01*
X107969075Y-115597476D01*
X107930779Y-115604844D01*
X107915128Y-115606088D01*
X107915152Y-115606326D01*
X107907066Y-115607131D01*
X107855101Y-115619305D01*
X107850248Y-115620340D01*
X107797798Y-115630432D01*
X107790089Y-115632996D01*
X107790013Y-115632769D01*
X107775210Y-115638021D01*
X107715785Y-115651942D01*
X107700195Y-115653811D01*
X107700229Y-115654049D01*
X107692181Y-115655176D01*
X107640731Y-115669423D01*
X107635927Y-115670650D01*
X107583927Y-115682832D01*
X107576328Y-115685702D01*
X107576243Y-115685477D01*
X107561664Y-115691316D01*
X107502841Y-115707604D01*
X107487334Y-115710096D01*
X107487377Y-115710332D01*
X107479374Y-115711782D01*
X107428507Y-115728084D01*
X107423759Y-115729502D01*
X107372323Y-115743746D01*
X107364843Y-115746918D01*
X107364749Y-115746696D01*
X107350422Y-115753112D01*
X107292292Y-115771743D01*
X107276903Y-115774851D01*
X107276956Y-115775086D01*
X107269018Y-115776855D01*
X107218881Y-115795166D01*
X107214191Y-115796774D01*
X107186845Y-115805539D01*
X107116997Y-115807256D01*
X107057308Y-115770937D01*
X107033165Y-115731716D01*
X106938687Y-115484448D01*
X106938086Y-115482838D01*
X106919789Y-115432816D01*
X106749430Y-114967064D01*
X106748832Y-114965392D01*
X106567569Y-114446944D01*
X106566995Y-114445265D01*
X106566195Y-114442867D01*
X106393115Y-113924116D01*
X106392615Y-113922578D01*
X106226241Y-113399088D01*
X106225727Y-113397429D01*
X106164761Y-113195640D01*
X106066833Y-112871512D01*
X106066383Y-112869983D01*
X105915016Y-112341787D01*
X105914582Y-112340234D01*
X105770808Y-111809988D01*
X105770402Y-111808447D01*
X105634222Y-111276163D01*
X105633798Y-111274453D01*
X105505294Y-110740457D01*
X105504925Y-110738875D01*
X105384013Y-110202811D01*
X105383685Y-110201307D01*
X105270510Y-109663818D01*
X105270161Y-109662099D01*
X105267044Y-109646167D01*
X105164663Y-109122909D01*
X105164361Y-109121302D01*
X105066601Y-108580712D01*
X105066302Y-108578986D01*
X105053611Y-108502581D01*
X104976314Y-108037210D01*
X104976037Y-108035459D01*
X104943172Y-107818416D01*
X104893805Y-107492396D01*
X104893554Y-107490658D01*
X104883822Y-107419527D01*
X104819086Y-106946353D01*
X104818861Y-106944606D01*
X104752207Y-106399431D01*
X104752031Y-106397903D01*
X104696222Y-105879982D01*
X115799500Y-105879982D01*
X115799500Y-107680017D01*
X115810000Y-107782796D01*
X115821804Y-107818417D01*
X115865186Y-107949335D01*
X115957288Y-108098656D01*
X116081344Y-108222712D01*
X116230665Y-108314814D01*
X116397202Y-108369999D01*
X116488103Y-108379285D01*
X116552794Y-108405681D01*
X116592945Y-108462861D01*
X116599500Y-108502643D01*
X116599500Y-110478846D01*
X116630261Y-110633489D01*
X116630264Y-110633501D01*
X116690602Y-110779172D01*
X116690609Y-110779185D01*
X116778210Y-110910288D01*
X116778213Y-110910292D01*
X121214707Y-115346786D01*
X121214711Y-115346789D01*
X121345814Y-115434390D01*
X121345818Y-115434392D01*
X121345821Y-115434394D01*
X121491503Y-115494738D01*
X121643343Y-115524940D01*
X121646153Y-115525499D01*
X121646157Y-115525500D01*
X121646158Y-115525500D01*
X125709106Y-115525500D01*
X125776145Y-115545185D01*
X125809422Y-115576612D01*
X125829896Y-115604792D01*
X125829898Y-115604794D01*
X125980213Y-115755109D01*
X126152179Y-115880048D01*
X126152181Y-115880049D01*
X126152184Y-115880051D01*
X126341588Y-115976557D01*
X126543757Y-116042246D01*
X126753713Y-116075500D01*
X126753714Y-116075500D01*
X126966286Y-116075500D01*
X126966287Y-116075500D01*
X127176243Y-116042246D01*
X127378412Y-115976557D01*
X127567816Y-115880051D01*
X127593304Y-115861533D01*
X127739786Y-115755109D01*
X127739788Y-115755106D01*
X127739792Y-115755104D01*
X127890104Y-115604792D01*
X127890106Y-115604788D01*
X127890109Y-115604786D01*
X127966361Y-115499832D01*
X128015051Y-115432816D01*
X128019793Y-115423508D01*
X128067763Y-115372711D01*
X128135583Y-115355911D01*
X128201719Y-115378445D01*
X128240763Y-115423500D01*
X128245373Y-115432547D01*
X128284728Y-115486716D01*
X128917036Y-114854407D01*
X128934075Y-114917993D01*
X128999901Y-115032007D01*
X129092993Y-115125099D01*
X129207007Y-115190925D01*
X129270590Y-115207962D01*
X128638282Y-115840269D01*
X128638282Y-115840270D01*
X128692449Y-115879624D01*
X128881782Y-115976095D01*
X129083870Y-116041757D01*
X129293754Y-116075000D01*
X129506246Y-116075000D01*
X129716127Y-116041757D01*
X129716130Y-116041757D01*
X129918217Y-115976095D01*
X130107554Y-115879622D01*
X130161716Y-115840270D01*
X130161717Y-115840270D01*
X129529408Y-115207962D01*
X129592993Y-115190925D01*
X129707007Y-115125099D01*
X129800099Y-115032007D01*
X129865925Y-114917993D01*
X129882962Y-114854409D01*
X130515270Y-115486717D01*
X130515270Y-115486716D01*
X130554622Y-115432555D01*
X130559232Y-115423507D01*
X130607205Y-115372709D01*
X130675025Y-115355912D01*
X130741161Y-115378447D01*
X130780204Y-115423504D01*
X130784949Y-115432817D01*
X130909890Y-115604786D01*
X131060213Y-115755109D01*
X131232179Y-115880048D01*
X131232181Y-115880049D01*
X131232184Y-115880051D01*
X131421588Y-115976557D01*
X131623757Y-116042246D01*
X131833713Y-116075500D01*
X131833714Y-116075500D01*
X132046286Y-116075500D01*
X132046287Y-116075500D01*
X132256243Y-116042246D01*
X132458412Y-115976557D01*
X132647816Y-115880051D01*
X132673304Y-115861533D01*
X132819786Y-115755109D01*
X132819788Y-115755106D01*
X132819792Y-115755104D01*
X132970104Y-115604792D01*
X132970106Y-115604788D01*
X132970109Y-115604786D01*
X133093904Y-115434395D01*
X133095051Y-115432816D01*
X133099514Y-115424054D01*
X133147488Y-115373259D01*
X133215308Y-115356463D01*
X133281444Y-115378999D01*
X133320486Y-115424056D01*
X133324951Y-115432820D01*
X133449890Y-115604786D01*
X133600213Y-115755109D01*
X133772179Y-115880048D01*
X133772181Y-115880049D01*
X133772184Y-115880051D01*
X133961588Y-115976557D01*
X134163757Y-116042246D01*
X134373713Y-116075500D01*
X134373714Y-116075500D01*
X134586286Y-116075500D01*
X134586287Y-116075500D01*
X134796243Y-116042246D01*
X134998412Y-115976557D01*
X135187816Y-115880051D01*
X135213304Y-115861533D01*
X135359786Y-115755109D01*
X135359788Y-115755106D01*
X135359792Y-115755104D01*
X135510104Y-115604792D01*
X135510106Y-115604788D01*
X135510109Y-115604786D01*
X135633904Y-115434395D01*
X135635051Y-115432816D01*
X135639514Y-115424054D01*
X135687488Y-115373259D01*
X135755308Y-115356463D01*
X135821444Y-115378999D01*
X135860486Y-115424056D01*
X135864951Y-115432820D01*
X135989890Y-115604786D01*
X136140213Y-115755109D01*
X136312179Y-115880048D01*
X136312181Y-115880049D01*
X136312184Y-115880051D01*
X136501588Y-115976557D01*
X136703757Y-116042246D01*
X136913713Y-116075500D01*
X136913714Y-116075500D01*
X137126286Y-116075500D01*
X137126287Y-116075500D01*
X137336243Y-116042246D01*
X137538412Y-115976557D01*
X137727816Y-115880051D01*
X137753304Y-115861533D01*
X137899786Y-115755109D01*
X137899788Y-115755106D01*
X137899792Y-115755104D01*
X138050104Y-115604792D01*
X138050106Y-115604788D01*
X138050109Y-115604786D01*
X138173904Y-115434395D01*
X138175051Y-115432816D01*
X138179514Y-115424054D01*
X138227488Y-115373259D01*
X138295308Y-115356463D01*
X138361444Y-115378999D01*
X138400486Y-115424056D01*
X138404951Y-115432820D01*
X138529890Y-115604786D01*
X138680213Y-115755109D01*
X138852179Y-115880048D01*
X138852181Y-115880049D01*
X138852184Y-115880051D01*
X139041588Y-115976557D01*
X139243757Y-116042246D01*
X139453713Y-116075500D01*
X139453714Y-116075500D01*
X139666286Y-116075500D01*
X139666287Y-116075500D01*
X139876243Y-116042246D01*
X140078412Y-115976557D01*
X140267816Y-115880051D01*
X140293304Y-115861533D01*
X140439786Y-115755109D01*
X140439788Y-115755106D01*
X140439792Y-115755104D01*
X140590104Y-115604792D01*
X140590106Y-115604788D01*
X140590109Y-115604786D01*
X140713904Y-115434395D01*
X140715051Y-115432816D01*
X140719514Y-115424054D01*
X140767488Y-115373259D01*
X140835308Y-115356463D01*
X140901444Y-115378999D01*
X140940486Y-115424056D01*
X140944951Y-115432820D01*
X141069890Y-115604786D01*
X141220213Y-115755109D01*
X141392179Y-115880048D01*
X141392181Y-115880049D01*
X141392184Y-115880051D01*
X141581588Y-115976557D01*
X141783757Y-116042246D01*
X141993713Y-116075500D01*
X141993714Y-116075500D01*
X142206286Y-116075500D01*
X142206287Y-116075500D01*
X142416243Y-116042246D01*
X142618412Y-115976557D01*
X142807816Y-115880051D01*
X142833304Y-115861533D01*
X142979786Y-115755109D01*
X142979788Y-115755106D01*
X142979792Y-115755104D01*
X143130104Y-115604792D01*
X143130106Y-115604788D01*
X143130109Y-115604786D01*
X143253904Y-115434395D01*
X143255051Y-115432816D01*
X143351557Y-115243412D01*
X143417246Y-115041243D01*
X143450500Y-114831287D01*
X143450500Y-114618713D01*
X143417246Y-114408757D01*
X143417245Y-114408753D01*
X143417245Y-114408752D01*
X143368569Y-114258944D01*
X143362500Y-114220626D01*
X143362500Y-112760473D01*
X143362499Y-112760458D01*
X143359587Y-112723453D01*
X143359586Y-112723447D01*
X143313565Y-112565045D01*
X143313564Y-112565042D01*
X143313564Y-112565041D01*
X143229592Y-112423053D01*
X143229590Y-112423051D01*
X143229587Y-112423047D01*
X143112952Y-112306412D01*
X143112943Y-112306405D01*
X142999701Y-112239434D01*
X142970959Y-112222436D01*
X142970958Y-112222435D01*
X142970957Y-112222435D01*
X142970954Y-112222434D01*
X142812552Y-112176413D01*
X142812546Y-112176412D01*
X142775541Y-112173500D01*
X142775534Y-112173500D01*
X141424466Y-112173500D01*
X141424458Y-112173500D01*
X141387453Y-112176412D01*
X141387447Y-112176413D01*
X141229045Y-112222434D01*
X141229042Y-112222435D01*
X141087056Y-112306405D01*
X141087047Y-112306412D01*
X140970412Y-112423047D01*
X140970408Y-112423053D01*
X140945251Y-112465592D01*
X140936732Y-112479996D01*
X140885662Y-112527679D01*
X140816921Y-112540182D01*
X140752331Y-112513536D01*
X140723268Y-112479996D01*
X140689592Y-112423053D01*
X140689589Y-112423050D01*
X140689587Y-112423047D01*
X140572952Y-112306412D01*
X140572943Y-112306405D01*
X140459701Y-112239434D01*
X140430959Y-112222436D01*
X140430958Y-112222435D01*
X140430957Y-112222435D01*
X140430954Y-112222434D01*
X140272552Y-112176413D01*
X140272546Y-112176412D01*
X140235541Y-112173500D01*
X140235534Y-112173500D01*
X138884466Y-112173500D01*
X138884458Y-112173500D01*
X138847453Y-112176412D01*
X138847447Y-112176413D01*
X138689045Y-112222434D01*
X138689042Y-112222435D01*
X138547056Y-112306405D01*
X138547047Y-112306412D01*
X138430412Y-112423047D01*
X138430408Y-112423053D01*
X138405251Y-112465592D01*
X138396732Y-112479996D01*
X138345662Y-112527679D01*
X138276921Y-112540182D01*
X138212331Y-112513536D01*
X138183268Y-112479996D01*
X138149592Y-112423053D01*
X138149589Y-112423050D01*
X138149587Y-112423047D01*
X138032952Y-112306412D01*
X138032943Y-112306405D01*
X137919701Y-112239434D01*
X137890959Y-112222436D01*
X137890958Y-112222435D01*
X137890957Y-112222435D01*
X137890954Y-112222434D01*
X137732552Y-112176413D01*
X137732546Y-112176412D01*
X137695541Y-112173500D01*
X137695534Y-112173500D01*
X136344466Y-112173500D01*
X136344458Y-112173500D01*
X136307453Y-112176412D01*
X136307447Y-112176413D01*
X136149045Y-112222434D01*
X136149042Y-112222435D01*
X136007056Y-112306405D01*
X136007047Y-112306412D01*
X135890412Y-112423047D01*
X135890408Y-112423053D01*
X135865251Y-112465592D01*
X135856732Y-112479996D01*
X135805662Y-112527679D01*
X135736921Y-112540182D01*
X135672331Y-112513536D01*
X135643268Y-112479996D01*
X135609592Y-112423053D01*
X135609589Y-112423050D01*
X135609587Y-112423047D01*
X135492952Y-112306412D01*
X135492943Y-112306405D01*
X135379701Y-112239434D01*
X135350959Y-112222436D01*
X135350958Y-112222435D01*
X135350957Y-112222435D01*
X135350954Y-112222434D01*
X135192552Y-112176413D01*
X135192546Y-112176412D01*
X135155541Y-112173500D01*
X135155534Y-112173500D01*
X133804466Y-112173500D01*
X133804458Y-112173500D01*
X133767453Y-112176412D01*
X133767447Y-112176413D01*
X133609045Y-112222434D01*
X133609042Y-112222435D01*
X133467056Y-112306405D01*
X133467047Y-112306412D01*
X133350412Y-112423047D01*
X133350408Y-112423053D01*
X133325251Y-112465592D01*
X133316732Y-112479996D01*
X133265662Y-112527679D01*
X133196921Y-112540182D01*
X133132331Y-112513536D01*
X133103268Y-112479996D01*
X133069592Y-112423053D01*
X133069589Y-112423050D01*
X133069587Y-112423047D01*
X132952952Y-112306412D01*
X132952943Y-112306405D01*
X132839701Y-112239434D01*
X132810959Y-112222436D01*
X132810958Y-112222435D01*
X132810957Y-112222435D01*
X132810954Y-112222434D01*
X132652552Y-112176413D01*
X132652546Y-112176412D01*
X132615541Y-112173500D01*
X132615534Y-112173500D01*
X131264466Y-112173500D01*
X131264458Y-112173500D01*
X131227453Y-112176412D01*
X131227447Y-112176413D01*
X131069045Y-112222434D01*
X131069042Y-112222435D01*
X130927056Y-112306405D01*
X130927047Y-112306412D01*
X130810412Y-112423047D01*
X130810403Y-112423058D01*
X130776440Y-112480487D01*
X130725371Y-112528170D01*
X130656629Y-112540673D01*
X130592040Y-112514027D01*
X130562977Y-112480486D01*
X130529195Y-112423364D01*
X130529189Y-112423356D01*
X130412643Y-112306810D01*
X130412634Y-112306803D01*
X130270756Y-112222897D01*
X130270753Y-112222896D01*
X130112473Y-112176911D01*
X130112467Y-112176910D01*
X130075481Y-112174000D01*
X128724530Y-112174000D01*
X128724508Y-112174001D01*
X128687533Y-112176910D01*
X128529242Y-112222897D01*
X128387365Y-112306803D01*
X128387356Y-112306810D01*
X128270810Y-112423356D01*
X128270801Y-112423367D01*
X128237021Y-112480487D01*
X128185952Y-112528170D01*
X128117210Y-112540673D01*
X128052621Y-112514027D01*
X128023558Y-112480486D01*
X127989594Y-112423056D01*
X127989587Y-112423047D01*
X127936989Y-112370449D01*
X127903504Y-112309126D01*
X127908488Y-112239434D01*
X127936987Y-112195089D01*
X129295259Y-110836819D01*
X129356582Y-110803334D01*
X129382940Y-110800500D01*
X146617060Y-110800500D01*
X146684099Y-110820185D01*
X146704741Y-110836819D01*
X151489707Y-115621786D01*
X151489711Y-115621789D01*
X151620814Y-115709390D01*
X151620827Y-115709397D01*
X151748041Y-115762090D01*
X151766503Y-115769737D01*
X151921153Y-115800499D01*
X151921156Y-115800500D01*
X151921158Y-115800500D01*
X152078843Y-115800500D01*
X156617060Y-115800500D01*
X156684099Y-115820185D01*
X156704741Y-115836819D01*
X162516872Y-121648950D01*
X162550357Y-121710273D01*
X162553191Y-121736631D01*
X162553191Y-122483699D01*
X162533506Y-122550738D01*
X162480702Y-122596493D01*
X162411544Y-122606437D01*
X162389691Y-122598767D01*
X161546255Y-122905751D01*
X161551669Y-122885549D01*
X161551669Y-122753897D01*
X161517594Y-122626730D01*
X161451768Y-122512716D01*
X161375032Y-122435980D01*
X162215429Y-122130102D01*
X162215430Y-122130102D01*
X162206291Y-122112167D01*
X162081396Y-121940263D01*
X162081392Y-121940258D01*
X161931133Y-121789999D01*
X161931128Y-121789995D01*
X161759226Y-121665102D01*
X161569886Y-121568627D01*
X161367798Y-121502965D01*
X161157915Y-121469723D01*
X160945418Y-121469723D01*
X160832844Y-121487552D01*
X160832843Y-121487553D01*
X161137698Y-122325136D01*
X161117495Y-122319723D01*
X160985843Y-122319723D01*
X160858676Y-122353798D01*
X160744662Y-122419624D01*
X160667928Y-122496357D01*
X160362049Y-121655960D01*
X160362048Y-121655960D01*
X160344119Y-121665096D01*
X160292593Y-121702532D01*
X160290002Y-121703456D01*
X160288231Y-121705561D01*
X160257293Y-121715126D01*
X160226787Y-121726011D01*
X160224106Y-121725387D01*
X160221479Y-121726200D01*
X160190283Y-121717522D01*
X160158733Y-121710185D01*
X160156815Y-121708212D01*
X160154166Y-121707475D01*
X160132612Y-121683307D01*
X160110039Y-121660079D01*
X160108932Y-121656754D01*
X160107662Y-121655330D01*
X160097237Y-121621615D01*
X160073180Y-121469723D01*
X160066894Y-121430034D01*
X160066893Y-121430033D01*
X160066893Y-121430030D01*
X160001204Y-121227861D01*
X159904698Y-121038457D01*
X159904696Y-121038454D01*
X159904695Y-121038452D01*
X159779756Y-120866486D01*
X159629433Y-120716163D01*
X159457467Y-120591224D01*
X159268061Y-120494717D01*
X159268060Y-120494716D01*
X159268059Y-120494716D01*
X159065890Y-120429027D01*
X159065888Y-120429026D01*
X159065887Y-120429026D01*
X158904604Y-120403481D01*
X158855934Y-120395773D01*
X158643360Y-120395773D01*
X158594689Y-120403481D01*
X158433407Y-120429026D01*
X158231232Y-120494717D01*
X158041828Y-120591223D01*
X157990483Y-120628527D01*
X157924676Y-120652006D01*
X157856623Y-120636180D01*
X157807929Y-120586073D01*
X157795127Y-120547608D01*
X157772785Y-120406549D01*
X157764872Y-120356584D01*
X157764871Y-120356583D01*
X157764871Y-120356580D01*
X157699182Y-120154411D01*
X157602676Y-119965007D01*
X157602674Y-119965004D01*
X157602673Y-119965002D01*
X157477734Y-119793036D01*
X157327411Y-119642713D01*
X157155445Y-119517774D01*
X156966039Y-119421267D01*
X156966038Y-119421266D01*
X156966037Y-119421266D01*
X156763868Y-119355577D01*
X156763866Y-119355576D01*
X156763865Y-119355576D01*
X156602582Y-119330031D01*
X156553912Y-119322323D01*
X156341338Y-119322323D01*
X156292667Y-119330031D01*
X156131385Y-119355576D01*
X156131382Y-119355577D01*
X155939890Y-119417797D01*
X155929210Y-119421267D01*
X155739809Y-119517771D01*
X155688464Y-119555076D01*
X155622657Y-119578555D01*
X155554603Y-119562729D01*
X155505909Y-119512623D01*
X155493107Y-119474158D01*
X155462851Y-119283130D01*
X155397162Y-119080961D01*
X155300656Y-118891557D01*
X155300654Y-118891554D01*
X155300653Y-118891552D01*
X155175714Y-118719586D01*
X155025391Y-118569263D01*
X154853425Y-118444324D01*
X154664019Y-118347817D01*
X154664018Y-118347816D01*
X154664017Y-118347816D01*
X154461848Y-118282127D01*
X154461846Y-118282126D01*
X154461845Y-118282126D01*
X154300562Y-118256581D01*
X154251892Y-118248873D01*
X154039318Y-118248873D01*
X153990647Y-118256581D01*
X153829365Y-118282126D01*
X153829362Y-118282127D01*
X153652532Y-118339583D01*
X153627190Y-118347817D01*
X153437787Y-118444323D01*
X153385985Y-118481958D01*
X153320179Y-118505436D01*
X153252125Y-118489609D01*
X153203431Y-118439503D01*
X153190629Y-118401036D01*
X153175750Y-118307097D01*
X152338168Y-118611951D01*
X152343582Y-118591748D01*
X152343582Y-118460096D01*
X152309507Y-118332929D01*
X152243681Y-118218915D01*
X152166945Y-118142179D01*
X153007342Y-117836301D01*
X153007343Y-117836301D01*
X152998204Y-117818366D01*
X152873309Y-117646462D01*
X152873305Y-117646457D01*
X152723046Y-117496198D01*
X152723041Y-117496194D01*
X152551139Y-117371301D01*
X152361799Y-117274826D01*
X152159711Y-117209164D01*
X151949828Y-117175922D01*
X151737331Y-117175922D01*
X151624757Y-117193751D01*
X151624756Y-117193752D01*
X151929611Y-118031335D01*
X151909408Y-118025922D01*
X151777756Y-118025922D01*
X151650589Y-118059997D01*
X151536575Y-118125823D01*
X151459841Y-118202556D01*
X151153962Y-117362159D01*
X151153961Y-117362159D01*
X151136030Y-117371296D01*
X150964122Y-117496194D01*
X150964117Y-117496198D01*
X150813858Y-117646457D01*
X150813854Y-117646462D01*
X150688961Y-117818364D01*
X150592486Y-118007704D01*
X150526824Y-118209791D01*
X150526824Y-118209794D01*
X150493582Y-118419675D01*
X150493582Y-118632174D01*
X150511411Y-118744745D01*
X150511412Y-118744746D01*
X151348996Y-118439890D01*
X151343582Y-118460096D01*
X151343582Y-118591748D01*
X151377657Y-118718915D01*
X151443483Y-118832929D01*
X151520215Y-118909661D01*
X150679820Y-119215540D01*
X150679820Y-119215541D01*
X150688954Y-119233467D01*
X150813860Y-119405388D01*
X150964117Y-119555645D01*
X150964122Y-119555649D01*
X151136024Y-119680542D01*
X151325364Y-119777017D01*
X151527452Y-119842679D01*
X151737336Y-119875922D01*
X151949828Y-119875922D01*
X152062405Y-119858090D01*
X151757550Y-119020507D01*
X151777756Y-119025922D01*
X151909408Y-119025922D01*
X152036575Y-118991847D01*
X152150589Y-118926021D01*
X152227321Y-118849288D01*
X152533200Y-119689683D01*
X152551128Y-119680549D01*
X152551142Y-119680540D01*
X152602656Y-119643113D01*
X152668462Y-119619632D01*
X152736516Y-119635457D01*
X152785211Y-119685562D01*
X152798015Y-119724033D01*
X152819889Y-119862144D01*
X152810934Y-119931437D01*
X152785097Y-119969222D01*
X149491139Y-123263181D01*
X149429816Y-123296666D01*
X149403458Y-123299500D01*
X140376004Y-123299500D01*
X140240677Y-123326418D01*
X140240667Y-123326421D01*
X140113192Y-123379222D01*
X139998454Y-123455887D01*
X134849849Y-128604492D01*
X134788526Y-128637977D01*
X134742771Y-128639284D01*
X134586287Y-128614500D01*
X134373713Y-128614500D01*
X134325042Y-128622208D01*
X134163760Y-128647753D01*
X133961585Y-128713444D01*
X133772179Y-128809951D01*
X133600213Y-128934890D01*
X133449890Y-129085213D01*
X133324949Y-129257182D01*
X133320484Y-129265946D01*
X133272509Y-129316742D01*
X133204688Y-129333536D01*
X133138553Y-129310998D01*
X133099516Y-129265946D01*
X133095050Y-129257182D01*
X132970109Y-129085213D01*
X132819786Y-128934890D01*
X132647820Y-128809951D01*
X132458414Y-128713444D01*
X132458413Y-128713443D01*
X132458412Y-128713443D01*
X132256243Y-128647754D01*
X132256241Y-128647753D01*
X132256240Y-128647753D01*
X132094957Y-128622208D01*
X132046287Y-128614500D01*
X131833713Y-128614500D01*
X131785042Y-128622208D01*
X131623760Y-128647753D01*
X131421585Y-128713444D01*
X131232179Y-128809951D01*
X131060213Y-128934890D01*
X130909890Y-129085213D01*
X130784949Y-129257182D01*
X130780484Y-129265946D01*
X130732509Y-129316742D01*
X130664688Y-129333536D01*
X130598553Y-129310998D01*
X130559516Y-129265946D01*
X130555050Y-129257182D01*
X130430109Y-129085213D01*
X130279786Y-128934890D01*
X130107820Y-128809951D01*
X129918414Y-128713444D01*
X129918413Y-128713443D01*
X129918412Y-128713443D01*
X129716243Y-128647754D01*
X129716241Y-128647753D01*
X129716240Y-128647753D01*
X129554957Y-128622208D01*
X129506287Y-128614500D01*
X129293713Y-128614500D01*
X129245042Y-128622208D01*
X129083760Y-128647753D01*
X128881585Y-128713444D01*
X128692179Y-128809951D01*
X128520213Y-128934890D01*
X128369890Y-129085213D01*
X128244949Y-129257182D01*
X128240484Y-129265946D01*
X128192509Y-129316742D01*
X128124688Y-129333536D01*
X128058553Y-129310998D01*
X128019516Y-129265946D01*
X128015050Y-129257182D01*
X127890109Y-129085213D01*
X127739786Y-128934890D01*
X127567820Y-128809951D01*
X127378414Y-128713444D01*
X127378413Y-128713443D01*
X127378412Y-128713443D01*
X127176243Y-128647754D01*
X127176241Y-128647753D01*
X127176240Y-128647753D01*
X127014957Y-128622208D01*
X126966287Y-128614500D01*
X126753713Y-128614500D01*
X126705042Y-128622208D01*
X126543760Y-128647753D01*
X126341585Y-128713444D01*
X126152179Y-128809951D01*
X125980213Y-128934890D01*
X125829890Y-129085213D01*
X125704951Y-129257179D01*
X125608444Y-129446585D01*
X125542753Y-129648760D01*
X125509500Y-129858713D01*
X125509500Y-130071286D01*
X125534248Y-130227542D01*
X125542754Y-130281243D01*
X125590000Y-130426650D01*
X125591431Y-130431054D01*
X125597500Y-130469372D01*
X125597500Y-131929541D01*
X125600412Y-131966546D01*
X125600413Y-131966552D01*
X125646434Y-132124954D01*
X125646435Y-132124957D01*
X125730405Y-132266943D01*
X125730412Y-132266952D01*
X125847047Y-132383587D01*
X125847051Y-132383590D01*
X125847053Y-132383592D01*
X125989041Y-132467564D01*
X126030816Y-132479701D01*
X126147447Y-132513586D01*
X126147450Y-132513586D01*
X126147452Y-132513587D01*
X126184466Y-132516500D01*
X126184474Y-132516500D01*
X127535526Y-132516500D01*
X127535534Y-132516500D01*
X127572548Y-132513587D01*
X127572550Y-132513586D01*
X127572552Y-132513586D01*
X127652027Y-132490496D01*
X127730959Y-132467564D01*
X127872947Y-132383592D01*
X127989592Y-132266947D01*
X128023268Y-132210003D01*
X128074337Y-132162321D01*
X128143079Y-132149817D01*
X128207668Y-132176462D01*
X128236732Y-132210004D01*
X128270406Y-132266944D01*
X128270412Y-132266952D01*
X128387047Y-132383587D01*
X128387051Y-132383590D01*
X128387053Y-132383592D01*
X128529041Y-132467564D01*
X128570816Y-132479701D01*
X128687447Y-132513586D01*
X128687450Y-132513586D01*
X128687452Y-132513587D01*
X128724466Y-132516500D01*
X128724474Y-132516500D01*
X130075526Y-132516500D01*
X130075534Y-132516500D01*
X130112548Y-132513587D01*
X130112550Y-132513586D01*
X130112552Y-132513586D01*
X130192027Y-132490496D01*
X130270959Y-132467564D01*
X130412947Y-132383592D01*
X130529592Y-132266947D01*
X130563268Y-132210003D01*
X130614337Y-132162321D01*
X130683079Y-132149817D01*
X130747668Y-132176462D01*
X130776732Y-132210004D01*
X130810406Y-132266944D01*
X130810412Y-132266952D01*
X130927047Y-132383587D01*
X130927051Y-132383590D01*
X130927053Y-132383592D01*
X131069041Y-132467564D01*
X131110816Y-132479701D01*
X131227447Y-132513586D01*
X131227450Y-132513586D01*
X131227452Y-132513587D01*
X131264466Y-132516500D01*
X131264474Y-132516500D01*
X132615526Y-132516500D01*
X132615534Y-132516500D01*
X132652548Y-132513587D01*
X132652550Y-132513586D01*
X132652552Y-132513586D01*
X132732027Y-132490496D01*
X132810959Y-132467564D01*
X132952947Y-132383592D01*
X133069592Y-132266947D01*
X133103268Y-132210003D01*
X133154337Y-132162321D01*
X133223079Y-132149817D01*
X133287668Y-132176462D01*
X133316732Y-132210004D01*
X133350406Y-132266944D01*
X133350412Y-132266952D01*
X133467047Y-132383587D01*
X133467051Y-132383590D01*
X133467053Y-132383592D01*
X133609041Y-132467564D01*
X133650816Y-132479701D01*
X133767447Y-132513586D01*
X133767450Y-132513586D01*
X133767452Y-132513587D01*
X133804466Y-132516500D01*
X133804474Y-132516500D01*
X135155526Y-132516500D01*
X135155534Y-132516500D01*
X135192548Y-132513587D01*
X135192550Y-132513586D01*
X135192552Y-132513586D01*
X135272027Y-132490496D01*
X135350959Y-132467564D01*
X135492947Y-132383592D01*
X135609592Y-132266947D01*
X135643268Y-132210003D01*
X135694337Y-132162321D01*
X135763079Y-132149817D01*
X135827668Y-132176462D01*
X135856732Y-132210004D01*
X135890406Y-132266944D01*
X135890412Y-132266952D01*
X136007047Y-132383587D01*
X136007051Y-132383590D01*
X136007053Y-132383592D01*
X136149041Y-132467564D01*
X136190816Y-132479701D01*
X136307447Y-132513586D01*
X136307450Y-132513586D01*
X136307452Y-132513587D01*
X136344466Y-132516500D01*
X136344474Y-132516500D01*
X137695526Y-132516500D01*
X137695534Y-132516500D01*
X137732548Y-132513587D01*
X137732550Y-132513586D01*
X137732552Y-132513586D01*
X137812027Y-132490496D01*
X137890959Y-132467564D01*
X138032947Y-132383592D01*
X138149592Y-132266947D01*
X138183268Y-132210003D01*
X138234337Y-132162321D01*
X138303079Y-132149817D01*
X138367668Y-132176462D01*
X138396732Y-132210004D01*
X138430406Y-132266944D01*
X138430412Y-132266952D01*
X138547047Y-132383587D01*
X138547051Y-132383590D01*
X138547053Y-132383592D01*
X138689041Y-132467564D01*
X138730816Y-132479701D01*
X138847447Y-132513586D01*
X138847450Y-132513586D01*
X138847452Y-132513587D01*
X138884466Y-132516500D01*
X138884474Y-132516500D01*
X140235526Y-132516500D01*
X140235534Y-132516500D01*
X140272548Y-132513587D01*
X140272550Y-132513586D01*
X140272552Y-132513586D01*
X140352027Y-132490496D01*
X140430959Y-132467564D01*
X140572947Y-132383592D01*
X140689592Y-132266947D01*
X140723268Y-132210003D01*
X140774337Y-132162321D01*
X140843079Y-132149817D01*
X140907668Y-132176462D01*
X140936732Y-132210004D01*
X140970406Y-132266944D01*
X140970412Y-132266952D01*
X141087047Y-132383587D01*
X141087051Y-132383590D01*
X141087053Y-132383592D01*
X141229041Y-132467564D01*
X141270816Y-132479701D01*
X141387447Y-132513586D01*
X141387450Y-132513586D01*
X141387452Y-132513587D01*
X141424466Y-132516500D01*
X141424474Y-132516500D01*
X142775526Y-132516500D01*
X142775534Y-132516500D01*
X142812548Y-132513587D01*
X142812550Y-132513586D01*
X142812552Y-132513586D01*
X142892027Y-132490496D01*
X142970959Y-132467564D01*
X143112947Y-132383592D01*
X143229592Y-132266947D01*
X143313564Y-132124959D01*
X143359587Y-131966548D01*
X143362500Y-131929534D01*
X143362500Y-130469372D01*
X143368569Y-130431054D01*
X143370000Y-130426650D01*
X143417246Y-130281243D01*
X143450500Y-130071287D01*
X143450500Y-129858713D01*
X143417246Y-129648757D01*
X143351557Y-129446588D01*
X143255051Y-129257184D01*
X143255049Y-129257181D01*
X143255048Y-129257179D01*
X143130109Y-129085213D01*
X142979786Y-128934890D01*
X142807820Y-128809951D01*
X142618414Y-128713444D01*
X142618413Y-128713443D01*
X142618412Y-128713443D01*
X142416243Y-128647754D01*
X142416241Y-128647753D01*
X142416240Y-128647753D01*
X142254957Y-128622208D01*
X142206287Y-128614500D01*
X141993713Y-128614500D01*
X141945042Y-128622208D01*
X141783760Y-128647753D01*
X141581585Y-128713444D01*
X141392179Y-128809951D01*
X141220213Y-128934890D01*
X141069890Y-129085213D01*
X140944949Y-129257182D01*
X140940484Y-129265946D01*
X140892509Y-129316742D01*
X140824688Y-129333536D01*
X140758553Y-129310998D01*
X140719516Y-129265946D01*
X140715050Y-129257182D01*
X140590109Y-129085213D01*
X140439786Y-128934890D01*
X140267820Y-128809951D01*
X140078414Y-128713444D01*
X140078413Y-128713443D01*
X140078412Y-128713443D01*
X139876243Y-128647754D01*
X139876241Y-128647753D01*
X139876240Y-128647753D01*
X139714957Y-128622208D01*
X139666287Y-128614500D01*
X139660518Y-128614500D01*
X139593479Y-128594815D01*
X139547724Y-128542011D01*
X139537780Y-128472853D01*
X139566805Y-128409297D01*
X139572837Y-128402819D01*
X140320495Y-127655162D01*
X141238838Y-126736819D01*
X141300161Y-126703334D01*
X141326519Y-126700500D01*
X154564916Y-126700500D01*
X154655960Y-126682389D01*
X154700248Y-126673580D01*
X154763989Y-126647177D01*
X154827727Y-126620777D01*
X154827728Y-126620776D01*
X154827731Y-126620775D01*
X154942463Y-126544114D01*
X158379796Y-123106778D01*
X158441117Y-123073295D01*
X158486873Y-123071988D01*
X158553926Y-123082608D01*
X158643360Y-123096773D01*
X158643361Y-123096773D01*
X158855933Y-123096773D01*
X158855934Y-123096773D01*
X159065890Y-123063519D01*
X159268059Y-122997830D01*
X159457463Y-122901324D01*
X159509263Y-122863689D01*
X159575067Y-122840210D01*
X159643121Y-122856035D01*
X159691816Y-122906141D01*
X159704620Y-122944610D01*
X159719498Y-123038546D01*
X159719499Y-123038547D01*
X160557083Y-122733691D01*
X160551669Y-122753897D01*
X160551669Y-122885549D01*
X160585744Y-123012716D01*
X160651570Y-123126730D01*
X160728302Y-123203462D01*
X159887907Y-123509341D01*
X159887907Y-123509342D01*
X159897041Y-123527268D01*
X160021947Y-123699189D01*
X160172204Y-123849446D01*
X160172209Y-123849450D01*
X160344111Y-123974343D01*
X160533451Y-124070818D01*
X160735539Y-124136480D01*
X160945423Y-124169723D01*
X161157915Y-124169723D01*
X161270492Y-124151891D01*
X160965637Y-123314308D01*
X160985843Y-123319723D01*
X161117495Y-123319723D01*
X161244662Y-123285648D01*
X161358676Y-123219822D01*
X161435408Y-123143089D01*
X161741287Y-123983484D01*
X161759215Y-123974350D01*
X161759220Y-123974346D01*
X161810742Y-123936914D01*
X161876548Y-123913434D01*
X161944602Y-123929259D01*
X161993297Y-123979365D01*
X162006101Y-124017834D01*
X162034920Y-124199793D01*
X162036445Y-124209416D01*
X162089383Y-124372343D01*
X162102135Y-124411587D01*
X162198642Y-124600993D01*
X162323581Y-124772959D01*
X162473904Y-124923282D01*
X162645870Y-125048221D01*
X162645872Y-125048222D01*
X162645875Y-125048224D01*
X162835279Y-125144730D01*
X163037448Y-125210419D01*
X163247404Y-125243673D01*
X163247405Y-125243673D01*
X163459977Y-125243673D01*
X163459978Y-125243673D01*
X163669934Y-125210419D01*
X163872103Y-125144730D01*
X164061507Y-125048224D01*
X164113599Y-125010377D01*
X164233477Y-124923282D01*
X164233479Y-124923279D01*
X164233483Y-124923277D01*
X164383795Y-124772965D01*
X164383797Y-124772961D01*
X164383800Y-124772959D01*
X164508739Y-124600993D01*
X164508738Y-124600993D01*
X164508742Y-124600989D01*
X164605248Y-124411585D01*
X164670937Y-124209416D01*
X164704191Y-123999460D01*
X164704191Y-123786886D01*
X164670937Y-123576930D01*
X164605248Y-123374761D01*
X164508742Y-123185357D01*
X164508740Y-123185354D01*
X164508739Y-123185352D01*
X164383800Y-123013386D01*
X164233485Y-122863071D01*
X164233483Y-122863069D01*
X164205304Y-122842595D01*
X164162640Y-122787267D01*
X164154191Y-122742279D01*
X164154191Y-121274846D01*
X164154190Y-121274844D01*
X164144844Y-121227858D01*
X164123428Y-121120194D01*
X164110421Y-121088791D01*
X164063088Y-120974518D01*
X164063081Y-120974505D01*
X163975481Y-120843403D01*
X163921631Y-120789553D01*
X163863980Y-120731902D01*
X160695966Y-117563888D01*
X157510292Y-114378213D01*
X157510288Y-114378210D01*
X157379185Y-114290609D01*
X157379172Y-114290602D01*
X157233501Y-114230264D01*
X157233489Y-114230261D01*
X157078845Y-114199500D01*
X157078842Y-114199500D01*
X152382940Y-114199500D01*
X152315901Y-114179815D01*
X152295259Y-114163181D01*
X150424814Y-112292736D01*
X149191219Y-111059140D01*
X147510292Y-109378213D01*
X147510288Y-109378210D01*
X147379185Y-109290609D01*
X147379172Y-109290602D01*
X147233501Y-109230264D01*
X147233489Y-109230261D01*
X147078845Y-109199500D01*
X147078842Y-109199500D01*
X129078842Y-109199500D01*
X128921158Y-109199500D01*
X128921155Y-109199500D01*
X128766510Y-109230261D01*
X128766498Y-109230264D01*
X128620827Y-109290602D01*
X128620814Y-109290609D01*
X128489711Y-109378210D01*
X128489707Y-109378213D01*
X126861030Y-111006892D01*
X126349711Y-111518211D01*
X126311275Y-111556647D01*
X126238209Y-111629712D01*
X126150609Y-111760814D01*
X126150602Y-111760827D01*
X126090264Y-111906498D01*
X126090261Y-111906510D01*
X126059500Y-112061153D01*
X126059500Y-112110492D01*
X126039815Y-112177531D01*
X125994677Y-112216642D01*
X125995755Y-112218465D01*
X125847056Y-112306405D01*
X125847047Y-112306412D01*
X125730412Y-112423047D01*
X125730405Y-112423056D01*
X125646435Y-112565042D01*
X125646434Y-112565045D01*
X125600413Y-112723447D01*
X125600412Y-112723453D01*
X125597500Y-112760458D01*
X125597500Y-113800500D01*
X125577815Y-113867539D01*
X125525011Y-113913294D01*
X125473500Y-113924500D01*
X122107940Y-113924500D01*
X122040901Y-113904815D01*
X122020259Y-113888181D01*
X118236819Y-110104741D01*
X118203334Y-110043418D01*
X118200500Y-110017060D01*
X118200500Y-108502643D01*
X118220185Y-108435604D01*
X118272989Y-108389849D01*
X118311895Y-108379285D01*
X118402798Y-108369999D01*
X118569335Y-108314814D01*
X118718656Y-108222712D01*
X118842712Y-108098656D01*
X118934814Y-107949335D01*
X118989999Y-107782798D01*
X119000500Y-107680010D01*
X119000500Y-106047484D01*
X128497418Y-106047484D01*
X128497419Y-106047489D01*
X128497560Y-106048104D01*
X128500668Y-106073671D01*
X128500678Y-106074293D01*
X128500678Y-106074298D01*
X128500679Y-106074301D01*
X128513084Y-106117667D01*
X128514202Y-106121573D01*
X128515856Y-106128000D01*
X128526833Y-106175940D01*
X128526835Y-106175947D01*
X128527123Y-106176490D01*
X128536748Y-106200395D01*
X128536921Y-106200999D01*
X128536921Y-106201001D01*
X128562230Y-106243183D01*
X128565489Y-106248961D01*
X128588490Y-106292407D01*
X128588491Y-106292408D01*
X128588494Y-106292413D01*
X128588921Y-106292873D01*
X128604402Y-106313468D01*
X128604725Y-106314007D01*
X128640086Y-106348198D01*
X128644718Y-106352923D01*
X128678198Y-106388954D01*
X128678717Y-106389279D01*
X128699016Y-106405178D01*
X128699465Y-106405612D01*
X128742496Y-106429499D01*
X128748160Y-106432845D01*
X128789832Y-106458989D01*
X128790424Y-106459171D01*
X128814135Y-106469269D01*
X128814686Y-106469575D01*
X128814689Y-106469575D01*
X128814690Y-106469576D01*
X128862382Y-106481498D01*
X128868767Y-106483276D01*
X133207971Y-107818416D01*
X135294613Y-108460460D01*
X135316822Y-108469738D01*
X135318860Y-108470833D01*
X135321225Y-108472103D01*
X135364876Y-108482373D01*
X135372922Y-108484555D01*
X135395509Y-108491505D01*
X135415780Y-108497743D01*
X135415783Y-108497743D01*
X135415788Y-108497745D01*
X135417324Y-108497801D01*
X135420789Y-108497929D01*
X135444639Y-108501142D01*
X135446021Y-108501467D01*
X135449506Y-108502287D01*
X135449507Y-108502286D01*
X135449508Y-108502287D01*
X135470240Y-108501650D01*
X135494330Y-108500910D01*
X135502660Y-108500934D01*
X135540649Y-108502330D01*
X135547479Y-108502581D01*
X135547479Y-108502580D01*
X135547484Y-108502581D01*
X135552351Y-108501466D01*
X135576228Y-108498394D01*
X135581228Y-108498241D01*
X135624192Y-108485301D01*
X135632211Y-108483179D01*
X135675943Y-108473166D01*
X135680357Y-108470828D01*
X135702622Y-108461683D01*
X135707414Y-108460241D01*
X135745547Y-108436633D01*
X135752774Y-108432489D01*
X135792413Y-108411506D01*
X135796073Y-108408104D01*
X135815215Y-108393506D01*
X135819467Y-108390875D01*
X135850210Y-108358182D01*
X135856082Y-108352344D01*
X135888954Y-108321802D01*
X135891607Y-108317571D01*
X135906321Y-108298515D01*
X135909747Y-108294873D01*
X135930980Y-108255337D01*
X135935165Y-108248141D01*
X135946205Y-108230544D01*
X135958989Y-108210168D01*
X135960456Y-108205397D01*
X135969742Y-108183169D01*
X135972103Y-108178775D01*
X135982371Y-108135129D01*
X135984551Y-108127086D01*
X135997745Y-108084212D01*
X135997929Y-108079210D01*
X136001141Y-108055361D01*
X136005412Y-108037212D01*
X137148588Y-103178711D01*
X142949500Y-103178711D01*
X142949500Y-103421288D01*
X142981161Y-103661785D01*
X143043947Y-103896104D01*
X143081962Y-103987879D01*
X143136776Y-104120212D01*
X143258064Y-104330289D01*
X143258066Y-104330292D01*
X143258067Y-104330293D01*
X143405733Y-104522736D01*
X143405739Y-104522743D01*
X143577256Y-104694260D01*
X143577262Y-104694265D01*
X143769711Y-104841936D01*
X143979788Y-104963224D01*
X144203900Y-105056054D01*
X144438211Y-105118838D01*
X144618586Y-105142584D01*
X144678711Y-105150500D01*
X144678712Y-105150500D01*
X144921289Y-105150500D01*
X144969388Y-105144167D01*
X145161789Y-105118838D01*
X145396100Y-105056054D01*
X145620212Y-104963224D01*
X145830289Y-104841936D01*
X146022738Y-104694265D01*
X146194265Y-104522738D01*
X146341936Y-104330289D01*
X146463224Y-104120212D01*
X146556054Y-103896100D01*
X146618838Y-103661789D01*
X146650500Y-103421288D01*
X146650500Y-103178712D01*
X146618838Y-102938211D01*
X146556054Y-102703900D01*
X146463224Y-102479788D01*
X146341936Y-102269711D01*
X146194265Y-102077262D01*
X146194260Y-102077256D01*
X146022743Y-101905739D01*
X146022736Y-101905733D01*
X145830293Y-101758067D01*
X145830292Y-101758066D01*
X145830289Y-101758064D01*
X145620212Y-101636776D01*
X145606350Y-101631034D01*
X145396104Y-101543947D01*
X145161785Y-101481161D01*
X144921289Y-101449500D01*
X144921288Y-101449500D01*
X144678712Y-101449500D01*
X144678711Y-101449500D01*
X144438214Y-101481161D01*
X144203895Y-101543947D01*
X143979794Y-101636773D01*
X143979785Y-101636777D01*
X143769706Y-101758067D01*
X143577263Y-101905733D01*
X143577256Y-101905739D01*
X143405739Y-102077256D01*
X143405733Y-102077263D01*
X143258067Y-102269706D01*
X143258064Y-102269710D01*
X143258064Y-102269711D01*
X143250295Y-102283167D01*
X143136777Y-102479785D01*
X143136773Y-102479794D01*
X143043947Y-102703895D01*
X142981161Y-102938214D01*
X142949500Y-103178711D01*
X137148588Y-103178711D01*
X137970293Y-99686464D01*
X137971671Y-99681920D01*
X137972863Y-99676751D01*
X137972866Y-99676747D01*
X137987446Y-99613563D01*
X138002287Y-99550493D01*
X138002286Y-99550489D01*
X138002292Y-99550468D01*
X138002370Y-99549665D01*
X138002418Y-99549174D01*
X138002499Y-99548361D01*
X138002498Y-99548341D01*
X138002499Y-99548338D01*
X138000230Y-99483553D01*
X137998241Y-99418771D01*
X137998239Y-99418767D01*
X137998239Y-99418739D01*
X137998104Y-99417931D01*
X137998013Y-99417380D01*
X137997895Y-99416660D01*
X137997888Y-99416637D01*
X137997888Y-99416634D01*
X137978952Y-99354720D01*
X137960241Y-99292585D01*
X137960239Y-99292583D01*
X137960232Y-99292557D01*
X137959950Y-99291938D01*
X137959758Y-99291514D01*
X137959365Y-99290643D01*
X137942216Y-99263205D01*
X137925069Y-99235770D01*
X137890875Y-99180533D01*
X137890871Y-99180530D01*
X137890857Y-99180506D01*
X137890449Y-99180010D01*
X137890135Y-99179628D01*
X137889526Y-99178883D01*
X137842401Y-99134947D01*
X137842011Y-99134582D01*
X137794847Y-99090228D01*
X137794251Y-99089803D01*
X137793816Y-99089492D01*
X137793141Y-99089006D01*
X137736156Y-99058714D01*
X137735687Y-99058463D01*
X137678757Y-99027886D01*
X137678262Y-99027701D01*
X137677781Y-99027519D01*
X137676788Y-99027143D01*
X137614087Y-99012673D01*
X137613656Y-99012572D01*
X137550494Y-98997712D01*
X137545364Y-98996505D01*
X137540654Y-98995727D01*
X131118029Y-97513582D01*
X131115841Y-97513055D01*
X131057469Y-97498463D01*
X131054551Y-97498129D01*
X131054138Y-97498058D01*
X131054002Y-97498045D01*
X131051746Y-97497807D01*
X131051678Y-97497799D01*
X131051274Y-97497783D01*
X131048339Y-97497501D01*
X131048338Y-97497501D01*
X131041099Y-97497754D01*
X130988129Y-97499608D01*
X130985878Y-97499666D01*
X130925702Y-97500678D01*
X130922807Y-97501109D01*
X130922390Y-97501147D01*
X130922213Y-97501177D01*
X130920089Y-97501513D01*
X130919923Y-97501537D01*
X130919527Y-97501627D01*
X130916635Y-97502111D01*
X130859016Y-97519732D01*
X130856859Y-97520370D01*
X130798995Y-97536923D01*
X130796296Y-97538095D01*
X130795916Y-97538235D01*
X130795772Y-97538301D01*
X130793777Y-97539188D01*
X130793645Y-97539245D01*
X130793284Y-97539435D01*
X130790614Y-97540651D01*
X130739576Y-97572551D01*
X130737655Y-97573727D01*
X130685988Y-97604727D01*
X130683684Y-97606558D01*
X130683363Y-97606785D01*
X130683276Y-97606857D01*
X130681546Y-97608257D01*
X130681438Y-97608342D01*
X130681132Y-97608625D01*
X130678862Y-97610496D01*
X130637785Y-97654553D01*
X130636237Y-97656183D01*
X130594381Y-97699473D01*
X130592637Y-97701827D01*
X130592371Y-97702147D01*
X130592260Y-97702303D01*
X130590986Y-97704056D01*
X130590921Y-97704142D01*
X130590709Y-97704479D01*
X130588992Y-97706886D01*
X130560706Y-97760096D01*
X130559632Y-97762073D01*
X130530424Y-97814688D01*
X130529350Y-97817410D01*
X130529172Y-97817796D01*
X130529110Y-97817962D01*
X130528343Y-97819959D01*
X130528283Y-97820109D01*
X130528161Y-97820503D01*
X130527135Y-97823248D01*
X130513600Y-97881899D01*
X130513074Y-97884089D01*
X128518498Y-105862391D01*
X128516718Y-105868780D01*
X128502254Y-105915791D01*
X128502254Y-105915794D01*
X128502231Y-105916421D01*
X128498616Y-105941920D01*
X128498463Y-105942528D01*
X128498463Y-105942533D01*
X128499289Y-105991683D01*
X128499223Y-105998313D01*
X128497418Y-106047484D01*
X119000500Y-106047484D01*
X119000500Y-105879990D01*
X118989999Y-105777202D01*
X118934814Y-105610665D01*
X118842712Y-105461344D01*
X118718656Y-105337288D01*
X118625890Y-105280070D01*
X118569337Y-105245187D01*
X118569332Y-105245185D01*
X118567863Y-105244698D01*
X118402798Y-105190001D01*
X118402796Y-105190000D01*
X118300017Y-105179500D01*
X118300010Y-105179500D01*
X116499990Y-105179500D01*
X116499982Y-105179500D01*
X116397203Y-105190000D01*
X116397202Y-105190001D01*
X116315371Y-105217117D01*
X116230667Y-105245185D01*
X116230662Y-105245187D01*
X116081342Y-105337289D01*
X115957289Y-105461342D01*
X115865187Y-105610662D01*
X115865185Y-105610667D01*
X115845672Y-105669553D01*
X115810001Y-105777202D01*
X115810001Y-105777203D01*
X115810000Y-105777203D01*
X115799500Y-105879982D01*
X104696222Y-105879982D01*
X104693162Y-105851585D01*
X104693001Y-105849985D01*
X104641964Y-105302966D01*
X104641813Y-105301209D01*
X104637394Y-105245185D01*
X104598620Y-104753657D01*
X104598497Y-104751939D01*
X104595312Y-104702552D01*
X104563141Y-104203745D01*
X104563049Y-104202132D01*
X104535542Y-103653485D01*
X104535467Y-103651754D01*
X104534563Y-103626499D01*
X104515810Y-103102597D01*
X104515766Y-103101033D01*
X104503974Y-102551836D01*
X104503951Y-102550322D01*
X104500020Y-102000838D01*
X104500020Y-101999112D01*
X104500350Y-101953036D01*
X104503951Y-101449674D01*
X104503973Y-101448164D01*
X104515766Y-100898961D01*
X104515810Y-100897405D01*
X104535468Y-100348201D01*
X104535544Y-100346471D01*
X104540773Y-100242177D01*
X104563050Y-99797858D01*
X104563141Y-99796260D01*
X104598501Y-99247998D01*
X104598624Y-99246289D01*
X104599299Y-99237739D01*
X104641814Y-98698766D01*
X104641965Y-98697021D01*
X104651185Y-98598197D01*
X104693002Y-98150000D01*
X104693160Y-98148428D01*
X104752033Y-97602080D01*
X104752205Y-97600583D01*
X104818867Y-97055341D01*
X104819088Y-97053633D01*
X104836573Y-96925833D01*
X104893558Y-96509305D01*
X104893808Y-96507583D01*
X104905964Y-96427309D01*
X104976040Y-95964514D01*
X104976315Y-95962786D01*
X105002232Y-95806750D01*
X105066310Y-95420965D01*
X105066605Y-95419264D01*
X105070232Y-95399207D01*
X105164365Y-94878670D01*
X105164658Y-94877114D01*
X105270169Y-94337855D01*
X105270515Y-94336160D01*
X105311575Y-94141158D01*
X105383691Y-93798661D01*
X105384006Y-93797215D01*
X105504932Y-93261093D01*
X105505286Y-93259573D01*
X105633809Y-92725498D01*
X105634225Y-92723823D01*
X105770411Y-92191517D01*
X105770799Y-92190044D01*
X105914592Y-91659729D01*
X105915005Y-91658248D01*
X106066394Y-91129976D01*
X106066821Y-91128523D01*
X106225748Y-90602498D01*
X106226228Y-90600952D01*
X106392628Y-90077377D01*
X106393102Y-90075922D01*
X106567012Y-89554682D01*
X106567569Y-89553054D01*
X106586766Y-89498149D01*
X106748845Y-89034566D01*
X106749430Y-89032934D01*
X106753487Y-89021842D01*
X106938123Y-88517058D01*
X106938670Y-88515594D01*
X107134831Y-88002202D01*
X107135364Y-88000836D01*
X107338801Y-87490434D01*
X107339350Y-87489084D01*
X107550129Y-86981503D01*
X107550806Y-86979908D01*
X107576197Y-86921153D01*
X114199500Y-86921153D01*
X114199500Y-94298846D01*
X114230261Y-94453489D01*
X114230264Y-94453501D01*
X114290602Y-94599172D01*
X114290609Y-94599185D01*
X114378210Y-94730288D01*
X114378213Y-94730292D01*
X115801648Y-96153726D01*
X115835133Y-96215049D01*
X115836440Y-96260805D01*
X115810069Y-96427309D01*
X115799500Y-96494038D01*
X115799500Y-96745962D01*
X115825456Y-96909838D01*
X115838910Y-96994785D01*
X115916760Y-97234383D01*
X115995413Y-97388747D01*
X116012184Y-97421662D01*
X116031132Y-97458848D01*
X116179201Y-97662649D01*
X116179205Y-97662654D01*
X116357345Y-97840794D01*
X116357350Y-97840798D01*
X116535117Y-97969952D01*
X116561155Y-97988870D01*
X116679399Y-98049118D01*
X116785616Y-98103239D01*
X116785618Y-98103239D01*
X116785621Y-98103241D01*
X117025215Y-98181090D01*
X117274038Y-98220500D01*
X117274039Y-98220500D01*
X117525961Y-98220500D01*
X117525962Y-98220500D01*
X117774785Y-98181090D01*
X118014379Y-98103241D01*
X118238845Y-97988870D01*
X118442656Y-97840793D01*
X118620793Y-97662656D01*
X118768870Y-97458845D01*
X118883241Y-97234379D01*
X118961090Y-96994785D01*
X119000500Y-96745962D01*
X119000500Y-96494038D01*
X118961090Y-96245215D01*
X118883241Y-96005621D01*
X118883239Y-96005618D01*
X118883239Y-96005616D01*
X118822180Y-95885782D01*
X118768870Y-95781155D01*
X118698000Y-95683610D01*
X118620798Y-95577350D01*
X118620794Y-95577345D01*
X118442654Y-95399205D01*
X118442649Y-95399201D01*
X118238848Y-95251132D01*
X118238847Y-95251131D01*
X118238845Y-95251130D01*
X118168747Y-95215413D01*
X118014383Y-95136760D01*
X117774785Y-95058910D01*
X117702651Y-95047485D01*
X117525962Y-95019500D01*
X117274038Y-95019500D01*
X117234130Y-95025820D01*
X117040805Y-95056440D01*
X116971511Y-95047485D01*
X116933726Y-95021648D01*
X115836819Y-93924741D01*
X115803334Y-93863418D01*
X115800500Y-93837060D01*
X115800500Y-87382940D01*
X115820185Y-87315901D01*
X115836819Y-87295259D01*
X117509661Y-85622417D01*
X117570984Y-85588932D01*
X117597342Y-85586098D01*
X119859559Y-85586098D01*
X119926598Y-85605783D01*
X119972353Y-85658587D01*
X119982297Y-85727745D01*
X119953272Y-85791301D01*
X119932444Y-85810416D01*
X119749819Y-85943102D01*
X119749817Y-85943104D01*
X119749816Y-85943104D01*
X119582814Y-86110106D01*
X119582814Y-86110107D01*
X119582812Y-86110109D01*
X119569687Y-86128174D01*
X119443986Y-86301185D01*
X119336762Y-86511622D01*
X119263775Y-86736250D01*
X119226829Y-86969521D01*
X119226829Y-87205716D01*
X119263776Y-87438988D01*
X119263776Y-87438991D01*
X119280105Y-87489245D01*
X119282100Y-87559086D01*
X119246019Y-87618919D01*
X119183318Y-87649747D01*
X119176570Y-87650724D01*
X119116856Y-87657704D01*
X119116853Y-87657704D01*
X119116852Y-87657705D01*
X118951996Y-87717707D01*
X118805420Y-87814113D01*
X118805416Y-87814116D01*
X118805416Y-87814117D01*
X118748870Y-87874052D01*
X118685021Y-87941727D01*
X118685018Y-87941731D01*
X118632063Y-88030447D01*
X118632060Y-88030453D01*
X117955864Y-89480561D01*
X117921943Y-89578149D01*
X117921943Y-89578152D01*
X117901576Y-89752408D01*
X117921942Y-89926664D01*
X117921942Y-89926666D01*
X117921943Y-89926667D01*
X117981945Y-90091523D01*
X118078351Y-90238099D01*
X118078352Y-90238100D01*
X118078355Y-90238104D01*
X118205966Y-90358500D01*
X118294686Y-90411457D01*
X119744794Y-91087653D01*
X119744796Y-91087653D01*
X119744799Y-91087655D01*
X119789910Y-91103335D01*
X119842390Y-91121577D01*
X120016646Y-91141944D01*
X120190902Y-91121578D01*
X120317757Y-91075406D01*
X120355761Y-91061574D01*
X120361100Y-91058063D01*
X120502342Y-90965165D01*
X120622738Y-90837554D01*
X120675695Y-90748834D01*
X121104446Y-89829375D01*
X121151284Y-89728931D01*
X121197456Y-89676492D01*
X121263666Y-89657336D01*
X150434560Y-89657336D01*
X150501599Y-89677021D01*
X150514125Y-89686329D01*
X150686939Y-89811884D01*
X150686941Y-89811885D01*
X150686944Y-89811887D01*
X150876348Y-89908393D01*
X151078517Y-89974082D01*
X151288473Y-90007336D01*
X151288474Y-90007336D01*
X151501046Y-90007336D01*
X151501047Y-90007336D01*
X151711003Y-89974082D01*
X151913172Y-89908393D01*
X152102576Y-89811887D01*
X152164888Y-89766615D01*
X152274546Y-89686945D01*
X152274548Y-89686942D01*
X152274552Y-89686940D01*
X152424864Y-89536628D01*
X152424866Y-89536624D01*
X152424869Y-89536622D01*
X152549808Y-89364656D01*
X152549807Y-89364656D01*
X152549811Y-89364652D01*
X152646317Y-89175248D01*
X152712006Y-88973079D01*
X152745260Y-88763123D01*
X152745260Y-88550549D01*
X152712006Y-88340593D01*
X152646317Y-88138424D01*
X152549811Y-87949020D01*
X152549809Y-87949017D01*
X152549808Y-87949015D01*
X152512507Y-87897674D01*
X152489027Y-87831867D01*
X152504853Y-87763814D01*
X152554959Y-87715119D01*
X152593424Y-87702317D01*
X152735434Y-87679824D01*
X152784448Y-87672062D01*
X152784448Y-87672061D01*
X152784453Y-87672061D01*
X152986622Y-87606372D01*
X153176026Y-87509866D01*
X153204824Y-87488943D01*
X153347996Y-87384924D01*
X153347998Y-87384921D01*
X153348002Y-87384919D01*
X153498314Y-87234607D01*
X153498316Y-87234603D01*
X153498319Y-87234601D01*
X153623258Y-87062635D01*
X153623257Y-87062635D01*
X153623261Y-87062631D01*
X153719767Y-86873227D01*
X153785456Y-86671058D01*
X153818710Y-86461102D01*
X153818710Y-86248528D01*
X153785456Y-86038572D01*
X153719767Y-85836403D01*
X153623261Y-85646999D01*
X153600507Y-85615680D01*
X153585956Y-85595652D01*
X153562476Y-85529846D01*
X153578302Y-85461792D01*
X153628407Y-85413097D01*
X153666873Y-85400295D01*
X153808883Y-85377802D01*
X153857897Y-85370040D01*
X153857897Y-85370039D01*
X153857902Y-85370039D01*
X154060071Y-85304350D01*
X154249475Y-85207844D01*
X154271448Y-85191879D01*
X154421445Y-85082902D01*
X154421447Y-85082899D01*
X154421451Y-85082897D01*
X154571763Y-84932585D01*
X154571765Y-84932581D01*
X154571768Y-84932579D01*
X154696707Y-84760613D01*
X154696706Y-84760613D01*
X154696710Y-84760609D01*
X154793216Y-84571205D01*
X154858905Y-84369036D01*
X154892159Y-84159080D01*
X154892159Y-83946506D01*
X154858905Y-83736550D01*
X154793216Y-83534381D01*
X154696710Y-83344977D01*
X154671767Y-83310646D01*
X154659075Y-83293176D01*
X154635595Y-83227370D01*
X154651420Y-83159316D01*
X154701526Y-83110621D01*
X154739995Y-83097818D01*
X154833933Y-83082939D01*
X154529078Y-82245356D01*
X154549284Y-82250771D01*
X154680936Y-82250771D01*
X154808103Y-82216696D01*
X154922117Y-82150870D01*
X154998849Y-82074137D01*
X155304728Y-82914532D01*
X155322656Y-82905398D01*
X155322668Y-82905390D01*
X155494570Y-82780498D01*
X155644833Y-82630235D01*
X155644837Y-82630230D01*
X155769730Y-82458328D01*
X155866205Y-82268988D01*
X155931867Y-82066901D01*
X155931867Y-82066898D01*
X155965110Y-81857017D01*
X155965110Y-81644525D01*
X155947278Y-81531946D01*
X155109696Y-81836800D01*
X155115110Y-81816597D01*
X155115110Y-81684945D01*
X155081035Y-81557778D01*
X155015209Y-81443764D01*
X154938473Y-81367028D01*
X155778870Y-81061150D01*
X155778871Y-81061150D01*
X155769734Y-81043220D01*
X155732301Y-80991696D01*
X155708822Y-80925889D01*
X155724648Y-80857835D01*
X155774754Y-80809141D01*
X155813218Y-80796339D01*
X156004803Y-80765995D01*
X156206972Y-80700306D01*
X156396376Y-80603800D01*
X156419488Y-80587008D01*
X156568346Y-80478858D01*
X156568348Y-80478855D01*
X156568352Y-80478853D01*
X156718664Y-80328541D01*
X156718666Y-80328537D01*
X156718669Y-80328535D01*
X156843608Y-80156569D01*
X156843607Y-80156569D01*
X156843611Y-80156565D01*
X156940117Y-79967161D01*
X157005806Y-79764992D01*
X157039060Y-79555036D01*
X157039060Y-79342462D01*
X157005806Y-79132506D01*
X156940117Y-78930337D01*
X156843611Y-78740933D01*
X156824569Y-78714724D01*
X156806306Y-78689586D01*
X156782826Y-78623780D01*
X156798652Y-78555726D01*
X156848757Y-78507031D01*
X156887221Y-78494229D01*
X157043002Y-78469556D01*
X157078249Y-78463974D01*
X157078249Y-78463973D01*
X157078254Y-78463973D01*
X157280423Y-78398284D01*
X157469827Y-78301778D01*
X157497526Y-78281654D01*
X157641797Y-78176836D01*
X157641799Y-78176833D01*
X157641803Y-78176831D01*
X157792115Y-78026519D01*
X157885240Y-77898341D01*
X157940569Y-77855676D01*
X157985558Y-77847227D01*
X158120492Y-77847227D01*
X158187531Y-77866912D01*
X158208173Y-77883546D01*
X159739731Y-79415103D01*
X159773216Y-79476426D01*
X159776050Y-79502784D01*
X159776050Y-95421018D01*
X159802968Y-95556344D01*
X159802971Y-95556354D01*
X159855772Y-95683829D01*
X159932437Y-95798567D01*
X159966042Y-95832172D01*
X159999527Y-95893495D01*
X160000834Y-95939250D01*
X159976050Y-96095734D01*
X159976050Y-96308308D01*
X160005466Y-96494038D01*
X160009304Y-96518265D01*
X160029516Y-96580472D01*
X160074994Y-96720436D01*
X160171501Y-96909842D01*
X160208803Y-96961184D01*
X160232283Y-97026991D01*
X160216457Y-97095044D01*
X160166351Y-97143739D01*
X160127883Y-97156542D01*
X159936861Y-97186797D01*
X159734686Y-97252488D01*
X159545280Y-97348995D01*
X159373314Y-97473934D01*
X159222991Y-97624257D01*
X159098052Y-97796223D01*
X159001545Y-97985629D01*
X158935854Y-98187804D01*
X158930676Y-98220500D01*
X158902601Y-98397757D01*
X158902601Y-98610331D01*
X158935855Y-98820287D01*
X158998365Y-99012673D01*
X159001545Y-99022458D01*
X159098049Y-99211859D01*
X159135354Y-99263205D01*
X159158833Y-99329012D01*
X159143007Y-99397066D01*
X159092901Y-99445760D01*
X159054433Y-99458563D01*
X158863409Y-99488818D01*
X158661234Y-99554509D01*
X158471828Y-99651016D01*
X158299862Y-99775955D01*
X158149539Y-99926278D01*
X158024600Y-100098244D01*
X157928093Y-100287650D01*
X157862402Y-100489825D01*
X157829149Y-100699778D01*
X157829149Y-100912352D01*
X157862403Y-101122308D01*
X157892297Y-101214313D01*
X157928093Y-101324479D01*
X158024600Y-101513885D01*
X158061902Y-101565227D01*
X158085382Y-101631034D01*
X158069556Y-101699087D01*
X158019450Y-101747782D01*
X157980982Y-101760585D01*
X157789959Y-101790840D01*
X157587784Y-101856531D01*
X157398378Y-101953038D01*
X157226412Y-102077977D01*
X157076089Y-102228300D01*
X156951150Y-102400266D01*
X156854643Y-102589672D01*
X156788952Y-102791847D01*
X156755699Y-103001800D01*
X156755699Y-103214373D01*
X156788952Y-103424326D01*
X156854643Y-103626501D01*
X156951150Y-103815906D01*
X156988782Y-103867703D01*
X157012262Y-103933509D01*
X156996436Y-104001563D01*
X156946330Y-104050258D01*
X156907862Y-104063061D01*
X156813923Y-104077939D01*
X156813922Y-104077940D01*
X157118777Y-104915523D01*
X157098574Y-104910110D01*
X156966922Y-104910110D01*
X156839755Y-104944185D01*
X156725741Y-105010011D01*
X156649007Y-105086744D01*
X156343128Y-104246347D01*
X156343127Y-104246347D01*
X156325196Y-104255484D01*
X156153288Y-104380382D01*
X156153283Y-104380386D01*
X156003024Y-104530645D01*
X156003020Y-104530650D01*
X155878127Y-104702552D01*
X155781652Y-104891892D01*
X155715990Y-105093979D01*
X155715990Y-105093982D01*
X155682748Y-105303863D01*
X155682748Y-105516362D01*
X155700577Y-105628933D01*
X155700578Y-105628934D01*
X156227498Y-105437151D01*
X156538162Y-105324078D01*
X156532748Y-105344284D01*
X156532748Y-105475936D01*
X156566823Y-105603103D01*
X156632649Y-105717117D01*
X156709381Y-105793849D01*
X155868986Y-106099728D01*
X155868986Y-106099729D01*
X155878122Y-106117659D01*
X155878123Y-106117661D01*
X155915555Y-106169182D01*
X155939035Y-106234988D01*
X155923209Y-106303042D01*
X155873103Y-106351737D01*
X155834635Y-106364540D01*
X155643058Y-106394883D01*
X155440883Y-106460574D01*
X155251477Y-106557081D01*
X155079511Y-106682020D01*
X154929188Y-106832343D01*
X154804249Y-107004309D01*
X154707742Y-107193715D01*
X154642051Y-107395890D01*
X154608798Y-107605843D01*
X154608798Y-107818416D01*
X154634225Y-107978960D01*
X154642052Y-108028373D01*
X154707741Y-108230542D01*
X154799641Y-108410907D01*
X154804249Y-108419949D01*
X154841881Y-108471746D01*
X154865361Y-108537552D01*
X154849535Y-108605606D01*
X154799429Y-108654301D01*
X154760961Y-108667104D01*
X154667024Y-108681982D01*
X154667023Y-108681983D01*
X154971878Y-109519566D01*
X154951675Y-109514153D01*
X154820023Y-109514153D01*
X154692856Y-109548228D01*
X154578842Y-109614054D01*
X154502108Y-109690787D01*
X154196229Y-108850390D01*
X154196228Y-108850390D01*
X154178297Y-108859527D01*
X154006389Y-108984425D01*
X154006384Y-108984429D01*
X153856125Y-109134688D01*
X153856121Y-109134693D01*
X153731228Y-109306595D01*
X153634753Y-109495935D01*
X153569091Y-109698022D01*
X153569091Y-109698025D01*
X153535849Y-109907906D01*
X153535849Y-110120405D01*
X153553678Y-110232976D01*
X153553679Y-110232977D01*
X154080599Y-110041194D01*
X154391263Y-109928121D01*
X154385849Y-109948327D01*
X154385849Y-110079979D01*
X154419924Y-110207146D01*
X154485750Y-110321160D01*
X154562482Y-110397892D01*
X153722087Y-110703771D01*
X153722087Y-110703772D01*
X153731223Y-110721702D01*
X153768986Y-110773680D01*
X153792465Y-110839487D01*
X153776639Y-110907540D01*
X153731692Y-110953353D01*
X153608811Y-111025875D01*
X153898426Y-111821587D01*
X153878223Y-111816174D01*
X153746571Y-111816174D01*
X153619404Y-111850249D01*
X153505390Y-111916075D01*
X153428656Y-111992808D01*
X153122777Y-111152411D01*
X153122776Y-111152411D01*
X153104845Y-111161548D01*
X152932937Y-111286446D01*
X152932932Y-111286450D01*
X152782673Y-111436709D01*
X152782669Y-111436714D01*
X152657776Y-111608616D01*
X152561301Y-111797956D01*
X152495639Y-112000043D01*
X152495639Y-112000046D01*
X152462397Y-112209927D01*
X152462397Y-112422426D01*
X152480226Y-112534997D01*
X152480227Y-112534998D01*
X153007147Y-112343215D01*
X153317811Y-112230142D01*
X153312397Y-112250348D01*
X153312397Y-112382000D01*
X153346472Y-112509167D01*
X153412298Y-112623181D01*
X153489030Y-112699913D01*
X152648635Y-113005792D01*
X152648635Y-113005793D01*
X152657769Y-113023719D01*
X152782675Y-113195640D01*
X152932932Y-113345897D01*
X152932937Y-113345901D01*
X153104839Y-113470794D01*
X153294179Y-113567269D01*
X153496267Y-113632931D01*
X153706151Y-113666174D01*
X153918643Y-113666174D01*
X154031220Y-113648342D01*
X153726365Y-112810759D01*
X153746571Y-112816174D01*
X153878223Y-112816174D01*
X154005390Y-112782099D01*
X154119404Y-112716273D01*
X154196136Y-112639540D01*
X154502015Y-113479935D01*
X154519943Y-113470801D01*
X154519955Y-113470793D01*
X154691857Y-113345901D01*
X154842120Y-113195638D01*
X154842124Y-113195633D01*
X154967017Y-113023731D01*
X155063492Y-112834391D01*
X155129154Y-112632304D01*
X155129154Y-112632301D01*
X155162397Y-112422420D01*
X155162397Y-112209928D01*
X155144565Y-112097349D01*
X154306983Y-112402203D01*
X154312397Y-112382000D01*
X154312397Y-112250348D01*
X154278322Y-112123181D01*
X154212496Y-112009167D01*
X154135760Y-111932431D01*
X154976157Y-111626553D01*
X154976158Y-111626553D01*
X154967021Y-111608622D01*
X154929259Y-111556647D01*
X154905779Y-111490841D01*
X154921604Y-111422787D01*
X154971710Y-111374092D01*
X155010179Y-111361288D01*
X155104672Y-111346321D01*
X154799817Y-110508738D01*
X154820023Y-110514153D01*
X154951675Y-110514153D01*
X155078842Y-110480078D01*
X155192856Y-110414252D01*
X155269588Y-110337519D01*
X155575467Y-111177914D01*
X155593395Y-111168780D01*
X155593407Y-111168772D01*
X155765309Y-111043880D01*
X155915572Y-110893617D01*
X155915576Y-110893612D01*
X156040469Y-110721710D01*
X156136944Y-110532370D01*
X156202606Y-110330283D01*
X156202606Y-110330280D01*
X156235849Y-110120399D01*
X156235849Y-109907907D01*
X156218017Y-109795328D01*
X155380435Y-110100182D01*
X155385849Y-110079979D01*
X155385849Y-109948327D01*
X155351774Y-109821160D01*
X155285948Y-109707146D01*
X155209212Y-109630410D01*
X156049609Y-109324532D01*
X156049610Y-109324532D01*
X156040471Y-109306597D01*
X156003040Y-109255077D01*
X155979560Y-109189271D01*
X155995386Y-109121217D01*
X156045492Y-109072522D01*
X156083956Y-109059720D01*
X156275541Y-109029376D01*
X156477710Y-108963687D01*
X156667114Y-108867181D01*
X156742432Y-108812460D01*
X156839084Y-108742239D01*
X156839086Y-108742236D01*
X156839090Y-108742234D01*
X156989402Y-108591922D01*
X156989404Y-108591918D01*
X156989407Y-108591916D01*
X157114346Y-108419950D01*
X157114347Y-108419949D01*
X157114349Y-108419946D01*
X157210855Y-108230542D01*
X157276544Y-108028373D01*
X157309798Y-107818417D01*
X157309798Y-107605843D01*
X157276544Y-107395887D01*
X157210855Y-107193718D01*
X157114349Y-107004314D01*
X157076714Y-106952514D01*
X157053236Y-106886708D01*
X157069062Y-106818655D01*
X157119168Y-106769960D01*
X157157636Y-106757157D01*
X157251571Y-106742278D01*
X156946716Y-105904695D01*
X156966922Y-105910110D01*
X157098574Y-105910110D01*
X157225741Y-105876035D01*
X157339755Y-105810209D01*
X157416487Y-105733476D01*
X157722366Y-106573871D01*
X157740294Y-106564737D01*
X157740306Y-106564729D01*
X157912208Y-106439837D01*
X158062471Y-106289574D01*
X158062475Y-106289569D01*
X158187368Y-106117667D01*
X158283843Y-105928327D01*
X158349505Y-105726240D01*
X158349505Y-105726237D01*
X158382748Y-105516356D01*
X158382748Y-105303864D01*
X158364916Y-105191285D01*
X157527334Y-105496139D01*
X157532748Y-105475936D01*
X157532748Y-105344284D01*
X157498673Y-105217117D01*
X157432847Y-105103103D01*
X157356111Y-105026367D01*
X158196508Y-104720489D01*
X158196509Y-104720489D01*
X158187370Y-104702554D01*
X158149939Y-104651034D01*
X158126459Y-104585228D01*
X158142285Y-104517174D01*
X158192391Y-104468479D01*
X158230855Y-104455677D01*
X158383798Y-104431453D01*
X158422437Y-104425334D01*
X158422437Y-104425333D01*
X158422442Y-104425333D01*
X158624611Y-104359644D01*
X158814015Y-104263138D01*
X158837126Y-104246347D01*
X158985985Y-104138196D01*
X158985987Y-104138193D01*
X158985991Y-104138191D01*
X159136303Y-103987879D01*
X159136305Y-103987875D01*
X159136308Y-103987873D01*
X159261247Y-103815907D01*
X159261248Y-103815906D01*
X159261250Y-103815903D01*
X159357756Y-103626499D01*
X159423445Y-103424330D01*
X159456699Y-103214374D01*
X159456699Y-103001800D01*
X159423445Y-102791844D01*
X159357756Y-102589675D01*
X159261250Y-102400271D01*
X159255516Y-102392380D01*
X159223945Y-102348924D01*
X159200465Y-102283118D01*
X159216291Y-102215064D01*
X159266396Y-102166369D01*
X159304861Y-102153567D01*
X159454881Y-102129806D01*
X159495887Y-102123312D01*
X159495887Y-102123311D01*
X159495892Y-102123311D01*
X159698061Y-102057622D01*
X159887465Y-101961116D01*
X159924619Y-101934122D01*
X160059435Y-101836174D01*
X160059437Y-101836171D01*
X160059441Y-101836169D01*
X160209753Y-101685857D01*
X160209755Y-101685853D01*
X160209758Y-101685851D01*
X160334697Y-101513885D01*
X160334696Y-101513885D01*
X160334700Y-101513881D01*
X160431206Y-101324477D01*
X160496895Y-101122308D01*
X160530149Y-100912352D01*
X160530149Y-100699778D01*
X160496895Y-100489822D01*
X160431206Y-100287653D01*
X160334700Y-100098249D01*
X160334698Y-100098246D01*
X160334697Y-100098244D01*
X160297396Y-100046903D01*
X160273916Y-99981096D01*
X160289742Y-99913043D01*
X160339848Y-99864348D01*
X160378311Y-99851546D01*
X160534092Y-99826873D01*
X160569339Y-99821291D01*
X160569339Y-99821290D01*
X160569344Y-99821290D01*
X160771513Y-99755601D01*
X160960917Y-99659095D01*
X161024055Y-99613223D01*
X161132887Y-99534153D01*
X161132889Y-99534150D01*
X161132893Y-99534148D01*
X161283205Y-99383836D01*
X161283207Y-99383832D01*
X161283210Y-99383830D01*
X161408149Y-99211864D01*
X161408148Y-99211864D01*
X161408152Y-99211860D01*
X161504658Y-99022456D01*
X161570347Y-98820287D01*
X161603601Y-98610331D01*
X161603601Y-98397757D01*
X161570347Y-98187801D01*
X161504658Y-97985632D01*
X161408152Y-97796228D01*
X161381901Y-97760096D01*
X161370847Y-97744881D01*
X161347367Y-97679075D01*
X161363193Y-97611021D01*
X161413298Y-97562326D01*
X161451764Y-97549524D01*
X161593774Y-97527031D01*
X161642788Y-97519269D01*
X161642788Y-97519268D01*
X161642793Y-97519268D01*
X161844962Y-97453579D01*
X162034366Y-97357073D01*
X162073446Y-97328680D01*
X162206336Y-97232131D01*
X162206338Y-97232128D01*
X162206342Y-97232126D01*
X162356654Y-97081814D01*
X162356656Y-97081810D01*
X162356659Y-97081808D01*
X162481598Y-96909842D01*
X162481597Y-96909842D01*
X162481601Y-96909838D01*
X162578107Y-96720434D01*
X162643796Y-96518265D01*
X162677050Y-96308309D01*
X162677050Y-96095735D01*
X162643796Y-95885779D01*
X162578107Y-95683610D01*
X162481601Y-95494206D01*
X162458808Y-95462834D01*
X162444296Y-95442859D01*
X162420816Y-95377053D01*
X162436642Y-95308999D01*
X162486747Y-95260304D01*
X162525212Y-95247502D01*
X162675232Y-95223741D01*
X162716238Y-95217247D01*
X162716238Y-95217246D01*
X162716243Y-95217246D01*
X162918412Y-95151557D01*
X163107816Y-95055051D01*
X163156748Y-95019500D01*
X163279786Y-94930109D01*
X163279788Y-94930106D01*
X163279792Y-94930104D01*
X163430104Y-94779792D01*
X163430106Y-94779788D01*
X163430109Y-94779786D01*
X163555048Y-94607820D01*
X163555047Y-94607820D01*
X163555051Y-94607816D01*
X163651557Y-94418412D01*
X163717246Y-94216243D01*
X163750500Y-94006287D01*
X163750500Y-93793713D01*
X163717246Y-93583757D01*
X163651557Y-93381588D01*
X163555051Y-93192184D01*
X163555049Y-93192181D01*
X163555048Y-93192179D01*
X163430109Y-93020213D01*
X163279786Y-92869890D01*
X163107820Y-92744951D01*
X162918414Y-92648444D01*
X162918413Y-92648443D01*
X162918412Y-92648443D01*
X162716243Y-92582754D01*
X162716241Y-92582753D01*
X162716240Y-92582753D01*
X162554957Y-92557208D01*
X162506287Y-92549500D01*
X162293713Y-92549500D01*
X162245042Y-92557208D01*
X162083760Y-92582753D01*
X161881585Y-92648444D01*
X161692179Y-92744951D01*
X161520213Y-92869890D01*
X161520209Y-92869894D01*
X161388731Y-93001373D01*
X161327408Y-93034858D01*
X161257716Y-93029874D01*
X161201783Y-92988002D01*
X161177366Y-92922538D01*
X161177050Y-92913692D01*
X161177050Y-79092270D01*
X161177049Y-79092268D01*
X161150131Y-78956943D01*
X161150130Y-78956940D01*
X161150130Y-78956938D01*
X161143824Y-78941715D01*
X161132486Y-78914343D01*
X161120939Y-78886464D01*
X161097328Y-78829461D01*
X161097321Y-78829448D01*
X161020665Y-78714725D01*
X160989186Y-78683246D01*
X160923092Y-78617152D01*
X160437442Y-78131502D01*
X158908557Y-76602615D01*
X158908556Y-76602614D01*
X158793818Y-76525949D01*
X158666343Y-76473148D01*
X158666333Y-76473145D01*
X158531007Y-76446227D01*
X158531005Y-76446227D01*
X158531004Y-76446227D01*
X157985558Y-76446227D01*
X157918519Y-76426542D01*
X157885241Y-76395112D01*
X157835503Y-76326654D01*
X157792118Y-76266938D01*
X157641797Y-76116617D01*
X157469831Y-75991678D01*
X157280425Y-75895171D01*
X157280424Y-75895170D01*
X157280423Y-75895170D01*
X157078254Y-75829481D01*
X157078252Y-75829480D01*
X157078251Y-75829480D01*
X156916968Y-75803935D01*
X156868298Y-75796227D01*
X156655724Y-75796227D01*
X156607053Y-75803935D01*
X156445771Y-75829480D01*
X156243596Y-75895171D01*
X156054190Y-75991678D01*
X155882224Y-76116617D01*
X155731901Y-76266940D01*
X155606962Y-76438906D01*
X155510455Y-76628312D01*
X155444764Y-76830487D01*
X155411511Y-77040440D01*
X155411511Y-77253013D01*
X155444764Y-77462966D01*
X155510455Y-77665141D01*
X155606962Y-77854547D01*
X155644264Y-77905889D01*
X155667744Y-77971696D01*
X155651918Y-78039749D01*
X155601812Y-78088444D01*
X155563344Y-78101247D01*
X155372320Y-78131502D01*
X155170145Y-78197193D01*
X154980739Y-78293700D01*
X154808773Y-78418639D01*
X154658450Y-78568962D01*
X154533511Y-78740928D01*
X154437004Y-78930334D01*
X154371313Y-79132509D01*
X154352788Y-79249473D01*
X154338060Y-79342462D01*
X154338060Y-79555036D01*
X154371314Y-79764992D01*
X154429632Y-79944477D01*
X154437004Y-79967163D01*
X154533508Y-80156564D01*
X154571143Y-80208364D01*
X154594622Y-80274171D01*
X154578796Y-80342224D01*
X154528690Y-80390919D01*
X154490222Y-80403722D01*
X154396285Y-80418600D01*
X154396284Y-80418601D01*
X154701139Y-81256184D01*
X154680936Y-81250771D01*
X154549284Y-81250771D01*
X154422117Y-81284846D01*
X154308103Y-81350672D01*
X154231369Y-81427405D01*
X153925490Y-80587008D01*
X153925489Y-80587008D01*
X153907558Y-80596145D01*
X153735650Y-80721043D01*
X153735645Y-80721047D01*
X153585386Y-80871306D01*
X153585382Y-80871311D01*
X153460489Y-81043213D01*
X153364014Y-81232553D01*
X153298352Y-81434640D01*
X153298352Y-81434643D01*
X153265110Y-81644524D01*
X153265110Y-81857023D01*
X153282939Y-81969594D01*
X153282940Y-81969595D01*
X153809860Y-81777812D01*
X154120524Y-81664739D01*
X154115110Y-81684945D01*
X154115110Y-81816597D01*
X154149185Y-81943764D01*
X154215011Y-82057778D01*
X154291743Y-82134510D01*
X153451348Y-82440389D01*
X153451348Y-82440390D01*
X153460484Y-82458320D01*
X153497919Y-82509846D01*
X153521398Y-82575652D01*
X153505572Y-82643706D01*
X153455466Y-82692400D01*
X153416998Y-82705203D01*
X153225419Y-82735546D01*
X153225416Y-82735547D01*
X153058493Y-82789784D01*
X153023244Y-82801237D01*
X152833838Y-82897744D01*
X152661872Y-83022683D01*
X152511549Y-83173006D01*
X152386607Y-83344977D01*
X152386606Y-83344978D01*
X152366424Y-83384588D01*
X152318450Y-83435384D01*
X152255940Y-83452293D01*
X124266483Y-83452293D01*
X124199444Y-83432608D01*
X124153689Y-83379804D01*
X124143745Y-83310646D01*
X124155998Y-83271998D01*
X124264333Y-83059377D01*
X124337296Y-82834822D01*
X124374231Y-82601627D01*
X124374231Y-82365522D01*
X124349992Y-82212486D01*
X123474231Y-82531237D01*
X123474231Y-82404584D01*
X123433342Y-82251984D01*
X123354350Y-82115167D01*
X123301278Y-82062095D01*
X124180004Y-81742266D01*
X124157145Y-81697403D01*
X124018364Y-81506388D01*
X123851417Y-81339441D01*
X123660402Y-81200660D01*
X123450033Y-81093472D01*
X123225478Y-81020509D01*
X123225479Y-81020509D01*
X122992283Y-80983575D01*
X122756173Y-80983575D01*
X122603142Y-81007812D01*
X122921894Y-81883575D01*
X122795240Y-81883575D01*
X122642640Y-81924464D01*
X122505823Y-82003456D01*
X122452752Y-82056526D01*
X122132922Y-81177800D01*
X122088061Y-81200660D01*
X122088056Y-81200662D01*
X121897050Y-81339436D01*
X121897044Y-81339441D01*
X121730097Y-81506388D01*
X121591316Y-81697403D01*
X121484128Y-81907772D01*
X121411165Y-82132327D01*
X121374231Y-82365522D01*
X121374231Y-82601633D01*
X121398468Y-82754662D01*
X122274231Y-82435910D01*
X122274231Y-82562566D01*
X122315120Y-82715166D01*
X122394112Y-82851983D01*
X122447181Y-82905052D01*
X121568456Y-83224882D01*
X121561532Y-83242460D01*
X121518646Y-83297620D01*
X121465561Y-83319486D01*
X121449409Y-83322044D01*
X121224783Y-83395030D01*
X121014346Y-83502254D01*
X120905330Y-83581459D01*
X120823270Y-83641080D01*
X120823268Y-83641082D01*
X120823267Y-83641082D01*
X120656265Y-83808084D01*
X120656260Y-83808090D01*
X120564794Y-83933983D01*
X120509464Y-83976649D01*
X120464476Y-83985098D01*
X117135556Y-83985098D01*
X116980910Y-84015859D01*
X116980900Y-84015862D01*
X116952095Y-84027794D01*
X116835225Y-84076202D01*
X116835216Y-84076207D01*
X116704114Y-84163807D01*
X116704113Y-84163809D01*
X116704112Y-84163810D01*
X114489711Y-86378211D01*
X114433960Y-86433962D01*
X114378209Y-86489712D01*
X114290609Y-86620814D01*
X114290602Y-86620827D01*
X114230264Y-86766498D01*
X114230261Y-86766510D01*
X114199500Y-86921153D01*
X107576197Y-86921153D01*
X107581730Y-86908350D01*
X107768686Y-86475724D01*
X107769272Y-86474394D01*
X107994471Y-85973101D01*
X107995149Y-85971618D01*
X108227453Y-85473701D01*
X108228140Y-85472256D01*
X108467544Y-84977716D01*
X108468216Y-84976353D01*
X108714682Y-84485273D01*
X108715377Y-84483912D01*
X108968875Y-83996356D01*
X108969565Y-83995053D01*
X109230032Y-83511141D01*
X109230792Y-83509754D01*
X109498098Y-83029728D01*
X109498879Y-83028349D01*
X109773051Y-82552159D01*
X109773840Y-82550811D01*
X110054731Y-82078708D01*
X110055624Y-82077233D01*
X110343217Y-81609239D01*
X110344062Y-81607885D01*
X110638437Y-81143878D01*
X110639305Y-81142531D01*
X110940213Y-80682901D01*
X110941095Y-80681574D01*
X111248593Y-80226236D01*
X111249513Y-80224895D01*
X111390687Y-80022165D01*
X134495668Y-80022165D01*
X134495668Y-80022170D01*
X134496707Y-80028052D01*
X134498579Y-80051657D01*
X134498480Y-80057621D01*
X134498482Y-80057633D01*
X134509131Y-80100173D01*
X134510952Y-80108711D01*
X134518589Y-80151943D01*
X134521117Y-80157360D01*
X134529031Y-80179664D01*
X134529866Y-80182997D01*
X134530484Y-80185464D01*
X134543154Y-80208271D01*
X134551794Y-80223823D01*
X134555763Y-80231602D01*
X134574317Y-80271360D01*
X134574321Y-80271366D01*
X134578156Y-80275934D01*
X134591583Y-80295445D01*
X134594480Y-80300660D01*
X134594486Y-80300668D01*
X134624999Y-80332205D01*
X134630848Y-80338692D01*
X134659059Y-80372292D01*
X134663942Y-80375709D01*
X134681965Y-80391082D01*
X134686116Y-80395373D01*
X134686119Y-80395375D01*
X134723764Y-80417945D01*
X134731082Y-80422691D01*
X134767027Y-80447844D01*
X134767033Y-80447848D01*
X134772638Y-80449886D01*
X134794027Y-80460072D01*
X134799145Y-80463141D01*
X134841349Y-80475199D01*
X134849654Y-80477891D01*
X140246519Y-82440389D01*
X140259667Y-82445170D01*
X140265465Y-82447699D01*
X140269607Y-82449178D01*
X140269610Y-82449180D01*
X140330334Y-82470867D01*
X140390883Y-82492885D01*
X140390936Y-82492904D01*
X140391984Y-82493130D01*
X140392625Y-82493270D01*
X140393662Y-82493499D01*
X140393715Y-82493503D01*
X140393717Y-82493504D01*
X140457914Y-82498729D01*
X140457966Y-82498734D01*
X140522169Y-82504332D01*
X140522172Y-82504331D01*
X140522224Y-82504336D01*
X140523245Y-82504286D01*
X140523950Y-82504253D01*
X140525008Y-82504206D01*
X140525064Y-82504195D01*
X140525067Y-82504196D01*
X140588220Y-82492666D01*
X140588676Y-82492584D01*
X140651944Y-82481410D01*
X140651946Y-82481408D01*
X140651996Y-82481400D01*
X140653118Y-82481039D01*
X140653768Y-82480832D01*
X140654666Y-82480548D01*
X140654704Y-82480529D01*
X140654708Y-82480529D01*
X140712849Y-82452986D01*
X140713082Y-82452877D01*
X140771365Y-82425680D01*
X140771364Y-82425680D01*
X140771404Y-82425662D01*
X140772243Y-82425121D01*
X140772833Y-82424743D01*
X140773765Y-82424148D01*
X140773805Y-82424113D01*
X140773807Y-82424113D01*
X140822736Y-82382549D01*
X140823096Y-82382246D01*
X140843015Y-82365522D01*
X140872292Y-82340941D01*
X140872293Y-82340938D01*
X140872323Y-82340914D01*
X140873028Y-82340137D01*
X140873489Y-82339632D01*
X140874215Y-82338838D01*
X140874242Y-82338797D01*
X140874245Y-82338796D01*
X140910725Y-82286018D01*
X140911097Y-82285485D01*
X140947849Y-82232967D01*
X140947850Y-82232963D01*
X140947880Y-82232921D01*
X140948371Y-82231966D01*
X140948671Y-82231383D01*
X140949162Y-82230437D01*
X140949177Y-82230393D01*
X140949180Y-82230390D01*
X140970845Y-82169727D01*
X140992885Y-82109118D01*
X140992885Y-82109115D01*
X140994389Y-82104980D01*
X140996138Y-82098906D01*
X143446547Y-75237758D01*
X143451811Y-75225236D01*
X143453971Y-75220793D01*
X143453979Y-75220783D01*
X143472731Y-75164524D01*
X143473574Y-75162085D01*
X143488570Y-75120097D01*
X143493504Y-75106283D01*
X143493504Y-75106277D01*
X143494544Y-75101451D01*
X143494617Y-75101181D01*
X143494676Y-75100892D01*
X143494715Y-75100612D01*
X143495651Y-75095765D01*
X143495653Y-75095761D01*
X143499205Y-75036565D01*
X143499382Y-75034067D01*
X143504196Y-74974934D01*
X143504194Y-74974925D01*
X143503950Y-74970008D01*
X143503951Y-74969716D01*
X143503934Y-74969435D01*
X143503900Y-74969160D01*
X143503548Y-74964220D01*
X143503549Y-74964214D01*
X143491652Y-74906078D01*
X143491174Y-74903612D01*
X143480528Y-74845293D01*
X143480524Y-74845286D01*
X143479010Y-74840580D01*
X143478936Y-74840300D01*
X143478856Y-74840059D01*
X143478758Y-74839818D01*
X143477129Y-74835106D01*
X143450860Y-74782568D01*
X143450618Y-74782083D01*
X143449463Y-74779711D01*
X143424113Y-74726194D01*
X143421424Y-74722029D01*
X143421281Y-74721779D01*
X143421145Y-74721573D01*
X143420975Y-74721349D01*
X143418194Y-74717236D01*
X143418193Y-74717233D01*
X143418190Y-74717230D01*
X143418187Y-74717225D01*
X143378871Y-74672889D01*
X143377141Y-74670896D01*
X143338798Y-74625757D01*
X143335116Y-74622424D01*
X143334918Y-74622223D01*
X143334731Y-74622058D01*
X143334508Y-74621885D01*
X143330757Y-74618631D01*
X143281302Y-74585979D01*
X143279162Y-74584534D01*
X143230389Y-74550820D01*
X143230387Y-74550819D01*
X143230384Y-74550817D01*
X143225941Y-74548538D01*
X143225708Y-74548402D01*
X143225528Y-74548312D01*
X143225255Y-74548197D01*
X143220786Y-74546024D01*
X143220782Y-74546021D01*
X143220776Y-74546019D01*
X143220772Y-74546017D01*
X143164531Y-74527269D01*
X143162042Y-74526410D01*
X143106276Y-74506494D01*
X143101417Y-74505448D01*
X143088322Y-74501867D01*
X137223209Y-72546829D01*
X137208352Y-72539999D01*
X137208312Y-72540093D01*
X137200850Y-72536857D01*
X137150523Y-72522477D01*
X137145380Y-72520886D01*
X137095763Y-72504347D01*
X137087783Y-72502806D01*
X137087802Y-72502706D01*
X137082192Y-72501747D01*
X137082177Y-72501849D01*
X137074135Y-72500654D01*
X137021821Y-72499791D01*
X137016440Y-72499585D01*
X136964212Y-72496450D01*
X136956110Y-72497026D01*
X136956102Y-72496926D01*
X136950439Y-72497452D01*
X136950451Y-72497552D01*
X136942376Y-72498480D01*
X136891602Y-72511189D01*
X136886357Y-72512382D01*
X136835104Y-72522871D01*
X136827429Y-72525524D01*
X136827396Y-72525429D01*
X136822053Y-72527406D01*
X136822090Y-72527500D01*
X136814532Y-72530485D01*
X136768801Y-72555891D01*
X136764040Y-72558403D01*
X136717233Y-72581807D01*
X136710503Y-72586358D01*
X136710446Y-72586275D01*
X136705801Y-72589565D01*
X136705861Y-72589645D01*
X136699331Y-72594486D01*
X136661722Y-72630874D01*
X136657773Y-72634533D01*
X136618632Y-72669241D01*
X136613307Y-72675382D01*
X136613230Y-72675315D01*
X136609598Y-72679691D01*
X136609678Y-72679754D01*
X136604624Y-72686119D01*
X136577710Y-72731007D01*
X136574843Y-72735561D01*
X136546022Y-72779214D01*
X136542467Y-72786524D01*
X136542376Y-72786480D01*
X136540000Y-72791648D01*
X136540092Y-72791688D01*
X136536859Y-72799142D01*
X136522485Y-72849454D01*
X136520893Y-72854601D01*
X136504347Y-72904238D01*
X136502806Y-72912216D01*
X136502705Y-72912196D01*
X136499952Y-72928317D01*
X134524803Y-79841335D01*
X134522110Y-79849643D01*
X134507115Y-79890882D01*
X134507114Y-79890884D01*
X134506596Y-79896832D01*
X134502296Y-79920113D01*
X134500654Y-79925857D01*
X134499931Y-79969733D01*
X134499479Y-79978458D01*
X134495668Y-80022165D01*
X111390687Y-80022165D01*
X111563523Y-79773966D01*
X111564391Y-79772738D01*
X111884835Y-79326333D01*
X111885725Y-79325112D01*
X112212550Y-78883305D01*
X112213424Y-78882141D01*
X112546520Y-78445082D01*
X112547522Y-78443787D01*
X112886737Y-78011669D01*
X112887811Y-78010323D01*
X112890985Y-78006397D01*
X113233155Y-77583129D01*
X113234164Y-77581898D01*
X113585648Y-77159617D01*
X113586682Y-77158393D01*
X113944140Y-76741228D01*
X113945197Y-76740011D01*
X114308688Y-76327889D01*
X114309715Y-76326741D01*
X114678979Y-75919960D01*
X114680108Y-75918736D01*
X115055175Y-75517263D01*
X115056396Y-75515975D01*
X115072810Y-75498902D01*
X115437027Y-75120061D01*
X115438231Y-75118827D01*
X115824558Y-74728329D01*
X115825739Y-74727153D01*
X116217646Y-74342195D01*
X116218847Y-74341031D01*
X116616267Y-73961682D01*
X116617365Y-73960648D01*
X117020296Y-73586912D01*
X117021464Y-73585844D01*
X117429516Y-73218079D01*
X117430708Y-73217019D01*
X117844181Y-72854958D01*
X117845203Y-72854076D01*
X118263802Y-72497981D01*
X118265072Y-72496917D01*
X118688573Y-72146974D01*
X118689828Y-72145952D01*
X119118372Y-71802045D01*
X119119584Y-71801087D01*
X119552966Y-71463379D01*
X119554215Y-71462419D01*
X119992394Y-71130943D01*
X119993688Y-71129978D01*
X120436514Y-70804845D01*
X120437861Y-70803870D01*
X120885298Y-70485106D01*
X120886581Y-70484205D01*
X121338673Y-70171780D01*
X121339903Y-70170942D01*
X121796414Y-69865025D01*
X121797688Y-69864186D01*
X122258568Y-69564808D01*
X122259778Y-69564034D01*
X122724779Y-69271358D01*
X122726135Y-69270517D01*
X123195350Y-68984480D01*
X123196686Y-68983679D01*
X123669843Y-68704448D01*
X123671188Y-68703668D01*
X124148378Y-68431192D01*
X124149755Y-68430418D01*
X124630739Y-68164828D01*
X124632183Y-68164045D01*
X125116796Y-67905431D01*
X125118195Y-67904696D01*
X125606568Y-67652989D01*
X125608098Y-67652216D01*
X126044849Y-67434969D01*
X126099961Y-67407555D01*
X126101415Y-67406845D01*
X126596674Y-67169275D01*
X126598195Y-67168557D01*
X127096997Y-66938011D01*
X127098529Y-66937316D01*
X127600477Y-66713978D01*
X127601928Y-66713345D01*
X128106983Y-66497231D01*
X128108555Y-66496572D01*
X128616634Y-66287713D01*
X128618050Y-66287143D01*
X129129348Y-66085467D01*
X129130717Y-66084939D01*
X129644633Y-65890683D01*
X129646121Y-65890132D01*
X130162779Y-65703246D01*
X130164295Y-65702710D01*
X130683690Y-65523196D01*
X130685130Y-65522711D01*
X131206902Y-65350697D01*
X131208477Y-65350190D01*
X131732746Y-65185633D01*
X131734200Y-65185189D01*
X132260759Y-65028155D01*
X132262306Y-65027706D01*
X132790931Y-64878261D01*
X132792518Y-64877824D01*
X133323183Y-64735973D01*
X133324897Y-64735528D01*
X133350921Y-64728969D01*
X133857651Y-64601256D01*
X133859235Y-64600869D01*
X134393901Y-64474225D01*
X134395297Y-64473905D01*
X134931829Y-64354904D01*
X134933308Y-64354587D01*
X135471424Y-64243289D01*
X135472903Y-64242994D01*
X136012419Y-64139436D01*
X136014115Y-64139123D01*
X136555046Y-64043298D01*
X136556638Y-64043028D01*
X137098870Y-63954958D01*
X137100592Y-63954691D01*
X137452115Y-63902748D01*
X137521312Y-63912421D01*
X137574294Y-63957970D01*
X137592237Y-64003213D01*
X137594417Y-64015191D01*
X137595503Y-64030844D01*
X137595741Y-64030823D01*
X137596465Y-64038915D01*
X137596466Y-64038919D01*
X137596466Y-64038921D01*
X137598897Y-64049786D01*
X137608126Y-64091036D01*
X137609107Y-64095874D01*
X137616918Y-64138774D01*
X137618675Y-64148423D01*
X137621161Y-64156158D01*
X137620932Y-64156231D01*
X137626034Y-64171078D01*
X137633301Y-64203554D01*
X137639362Y-64230646D01*
X137641074Y-64246250D01*
X137641312Y-64246220D01*
X137642359Y-64254278D01*
X137656092Y-64305872D01*
X137657272Y-64310692D01*
X137668930Y-64362799D01*
X137671726Y-64370434D01*
X137671499Y-64370516D01*
X137677191Y-64385148D01*
X137692891Y-64444135D01*
X137695227Y-64459662D01*
X137695464Y-64459622D01*
X137696833Y-64467634D01*
X137698822Y-64474060D01*
X137712623Y-64518654D01*
X137713985Y-64523387D01*
X137727722Y-64575000D01*
X137730821Y-64582517D01*
X137730598Y-64582608D01*
X137736872Y-64597003D01*
X137754919Y-64655312D01*
X137757874Y-64670734D01*
X137758109Y-64670685D01*
X137759798Y-64678637D01*
X137777611Y-64728969D01*
X137779172Y-64733675D01*
X137793374Y-64779561D01*
X137794962Y-64784689D01*
X137798357Y-64792072D01*
X137798138Y-64792172D01*
X137804983Y-64806304D01*
X137825348Y-64863843D01*
X137828918Y-64879133D01*
X137829150Y-64879074D01*
X137831155Y-64886949D01*
X137850970Y-64936533D01*
X137852718Y-64941174D01*
X137870534Y-64991510D01*
X137870535Y-64991512D01*
X137874223Y-64998752D01*
X137874008Y-64998861D01*
X137881413Y-65012708D01*
X137904061Y-65069379D01*
X137908242Y-65084523D01*
X137908472Y-65084455D01*
X137910790Y-65092244D01*
X137932581Y-65141014D01*
X137934513Y-65145580D01*
X137954320Y-65195142D01*
X137958295Y-65202229D01*
X137958084Y-65202347D01*
X137966037Y-65215886D01*
X137990938Y-65271615D01*
X137995720Y-65286575D01*
X137995948Y-65286498D01*
X137998577Y-65294193D01*
X138022291Y-65342028D01*
X138024405Y-65346515D01*
X138046184Y-65395256D01*
X138050438Y-65402176D01*
X138050233Y-65402301D01*
X138058722Y-65415516D01*
X138085834Y-65470203D01*
X138091209Y-65484956D01*
X138091433Y-65484870D01*
X138094365Y-65492444D01*
X138094368Y-65492450D01*
X138094369Y-65492452D01*
X138110886Y-65522668D01*
X138119984Y-65539313D01*
X138122273Y-65543709D01*
X138145277Y-65590109D01*
X138145989Y-65591545D01*
X138145991Y-65591548D01*
X138150518Y-65598292D01*
X138150317Y-65598426D01*
X138159324Y-65611281D01*
X138174247Y-65638580D01*
X138188604Y-65664845D01*
X138194566Y-65679373D01*
X138194787Y-65679278D01*
X138198020Y-65686731D01*
X138225493Y-65732535D01*
X138227939Y-65736806D01*
X138253560Y-65783675D01*
X138253561Y-65783676D01*
X138253563Y-65783679D01*
X138258356Y-65790238D01*
X138258162Y-65790379D01*
X138267677Y-65802865D01*
X138299074Y-65855210D01*
X138305611Y-65869486D01*
X138305828Y-65869382D01*
X138309358Y-65876702D01*
X138338639Y-65921365D01*
X138341271Y-65925560D01*
X138348367Y-65937390D01*
X138368737Y-65971352D01*
X138373791Y-65977715D01*
X138373601Y-65977865D01*
X138383609Y-65989961D01*
X138417076Y-66041011D01*
X138424177Y-66055010D01*
X138424390Y-66054898D01*
X138428211Y-66062073D01*
X138459234Y-66105497D01*
X138462038Y-66109592D01*
X138490452Y-66152934D01*
X138491326Y-66154266D01*
X138496631Y-66160424D01*
X138496449Y-66160580D01*
X138506931Y-66172265D01*
X138542417Y-66221938D01*
X138550074Y-66235644D01*
X138550282Y-66235523D01*
X138554380Y-66242527D01*
X138554384Y-66242535D01*
X138570470Y-66263247D01*
X138587145Y-66284718D01*
X138590087Y-66288666D01*
X138621137Y-66332130D01*
X138621138Y-66332131D01*
X138621139Y-66332132D01*
X138626683Y-66338069D01*
X138626507Y-66338233D01*
X138637449Y-66349490D01*
X138674891Y-66397699D01*
X138683090Y-66411089D01*
X138683293Y-66410960D01*
X138687676Y-66417807D01*
X138722079Y-66458622D01*
X138725199Y-66462477D01*
X138741570Y-66483555D01*
X138756983Y-66503401D01*
X138757963Y-66504662D01*
X138763744Y-66510377D01*
X138763575Y-66510547D01*
X138774953Y-66521350D01*
X138814296Y-66568026D01*
X138823023Y-66581074D01*
X138823220Y-66580937D01*
X138827872Y-66587600D01*
X138827874Y-66587603D01*
X138848301Y-66609958D01*
X138863891Y-66627020D01*
X138867161Y-66630746D01*
X138901578Y-66671577D01*
X138907582Y-66677054D01*
X138907419Y-66677231D01*
X138919227Y-66687577D01*
X138960401Y-66732635D01*
X138969647Y-66745330D01*
X138969839Y-66745185D01*
X138974750Y-66751653D01*
X138974754Y-66751657D01*
X139012341Y-66789622D01*
X139015719Y-66793174D01*
X139050690Y-66831444D01*
X139051757Y-66832612D01*
X139057976Y-66837845D01*
X139057820Y-66838029D01*
X139070034Y-66847895D01*
X139112979Y-66891272D01*
X139122725Y-66903586D01*
X139122911Y-66903433D01*
X139128079Y-66909702D01*
X139145305Y-66925761D01*
X139167159Y-66946135D01*
X139170663Y-66949536D01*
X139208261Y-66987511D01*
X139208263Y-66987512D01*
X139208265Y-66987514D01*
X139214686Y-66992493D01*
X139214538Y-66992683D01*
X139227134Y-67002051D01*
X139271779Y-67043673D01*
X139282007Y-67055584D01*
X139282187Y-67055424D01*
X139287605Y-67061484D01*
X139294632Y-67067528D01*
X139320578Y-67089846D01*
X139328089Y-67096306D01*
X139331782Y-67099613D01*
X139370835Y-67136023D01*
X139370838Y-67136024D01*
X139377451Y-67140741D01*
X139377310Y-67140937D01*
X139390270Y-67149792D01*
X139412066Y-67168540D01*
X139436550Y-67189600D01*
X139447251Y-67201097D01*
X139447424Y-67200930D01*
X139453076Y-67206765D01*
X139494913Y-67239933D01*
X139498739Y-67243093D01*
X139539220Y-67277913D01*
X139546026Y-67282367D01*
X139545893Y-67282568D01*
X139559194Y-67290895D01*
X139606431Y-67328345D01*
X139607030Y-67328820D01*
X139618176Y-67339872D01*
X139618342Y-67339699D01*
X139624226Y-67345305D01*
X139667358Y-67376775D01*
X139671306Y-67379778D01*
X139713149Y-67412952D01*
X139720129Y-67417130D01*
X139720004Y-67417337D01*
X139733631Y-67425127D01*
X139782945Y-67461107D01*
X139794521Y-67471705D01*
X139794680Y-67471525D01*
X139800782Y-67476890D01*
X139845153Y-67506618D01*
X139849219Y-67509462D01*
X139892338Y-67540922D01*
X139899471Y-67544813D01*
X139899355Y-67545024D01*
X139913288Y-67552267D01*
X139942119Y-67571584D01*
X139964001Y-67586244D01*
X139976004Y-67596377D01*
X139976155Y-67596191D01*
X139982464Y-67601306D01*
X140027991Y-67629236D01*
X140032167Y-67631915D01*
X140076513Y-67661626D01*
X140083800Y-67665231D01*
X140083693Y-67665446D01*
X140097903Y-67672125D01*
X140149928Y-67704042D01*
X140162324Y-67713685D01*
X140162469Y-67713493D01*
X140168972Y-67718346D01*
X140168976Y-67718350D01*
X140168979Y-67718352D01*
X140168981Y-67718353D01*
X140215565Y-67744426D01*
X140219833Y-67746928D01*
X140265363Y-67774860D01*
X140265365Y-67774860D01*
X140272787Y-67778170D01*
X140272688Y-67778390D01*
X140287144Y-67784489D01*
X140340424Y-67814310D01*
X140353182Y-67823442D01*
X140353319Y-67823244D01*
X140360019Y-67827839D01*
X140360020Y-67827839D01*
X140360022Y-67827841D01*
X140407637Y-67852041D01*
X140411965Y-67854351D01*
X140458590Y-67880448D01*
X140458592Y-67880448D01*
X140458593Y-67880449D01*
X140466143Y-67883459D01*
X140466053Y-67883682D01*
X140480752Y-67889204D01*
X140535164Y-67916860D01*
X140548289Y-67925480D01*
X140548417Y-67925277D01*
X140555297Y-67929601D01*
X140603818Y-67951866D01*
X140608276Y-67954020D01*
X140655890Y-67978221D01*
X140655892Y-67978221D01*
X140663549Y-67980924D01*
X140663468Y-67981151D01*
X140678380Y-67986082D01*
X140733858Y-68011540D01*
X140747313Y-68019625D01*
X140747433Y-68019417D01*
X140754484Y-68023464D01*
X140754485Y-68023464D01*
X140754486Y-68023465D01*
X140762303Y-68026680D01*
X140803879Y-68043780D01*
X140808429Y-68045759D01*
X140856944Y-68068022D01*
X140864714Y-68070420D01*
X140864642Y-68070650D01*
X140879737Y-68074979D01*
X140936184Y-68098195D01*
X140949959Y-68105739D01*
X140950071Y-68105526D01*
X140957272Y-68109285D01*
X141007425Y-68127602D01*
X141012044Y-68129394D01*
X141061431Y-68149707D01*
X141061436Y-68149707D01*
X141069288Y-68151791D01*
X141069226Y-68152024D01*
X141084480Y-68155745D01*
X141141810Y-68176684D01*
X141155872Y-68183670D01*
X141155975Y-68183453D01*
X141163324Y-68186921D01*
X141163325Y-68186922D01*
X141214196Y-68203226D01*
X141218844Y-68204819D01*
X141258523Y-68219311D01*
X141269020Y-68223145D01*
X141276954Y-68224913D01*
X141276901Y-68225148D01*
X141292289Y-68228254D01*
X141350422Y-68246886D01*
X141364745Y-68253301D01*
X141364839Y-68253080D01*
X141372320Y-68256252D01*
X141372323Y-68256252D01*
X141372325Y-68256254D01*
X141423802Y-68270508D01*
X141428486Y-68271906D01*
X141479381Y-68288219D01*
X141479388Y-68288219D01*
X141487384Y-68289669D01*
X141487340Y-68289906D01*
X141502840Y-68292393D01*
X141561663Y-68308681D01*
X141576241Y-68314521D01*
X141576326Y-68314297D01*
X141583923Y-68317164D01*
X141583927Y-68317167D01*
X141635936Y-68329350D01*
X141640711Y-68330570D01*
X141692181Y-68344823D01*
X141692189Y-68344823D01*
X141700239Y-68345952D01*
X141700205Y-68346190D01*
X141715785Y-68348056D01*
X141775215Y-68361978D01*
X141790015Y-68367232D01*
X141790091Y-68367004D01*
X141797796Y-68369565D01*
X141797799Y-68369567D01*
X141850269Y-68379662D01*
X141855056Y-68380683D01*
X141907070Y-68392869D01*
X141907073Y-68392868D01*
X141907074Y-68392869D01*
X141915156Y-68393674D01*
X141915132Y-68393912D01*
X141930778Y-68395154D01*
X141990729Y-68406689D01*
X142005722Y-68411344D01*
X142005790Y-68411112D01*
X142013589Y-68413362D01*
X142013596Y-68413366D01*
X142066394Y-68421350D01*
X142071227Y-68422179D01*
X142123714Y-68432279D01*
X142123721Y-68432278D01*
X142131835Y-68432760D01*
X142131820Y-68433001D01*
X142147507Y-68433614D01*
X142207848Y-68442739D01*
X142223014Y-68446790D01*
X142223072Y-68446557D01*
X142230965Y-68448495D01*
X142230971Y-68448498D01*
X142284080Y-68454365D01*
X142288915Y-68454997D01*
X142341756Y-68462989D01*
X142341759Y-68462988D01*
X142341762Y-68462989D01*
X142349884Y-68463145D01*
X142349879Y-68463386D01*
X142365582Y-68463372D01*
X142426254Y-68470077D01*
X142441572Y-68473519D01*
X142441621Y-68473283D01*
X142449581Y-68474904D01*
X142502831Y-68478638D01*
X142507751Y-68479082D01*
X142560856Y-68484951D01*
X142560863Y-68484949D01*
X142568980Y-68484781D01*
X142568985Y-68485023D01*
X142584674Y-68484380D01*
X142645568Y-68488652D01*
X142661006Y-68491476D01*
X142661045Y-68491239D01*
X142669060Y-68492539D01*
X142669070Y-68492542D01*
X142722439Y-68494143D01*
X142727373Y-68494390D01*
X142780659Y-68498129D01*
X142780666Y-68498127D01*
X142788773Y-68497634D01*
X142788787Y-68497875D01*
X142804436Y-68496605D01*
X142865448Y-68498437D01*
X142880989Y-68500642D01*
X142881018Y-68500404D01*
X142889083Y-68501383D01*
X142889085Y-68501382D01*
X142889089Y-68501384D01*
X142942522Y-68500849D01*
X142947410Y-68500898D01*
X143000813Y-68502502D01*
X143000821Y-68502500D01*
X143008899Y-68501683D01*
X143008923Y-68501923D01*
X143024505Y-68500028D01*
X143085541Y-68499418D01*
X143101157Y-68501000D01*
X143101177Y-68500760D01*
X143109281Y-68501416D01*
X143109286Y-68501417D01*
X143162622Y-68498745D01*
X143167566Y-68498597D01*
X143213775Y-68498135D01*
X143220968Y-68498064D01*
X143229011Y-68496923D01*
X143229044Y-68497161D01*
X143244541Y-68494644D01*
X143305505Y-68491592D01*
X143321182Y-68492548D01*
X143321192Y-68492308D01*
X143329308Y-68492639D01*
X143329309Y-68492640D01*
X143329309Y-68492639D01*
X143329312Y-68492640D01*
X143382503Y-68487837D01*
X143387442Y-68487490D01*
X143440762Y-68484821D01*
X143448755Y-68483359D01*
X143448798Y-68483596D01*
X143464181Y-68480461D01*
X143524981Y-68474972D01*
X143540679Y-68475299D01*
X143540680Y-68475059D01*
X143548795Y-68475064D01*
X143548803Y-68475066D01*
X143601792Y-68468133D01*
X143606632Y-68467599D01*
X143659857Y-68462794D01*
X143659860Y-68462793D01*
X143667787Y-68461013D01*
X143667839Y-68461248D01*
X143683087Y-68457501D01*
X143743607Y-68449584D01*
X143759309Y-68449283D01*
X143759300Y-68449042D01*
X143767419Y-68448724D01*
X143790962Y-68444679D01*
X143820062Y-68439681D01*
X143824908Y-68438948D01*
X143877892Y-68432019D01*
X143877897Y-68432016D01*
X143885747Y-68429920D01*
X143885809Y-68430154D01*
X143900888Y-68425800D01*
X143961048Y-68415468D01*
X143976715Y-68414542D01*
X143976696Y-68414302D01*
X143984799Y-68413657D01*
X143984807Y-68413658D01*
X144037050Y-68402515D01*
X144041878Y-68401586D01*
X144094520Y-68392547D01*
X144094526Y-68392544D01*
X144102286Y-68390136D01*
X144102357Y-68390366D01*
X144117250Y-68385413D01*
X144176950Y-68372681D01*
X144192569Y-68371128D01*
X144192541Y-68370888D01*
X144200607Y-68369920D01*
X144200615Y-68369921D01*
X144252381Y-68356695D01*
X144257128Y-68355582D01*
X144309401Y-68344436D01*
X144309409Y-68344431D01*
X144317059Y-68341718D01*
X144317139Y-68341946D01*
X144331819Y-68336401D01*
X144390970Y-68321289D01*
X144406512Y-68319111D01*
X144406474Y-68318874D01*
X144414493Y-68317585D01*
X144414501Y-68317585D01*
X144465677Y-68302304D01*
X144470411Y-68300994D01*
X144522179Y-68287769D01*
X144522185Y-68287765D01*
X144529726Y-68284745D01*
X144529815Y-68284969D01*
X144544274Y-68278837D01*
X144602752Y-68261378D01*
X144618207Y-68258578D01*
X144618160Y-68258343D01*
X144626124Y-68256734D01*
X144626126Y-68256734D01*
X144676656Y-68239415D01*
X144681348Y-68237911D01*
X144732521Y-68222634D01*
X144732528Y-68222629D01*
X144739940Y-68219311D01*
X144740038Y-68219531D01*
X144754232Y-68212829D01*
X144811985Y-68193036D01*
X144827302Y-68189625D01*
X144827245Y-68189390D01*
X144835130Y-68187465D01*
X144835143Y-68187464D01*
X144884948Y-68168135D01*
X144889552Y-68166453D01*
X144940092Y-68149133D01*
X144940095Y-68149131D01*
X144947370Y-68145517D01*
X144947477Y-68145733D01*
X144961387Y-68138469D01*
X145018309Y-68116380D01*
X145033472Y-68112359D01*
X145033406Y-68112128D01*
X145041215Y-68109887D01*
X145041220Y-68109887D01*
X145090182Y-68088593D01*
X145094737Y-68086719D01*
X145144551Y-68067389D01*
X145144556Y-68067384D01*
X145151675Y-68063486D01*
X145151791Y-68063698D01*
X145165405Y-68055881D01*
X145221390Y-68031534D01*
X145236387Y-68026909D01*
X145236312Y-68026680D01*
X145244027Y-68024129D01*
X145244027Y-68024128D01*
X145244031Y-68024128D01*
X145292165Y-68000861D01*
X145296592Y-67998830D01*
X145345578Y-67977529D01*
X145345585Y-67977523D01*
X145352543Y-67973343D01*
X145352667Y-67973549D01*
X145365953Y-67965198D01*
X145420919Y-67938630D01*
X145435730Y-67933403D01*
X145435646Y-67933177D01*
X145443243Y-67930323D01*
X145443249Y-67930322D01*
X145490393Y-67905160D01*
X145494755Y-67902942D01*
X145542849Y-67879698D01*
X145542858Y-67879689D01*
X145549645Y-67875234D01*
X145549777Y-67875436D01*
X145562714Y-67866561D01*
X145616570Y-67837816D01*
X145631148Y-67832007D01*
X145631055Y-67831785D01*
X145638549Y-67828622D01*
X145639885Y-67827839D01*
X145684633Y-67801603D01*
X145688920Y-67799204D01*
X145736049Y-67774051D01*
X145736050Y-67774049D01*
X145742660Y-67769320D01*
X145742800Y-67769516D01*
X145755381Y-67760125D01*
X145808034Y-67729255D01*
X145822372Y-67722864D01*
X145822270Y-67722646D01*
X145829623Y-67719189D01*
X145829630Y-67719187D01*
X145874573Y-67690361D01*
X145878758Y-67687791D01*
X145924866Y-67660761D01*
X145924868Y-67660758D01*
X145924871Y-67660757D01*
X145931279Y-67655772D01*
X145931427Y-67655962D01*
X145943620Y-67646075D01*
X145995000Y-67613121D01*
X146009079Y-67606157D01*
X146008968Y-67605944D01*
X146016166Y-67602200D01*
X146016179Y-67602196D01*
X146059947Y-67571583D01*
X146064075Y-67568818D01*
X146108998Y-67540007D01*
X146109001Y-67540003D01*
X146115208Y-67534763D01*
X146115363Y-67534947D01*
X146127149Y-67524583D01*
X146177181Y-67489591D01*
X146190956Y-67482080D01*
X146190836Y-67481870D01*
X146197890Y-67477836D01*
X146197894Y-67477835D01*
X146240431Y-67445475D01*
X146244359Y-67442609D01*
X146288155Y-67411980D01*
X146288158Y-67411976D01*
X146294153Y-67406489D01*
X146294316Y-67406667D01*
X146305682Y-67395837D01*
X146328827Y-67378230D01*
X146354258Y-67358883D01*
X146367727Y-67350822D01*
X146367599Y-67350618D01*
X146374484Y-67346306D01*
X146374484Y-67346305D01*
X146374490Y-67346303D01*
X146415708Y-67312258D01*
X146419505Y-67309248D01*
X146462042Y-67276891D01*
X146462045Y-67276886D01*
X146467812Y-67271168D01*
X146467982Y-67271340D01*
X146478906Y-67260061D01*
X146525970Y-67221191D01*
X146539105Y-67212596D01*
X146538970Y-67212398D01*
X146545675Y-67207816D01*
X146545678Y-67207812D01*
X146545682Y-67207811D01*
X146585480Y-67172167D01*
X146589211Y-67168959D01*
X146630387Y-67134952D01*
X146630387Y-67134950D01*
X146630390Y-67134949D01*
X146635926Y-67129001D01*
X146636102Y-67129165D01*
X146646563Y-67117462D01*
X146692041Y-67076733D01*
X146704822Y-67067622D01*
X146704678Y-67067428D01*
X146711194Y-67062581D01*
X146711198Y-67062579D01*
X146749547Y-67025363D01*
X146753099Y-67022051D01*
X146792918Y-66986391D01*
X146792919Y-66986390D01*
X146798211Y-66980227D01*
X146798393Y-66980383D01*
X146808381Y-66968267D01*
X146852187Y-66925757D01*
X146864590Y-66916143D01*
X146864439Y-66915956D01*
X146870764Y-66910845D01*
X146870763Y-66910845D01*
X146870766Y-66910844D01*
X146907593Y-66872125D01*
X146911040Y-66868643D01*
X146949375Y-66831444D01*
X146949376Y-66831440D01*
X146954420Y-66825069D01*
X146954609Y-66825219D01*
X146964107Y-66812712D01*
X147006168Y-66768493D01*
X147018186Y-66758382D01*
X147018027Y-66758200D01*
X147024134Y-66752847D01*
X147024139Y-66752845D01*
X147059395Y-66712675D01*
X147062688Y-66709072D01*
X147099506Y-66670366D01*
X147099511Y-66670356D01*
X147104292Y-66663794D01*
X147104487Y-66663936D01*
X147113469Y-66651068D01*
X147153743Y-66605183D01*
X147165338Y-66594608D01*
X147165172Y-66594433D01*
X147171063Y-66588837D01*
X147171068Y-66588834D01*
X147204661Y-66547319D01*
X147207829Y-66543560D01*
X147243075Y-66503406D01*
X147243076Y-66503402D01*
X147243078Y-66503401D01*
X147247596Y-66496647D01*
X147247795Y-66496780D01*
X147256257Y-66483559D01*
X147294656Y-66436108D01*
X147305819Y-66425077D01*
X147305646Y-66424909D01*
X147311305Y-66419085D01*
X147311314Y-66419079D01*
X147343226Y-66376244D01*
X147346241Y-66372363D01*
X147379848Y-66330835D01*
X147379850Y-66330830D01*
X147384095Y-66323899D01*
X147384301Y-66324025D01*
X147392224Y-66310479D01*
X147428696Y-66261528D01*
X147439409Y-66250058D01*
X147439230Y-66249898D01*
X147444655Y-66243850D01*
X147444655Y-66243848D01*
X147444658Y-66243847D01*
X147474837Y-66199761D01*
X147477703Y-66195751D01*
X147509605Y-66152934D01*
X147509606Y-66152932D01*
X147513569Y-66145838D01*
X147513779Y-66145955D01*
X147521161Y-66132094D01*
X147555635Y-66081736D01*
X147565885Y-66069841D01*
X147565700Y-66069688D01*
X147570882Y-66063424D01*
X147570882Y-66063423D01*
X147570886Y-66063420D01*
X147599315Y-66018102D01*
X147601949Y-66014085D01*
X147632142Y-65969982D01*
X147632144Y-65969975D01*
X147635818Y-65962734D01*
X147636033Y-65962843D01*
X147642852Y-65948702D01*
X147675292Y-65896991D01*
X147685057Y-65884697D01*
X147684865Y-65884551D01*
X147689783Y-65878095D01*
X147689790Y-65878089D01*
X147716333Y-65831756D01*
X147718880Y-65827511D01*
X147738518Y-65796209D01*
X147747261Y-65782273D01*
X147747262Y-65782269D01*
X147750645Y-65774882D01*
X147750864Y-65774982D01*
X147757114Y-65760576D01*
X147773195Y-65732507D01*
X147787455Y-65707617D01*
X147796723Y-65694938D01*
X147796525Y-65694800D01*
X147801183Y-65688150D01*
X147801187Y-65688147D01*
X147825866Y-65640769D01*
X147828246Y-65636417D01*
X147854776Y-65590111D01*
X147857863Y-65582588D01*
X147858086Y-65582679D01*
X147863751Y-65568042D01*
X147891949Y-65513909D01*
X147900702Y-65500871D01*
X147900499Y-65500741D01*
X147904889Y-65493907D01*
X147904895Y-65493901D01*
X147927674Y-65445541D01*
X147929836Y-65441179D01*
X147954519Y-65393798D01*
X147954520Y-65393795D01*
X147957301Y-65386162D01*
X147957527Y-65386244D01*
X147962601Y-65371393D01*
X147988617Y-65316162D01*
X147996838Y-65302792D01*
X147996629Y-65302670D01*
X148000743Y-65295665D01*
X148000747Y-65295661D01*
X148021558Y-65246462D01*
X148023552Y-65241997D01*
X148046327Y-65193652D01*
X148046328Y-65193648D01*
X148048801Y-65185910D01*
X148049030Y-65185983D01*
X148053507Y-65170938D01*
X148077288Y-65114722D01*
X148084968Y-65101030D01*
X148084755Y-65100916D01*
X148088583Y-65093755D01*
X148088590Y-65093747D01*
X148107421Y-65043743D01*
X148109235Y-65039204D01*
X148130053Y-64989995D01*
X148130053Y-64989990D01*
X148132215Y-64982161D01*
X148132447Y-64982225D01*
X148136319Y-64967012D01*
X148157833Y-64909888D01*
X148164960Y-64895899D01*
X148164743Y-64895794D01*
X148168285Y-64888479D01*
X148168284Y-64888479D01*
X148168287Y-64888476D01*
X148185091Y-64837790D01*
X148186740Y-64833133D01*
X148186994Y-64832458D01*
X148205565Y-64783151D01*
X148205566Y-64783145D01*
X148207413Y-64775234D01*
X148207647Y-64775288D01*
X148210908Y-64759930D01*
X148230117Y-64701994D01*
X148236679Y-64687733D01*
X148236458Y-64687637D01*
X148239705Y-64680187D01*
X148242424Y-64670734D01*
X148254476Y-64628842D01*
X148255932Y-64624140D01*
X148272740Y-64573450D01*
X148272740Y-64573442D01*
X148274270Y-64565461D01*
X148274507Y-64565506D01*
X148277148Y-64550037D01*
X148294027Y-64491372D01*
X148300011Y-64476861D01*
X148299787Y-64476774D01*
X148302730Y-64469205D01*
X148302734Y-64469200D01*
X148315439Y-64417304D01*
X148316711Y-64412528D01*
X148326643Y-64378009D01*
X148331471Y-64361229D01*
X148331471Y-64361224D01*
X148332679Y-64353192D01*
X148332917Y-64353227D01*
X148334938Y-64337666D01*
X148349459Y-64278360D01*
X148354857Y-64263626D01*
X148354629Y-64263548D01*
X148357267Y-64255867D01*
X148357270Y-64255863D01*
X148367889Y-64203498D01*
X148368955Y-64198735D01*
X148381665Y-64146830D01*
X148381665Y-64146825D01*
X148382551Y-64138748D01*
X148382790Y-64138774D01*
X148384187Y-64123141D01*
X148396321Y-64063310D01*
X148401126Y-64048370D01*
X148400895Y-64048301D01*
X148403226Y-64040517D01*
X148403225Y-64040517D01*
X148403227Y-64040515D01*
X148408886Y-64005460D01*
X148439003Y-63942416D01*
X148498425Y-63905662D01*
X148548550Y-63902430D01*
X148626959Y-63913444D01*
G37*
%TD.AperFunction*%
%TD*%
M02*
