M48
; DRILL file KiCad 10.0.6 date 2026-09-24T17:55:42
; FORMAT={-:-/ absolute / metric / decimal}
; #@! TF.CreationDate,2026-09-24T17:55:42-04:00
; #@! TF.GenerationSoftware,Kicad,Pcbnew,10.0.6
; #@! TF.FileFunction,Plated,1,2,PTH
FMAT,2
METRIC
; #@! TA.AperFunction,Plated,PTH,ViaDrill
T1C0.300
; #@! TA.AperFunction,Plated,PTH,ComponentDrill
T2C1.000
; #@! TA.AperFunction,Plated,PTH,ComponentDrill
T3C1.100
; #@! TA.AperFunction,Plated,PTH,ComponentDrill
T4C1.200
%
G90
G05
T1
X106.0Y-100.0
X106.0Y-107.0
X107.0Y-93.0
X108.0Y-113.0
X109.0Y-87.0
X113.0Y-80.0
X115.0Y-126.0
X117.0Y-75.0
X121.0Y-132.0
X122.0Y-71.0
X128.0Y-68.0
X128.0Y-136.0
X134.0Y-138.0
X135.0Y-66.0
X144.0Y-139.0
X151.0Y-66.0
X155.0Y-137.0
X161.0Y-69.0
X164.0Y-132.0
X171.0Y-77.0
X171.0Y-126.0
X177.0Y-86.0
X178.0Y-114.0
X180.0Y-96.0
X180.0Y-106.0
T2
X126.86Y-114.725
X126.86Y-129.965
X129.4Y-114.725
X129.4Y-129.965
X131.94Y-114.725
X131.94Y-129.965
X134.48Y-114.725
X134.48Y-129.965
X137.02Y-114.725
X137.02Y-129.965
X139.56Y-114.725
X139.56Y-129.965
X142.1Y-114.725
X142.1Y-129.965
X151.395Y-88.657
X151.844Y-118.526
X152.468Y-86.355
X153.542Y-84.053
X153.812Y-112.316
X154.146Y-119.599
X154.615Y-81.751
X154.886Y-110.014
X155.689Y-79.449
X155.959Y-107.712
X156.448Y-120.673
X156.762Y-77.147
X157.033Y-105.41
X158.106Y-103.108
X158.75Y-121.746
X159.18Y-100.806
X160.253Y-98.504
X161.052Y-122.82
X161.327Y-96.202
X162.4Y-93.9
X163.354Y-123.893
T3
X117.4Y-96.62
X117.4Y-106.78
T4
X119.654Y-89.39
X120.727Y-87.088
X121.801Y-84.786
X122.874Y-82.484
M30
