%TF.GenerationSoftware,KiCad,Pcbnew,10.0.6*%
%TF.CreationDate,2026-09-24T17:55:31-04:00*%
%TF.ProjectId,Speaker_Stake_v2.0.1,53706561-6b65-4725-9f53-74616b655f76,v2.0.1*%
%TF.SameCoordinates,Original*%
%TF.FileFunction,Profile,NP*%
%FSLAX46Y46*%
G04 Gerber Fmt 4.6, Leading zero omitted, Abs format (unit mm)*
G04 Created by KiCad (PCBNEW 10.0.6) date 2026-09-24 17:55:31*
%MOMM*%
%LPD*%
G01*
G04 APERTURE LIST*
%TA.AperFunction,Profile*%
%ADD10C,0.050000*%
%TD*%
G04 APERTURE END LIST*
D10*
X138015509Y-63399816D02*
X138035496Y-63598923D01*
X138063434Y-63797071D01*
X138099277Y-63993943D01*
X138142969Y-64189223D01*
X138194438Y-64382599D01*
X138253603Y-64573761D01*
X138320369Y-64762402D01*
X138394629Y-64948221D01*
X138476264Y-65130920D01*
X138565144Y-65310207D01*
X138661125Y-65485794D01*
X138764055Y-65657400D01*
X138873768Y-65824751D01*
X138990089Y-65987578D01*
X139112832Y-66145621D01*
X139241799Y-66298626D01*
X139376785Y-66446349D01*
X139517574Y-66588553D01*
X139663939Y-66725010D01*
X139815646Y-66855502D01*
X139972453Y-66979819D01*
X140134108Y-67097764D01*
X140300353Y-67209146D01*
X140470921Y-67313787D01*
X140645539Y-67411521D01*
X140823927Y-67502190D01*
X141005800Y-67585649D01*
X141190867Y-67661764D01*
X141378831Y-67730414D01*
X141569391Y-67791489D01*
X141762242Y-67844890D01*
X141957075Y-67890533D01*
X142153579Y-67928344D01*
X142351437Y-67958263D01*
X142550335Y-67980242D01*
X142749952Y-67994245D01*
X142949970Y-68000250D01*
X143150069Y-67998248D01*
X143349926Y-67988242D01*
X143549224Y-67970247D01*
X143747642Y-67944293D01*
X143944862Y-67910422D01*
X144140570Y-67868686D01*
X144334451Y-67819154D01*
X144526195Y-67761905D01*
X144715495Y-67697029D01*
X144902047Y-67624632D01*
X145085554Y-67544829D01*
X145265721Y-67457748D01*
X145442259Y-67363528D01*
X145614887Y-67262320D01*
X145783327Y-67154287D01*
X145947310Y-67039600D01*
X146106573Y-66918445D01*
X146260861Y-66791015D01*
X146409927Y-66657514D01*
X146553532Y-66518155D01*
X146691447Y-66373163D01*
X146823450Y-66222769D01*
X146949330Y-66067213D01*
X147068886Y-65906746D01*
X147181926Y-65741624D01*
X147288268Y-65572112D01*
X147387744Y-65398480D01*
X147480193Y-65221008D01*
X147565467Y-65039979D01*
X147643430Y-64855683D01*
X147713958Y-64668415D01*
X147776936Y-64478476D01*
X147832264Y-64286169D01*
X147879854Y-64091802D01*
X147919629Y-63895687D01*
X147951526Y-63698137D01*
X147975493Y-63499469D01*
X147989821Y-63320845D01*
X148148229Y-63340788D01*
X148700992Y-63418429D01*
X149252588Y-63503973D01*
X149802903Y-63597403D01*
X150351825Y-63698699D01*
X150899240Y-63807842D01*
X151445037Y-63924807D01*
X151989105Y-64049572D01*
X152531331Y-64182112D01*
X153071605Y-64322397D01*
X153609815Y-64470401D01*
X154145852Y-64626093D01*
X154679606Y-64789440D01*
X155210968Y-64960410D01*
X155739828Y-65138967D01*
X156266079Y-65325075D01*
X156789612Y-65518696D01*
X157310320Y-65719789D01*
X157828097Y-65928314D01*
X158342836Y-66144229D01*
X158854433Y-66367488D01*
X159362782Y-66598046D01*
X159867779Y-66835856D01*
X160369321Y-67080870D01*
X160867304Y-67333036D01*
X161361628Y-67592304D01*
X161852191Y-67858619D01*
X162338892Y-68131929D01*
X162821631Y-68412176D01*
X163300310Y-68699304D01*
X163774830Y-68993252D01*
X164245095Y-69293963D01*
X164711008Y-69601372D01*
X165172474Y-69915419D01*
X165629398Y-70236038D01*
X166081686Y-70563163D01*
X166529246Y-70896728D01*
X166971987Y-71236664D01*
X167409816Y-71582902D01*
X167842646Y-71935371D01*
X168270387Y-72293999D01*
X168692951Y-72658711D01*
X169110252Y-73029434D01*
X169522205Y-73406091D01*
X169928725Y-73788606D01*
X170329728Y-74176900D01*
X170725133Y-74570892D01*
X171114859Y-74970504D01*
X171498826Y-75375653D01*
X171876955Y-75786255D01*
X172249169Y-76202227D01*
X172615391Y-76623483D01*
X172975546Y-77049938D01*
X173329562Y-77481504D01*
X173677364Y-77918092D01*
X174018882Y-78359613D01*
X174354047Y-78805977D01*
X174682788Y-79257092D01*
X175005040Y-79712865D01*
X175320736Y-80173204D01*
X175629811Y-80638015D01*
X175932201Y-81107201D01*
X176227846Y-81580666D01*
X176516685Y-82058315D01*
X176798657Y-82540048D01*
X177073707Y-83025768D01*
X177341776Y-83515375D01*
X177602811Y-84008767D01*
X177856757Y-84505846D01*
X178103564Y-85006508D01*
X178343179Y-85510651D01*
X178575555Y-86018171D01*
X178800643Y-86528966D01*
X179018398Y-87042929D01*
X179228775Y-87559957D01*
X179431730Y-88079942D01*
X179627223Y-88602779D01*
X179815212Y-89128360D01*
X179995661Y-89656578D01*
X180168531Y-90187325D01*
X180333787Y-90720491D01*
X180491395Y-91255967D01*
X180641324Y-91793645D01*
X180783542Y-92333413D01*
X180918021Y-92875162D01*
X181044732Y-93418779D01*
X181163650Y-93964154D01*
X181274750Y-94511176D01*
X181378010Y-95059731D01*
X181473408Y-95609709D01*
X181560926Y-96160995D01*
X181640544Y-96713477D01*
X181712247Y-97267042D01*
X181776020Y-97821577D01*
X181831850Y-98376967D01*
X181879726Y-98933100D01*
X181919637Y-99489861D01*
X181951576Y-100047136D01*
X181975536Y-100604812D01*
X181991512Y-101162773D01*
X181999501Y-101720905D01*
X182000000Y-102000000D01*
X181999501Y-102279095D01*
X181991512Y-102837227D01*
X181975536Y-103395188D01*
X181951576Y-103952864D01*
X181919637Y-104510139D01*
X181879726Y-105066900D01*
X181831850Y-105623033D01*
X181776020Y-106178423D01*
X181712247Y-106732958D01*
X181640544Y-107286523D01*
X181560926Y-107839005D01*
X181473408Y-108390291D01*
X181378010Y-108940269D01*
X181274750Y-109488824D01*
X181163650Y-110035846D01*
X181044732Y-110581221D01*
X180918021Y-111124838D01*
X180783542Y-111666587D01*
X180641324Y-112206355D01*
X180491395Y-112744033D01*
X180333787Y-113279509D01*
X180168531Y-113812675D01*
X179995661Y-114343422D01*
X179815212Y-114871640D01*
X179627223Y-115397221D01*
X179431730Y-115920058D01*
X179228775Y-116440043D01*
X179029151Y-116930642D01*
X178902047Y-116875368D01*
X178715495Y-116802971D01*
X178526195Y-116738095D01*
X178334451Y-116680846D01*
X178140570Y-116631314D01*
X177944862Y-116589578D01*
X177747642Y-116555707D01*
X177549224Y-116529753D01*
X177349926Y-116511758D01*
X177150069Y-116501752D01*
X176949970Y-116499750D01*
X176749952Y-116505755D01*
X176550335Y-116519758D01*
X176351437Y-116541737D01*
X176153579Y-116571656D01*
X175957075Y-116609467D01*
X175762242Y-116655110D01*
X175569391Y-116708511D01*
X175378831Y-116769586D01*
X175190867Y-116838236D01*
X175005800Y-116914351D01*
X174823927Y-116997810D01*
X174645539Y-117088479D01*
X174470921Y-117186213D01*
X174300353Y-117290854D01*
X174134108Y-117402236D01*
X173972453Y-117520181D01*
X173815646Y-117644498D01*
X173663939Y-117774990D01*
X173517574Y-117911447D01*
X173376785Y-118053651D01*
X173241799Y-118201374D01*
X173112832Y-118354379D01*
X172990089Y-118512422D01*
X172873768Y-118675249D01*
X172764055Y-118842600D01*
X172661125Y-119014206D01*
X172565144Y-119189793D01*
X172476264Y-119369080D01*
X172394629Y-119551779D01*
X172320369Y-119737598D01*
X172253603Y-119926239D01*
X172194438Y-120117401D01*
X172142969Y-120310777D01*
X172099277Y-120506057D01*
X172063434Y-120702929D01*
X172035496Y-120901077D01*
X172015509Y-121100184D01*
X172003503Y-121299932D01*
X171999500Y-121500000D01*
X172003503Y-121700068D01*
X172015509Y-121899816D01*
X172035496Y-122098923D01*
X172063434Y-122297071D01*
X172099277Y-122493943D01*
X172142969Y-122689223D01*
X172194438Y-122882599D01*
X172253603Y-123073761D01*
X172320369Y-123262402D01*
X172394629Y-123448221D01*
X172476264Y-123630920D01*
X172565144Y-123810207D01*
X172661125Y-123985794D01*
X172764055Y-124157400D01*
X172873768Y-124324751D01*
X172990089Y-124487578D01*
X173112832Y-124645621D01*
X173241799Y-124798626D01*
X173376785Y-124946349D01*
X173517574Y-125088553D01*
X173663939Y-125225010D01*
X173815646Y-125355502D01*
X173972453Y-125479819D01*
X174080342Y-125558535D01*
X174018882Y-125640387D01*
X173677364Y-126081908D01*
X173329562Y-126518496D01*
X172975546Y-126950062D01*
X172615391Y-127376517D01*
X172249169Y-127797773D01*
X171876955Y-128213745D01*
X171498826Y-128624347D01*
X171114859Y-129029496D01*
X170725133Y-129429108D01*
X170329728Y-129823100D01*
X169928725Y-130211394D01*
X169522205Y-130593909D01*
X169110252Y-130970566D01*
X168692951Y-131341289D01*
X168270387Y-131706001D01*
X167842646Y-132064629D01*
X167409816Y-132417098D01*
X166971987Y-132763336D01*
X166529246Y-133103272D01*
X166081686Y-133436837D01*
X165629398Y-133763962D01*
X165172474Y-134084581D01*
X164711008Y-134398628D01*
X164245095Y-134706037D01*
X163774830Y-135006748D01*
X163300310Y-135300696D01*
X162821631Y-135587824D01*
X162338892Y-135868071D01*
X161852191Y-136141381D01*
X161361628Y-136407696D01*
X160867304Y-136666964D01*
X160369321Y-136919130D01*
X159867779Y-137164144D01*
X159362782Y-137401954D01*
X158854433Y-137632512D01*
X158342836Y-137855771D01*
X157828097Y-138071686D01*
X157310320Y-138280211D01*
X156789612Y-138481304D01*
X156266079Y-138674925D01*
X155739828Y-138861033D01*
X155210968Y-139039590D01*
X154679606Y-139210560D01*
X154145852Y-139373907D01*
X153609815Y-139529599D01*
X153071605Y-139677603D01*
X152531331Y-139817888D01*
X151989105Y-139950428D01*
X151445037Y-140075193D01*
X150899240Y-140192158D01*
X150351825Y-140301301D01*
X149802903Y-140402597D01*
X149252588Y-140496027D01*
X148700992Y-140581571D01*
X148148229Y-140659212D01*
X147594411Y-140728934D01*
X147039651Y-140790723D01*
X146484065Y-140844565D01*
X145927764Y-140890451D01*
X145370864Y-140928370D01*
X144813478Y-140958314D01*
X144255720Y-140980279D01*
X143697706Y-140994258D01*
X143139548Y-141000250D01*
X142581362Y-140998253D01*
X142023262Y-140988267D01*
X141465362Y-140970294D01*
X140907776Y-140944339D01*
X140350618Y-140910407D01*
X139794004Y-140868503D01*
X139238046Y-140818638D01*
X138682858Y-140760821D01*
X138128556Y-140695064D01*
X137575250Y-140621381D01*
X137023057Y-140539786D01*
X136472087Y-140450297D01*
X135922455Y-140352931D01*
X135374272Y-140247709D01*
X134827652Y-140134652D01*
X134282706Y-140013784D01*
X133739545Y-139885128D01*
X133198281Y-139748712D01*
X132659025Y-139604564D01*
X132121888Y-139452712D01*
X131586978Y-139293188D01*
X131054407Y-139126025D01*
X130524283Y-138951258D01*
X129996714Y-138768920D01*
X129471809Y-138579051D01*
X128949674Y-138381689D01*
X128430419Y-138176875D01*
X127914147Y-137964649D01*
X127400966Y-137745057D01*
X126890980Y-137518142D01*
X126384294Y-137283952D01*
X125881012Y-137042534D01*
X125381236Y-136793938D01*
X124885070Y-136538215D01*
X124392614Y-136275416D01*
X123903970Y-136005596D01*
X123419237Y-135728811D01*
X122938516Y-135445117D01*
X122461904Y-135154571D01*
X121989499Y-134857234D01*
X121521398Y-134553166D01*
X121057697Y-134242430D01*
X120598490Y-133925089D01*
X120143873Y-133601209D01*
X119693937Y-133270855D01*
X119248775Y-132934096D01*
X118808479Y-132591000D01*
X118373138Y-132241637D01*
X117942842Y-131886080D01*
X117517679Y-131524401D01*
X117097735Y-131156674D01*
X116683098Y-130782974D01*
X116273851Y-130403379D01*
X115870079Y-130017965D01*
X115471864Y-129626811D01*
X115079289Y-129229999D01*
X114692432Y-128827609D01*
X114311375Y-128419723D01*
X113936194Y-128006425D01*
X113566967Y-127587800D01*
X113203768Y-127163934D01*
X112846674Y-126734912D01*
X112495756Y-126300824D01*
X112151087Y-125861758D01*
X111812737Y-125417805D01*
X111671064Y-125226289D01*
X111783327Y-125154287D01*
X111947310Y-125039600D01*
X112106573Y-124918445D01*
X112260861Y-124791015D01*
X112409927Y-124657514D01*
X112553532Y-124518155D01*
X112691447Y-124373163D01*
X112823450Y-124222769D01*
X112949330Y-124067213D01*
X113068886Y-123906746D01*
X113181926Y-123741624D01*
X113288268Y-123572112D01*
X113387744Y-123398480D01*
X113480193Y-123221008D01*
X113565467Y-123039979D01*
X113643430Y-122855683D01*
X113713958Y-122668415D01*
X113776936Y-122478476D01*
X113832264Y-122286169D01*
X113879854Y-122091802D01*
X113919629Y-121895687D01*
X113951526Y-121698137D01*
X113975493Y-121499469D01*
X113991493Y-121300002D01*
X113999499Y-121100054D01*
X114000000Y-121000000D01*
X113999499Y-120899946D01*
X113991493Y-120699998D01*
X113975493Y-120500531D01*
X113951526Y-120301863D01*
X113919629Y-120104313D01*
X113879854Y-119908198D01*
X113832264Y-119713831D01*
X113776936Y-119521524D01*
X113713958Y-119331585D01*
X113643430Y-119144317D01*
X113565467Y-118960021D01*
X113480193Y-118778992D01*
X113387744Y-118601520D01*
X113288268Y-118427888D01*
X113181926Y-118258376D01*
X113068886Y-118093254D01*
X112949330Y-117932787D01*
X112823450Y-117777231D01*
X112691447Y-117626837D01*
X112553532Y-117481845D01*
X112409927Y-117342486D01*
X112260861Y-117208985D01*
X112106573Y-117081555D01*
X111947310Y-116960400D01*
X111783327Y-116845713D01*
X111614887Y-116737680D01*
X111442259Y-116636472D01*
X111265721Y-116542252D01*
X111085554Y-116455171D01*
X110902047Y-116375368D01*
X110715495Y-116302971D01*
X110526195Y-116238095D01*
X110334451Y-116180846D01*
X110140570Y-116131314D01*
X109944862Y-116089578D01*
X109747642Y-116055707D01*
X109549224Y-116029753D01*
X109349926Y-116011758D01*
X109150069Y-116001752D01*
X108949970Y-115999750D01*
X108749952Y-116005755D01*
X108550335Y-116019758D01*
X108351437Y-116041737D01*
X108153579Y-116071656D01*
X107957075Y-116109467D01*
X107762242Y-116155110D01*
X107569391Y-116208511D01*
X107378831Y-116269586D01*
X107190867Y-116338236D01*
X107005800Y-116414351D01*
X106823927Y-116497810D01*
X106800143Y-116509898D01*
X106668817Y-116180413D01*
X106469588Y-115658989D01*
X106277842Y-115134767D01*
X106093619Y-114607853D01*
X105916955Y-114078358D01*
X105747887Y-113546388D01*
X105586451Y-113012053D01*
X105432678Y-112475462D01*
X105286601Y-111936725D01*
X105148249Y-111395953D01*
X105017651Y-110853256D01*
X104894834Y-110308746D01*
X104779822Y-109762534D01*
X104672639Y-109214731D01*
X104573307Y-108665451D01*
X104481847Y-108114805D01*
X104398277Y-107562907D01*
X104322614Y-107009869D01*
X104254874Y-106455805D01*
X104195071Y-105900828D01*
X104143217Y-105345052D01*
X104099322Y-104788591D01*
X104063396Y-104231558D01*
X104035446Y-103674069D01*
X104015478Y-103116236D01*
X104003495Y-102558175D01*
X103999501Y-102000000D01*
X104003495Y-101441825D01*
X104015478Y-100883764D01*
X104035446Y-100325931D01*
X104063396Y-99768442D01*
X104099322Y-99211409D01*
X104143217Y-98654948D01*
X104195071Y-98099172D01*
X104254874Y-97544195D01*
X104322614Y-96990131D01*
X104398277Y-96437093D01*
X104481847Y-95885195D01*
X104573307Y-95334549D01*
X104672639Y-94785269D01*
X104779822Y-94237466D01*
X104894834Y-93691254D01*
X105017651Y-93146744D01*
X105148249Y-92604047D01*
X105286601Y-92063275D01*
X105432678Y-91524538D01*
X105586451Y-90987947D01*
X105747887Y-90453612D01*
X105916955Y-89921642D01*
X106093619Y-89392147D01*
X106277842Y-88865233D01*
X106469588Y-88341011D01*
X106668817Y-87819587D01*
X106875489Y-87301067D01*
X107089560Y-86785558D01*
X107310987Y-86273166D01*
X107539725Y-85763995D01*
X107775727Y-85258151D01*
X108018944Y-84755735D01*
X108269327Y-84256852D01*
X108526824Y-83761604D01*
X108791383Y-83270092D01*
X109062949Y-82782416D01*
X109341467Y-82298677D01*
X109626880Y-81818974D01*
X109919129Y-81343405D01*
X110218155Y-80872067D01*
X110523895Y-80405057D01*
X110836289Y-79942470D01*
X111155270Y-79484402D01*
X111480775Y-79030946D01*
X111812737Y-78582195D01*
X112151087Y-78138242D01*
X112495756Y-77699176D01*
X112846674Y-77265088D01*
X113203768Y-76836066D01*
X113566967Y-76412200D01*
X113936194Y-75993575D01*
X114311375Y-75580277D01*
X114692432Y-75172391D01*
X115079289Y-74770001D01*
X115471864Y-74373189D01*
X115870079Y-73982035D01*
X116273851Y-73596621D01*
X116683098Y-73217026D01*
X117097735Y-72843326D01*
X117517679Y-72475599D01*
X117942842Y-72113920D01*
X118373138Y-71758363D01*
X118808479Y-71409000D01*
X119248775Y-71065904D01*
X119693937Y-70729145D01*
X120143873Y-70398791D01*
X120598490Y-70074911D01*
X121057697Y-69757570D01*
X121521398Y-69446834D01*
X121989499Y-69142766D01*
X122461904Y-68845429D01*
X122938516Y-68554883D01*
X123419237Y-68271189D01*
X123903970Y-67994404D01*
X124392614Y-67724584D01*
X124885070Y-67461785D01*
X125381236Y-67206062D01*
X125881012Y-66957466D01*
X126384294Y-66716048D01*
X126890980Y-66481858D01*
X127400966Y-66254943D01*
X127914147Y-66035351D01*
X128430419Y-65823125D01*
X128949674Y-65618311D01*
X129471809Y-65420949D01*
X129996714Y-65231080D01*
X130524283Y-65048742D01*
X131054407Y-64873975D01*
X131586978Y-64706812D01*
X132121888Y-64547288D01*
X132659025Y-64395436D01*
X133198281Y-64251288D01*
X133739545Y-64114872D01*
X134282706Y-63986216D01*
X134827652Y-63865348D01*
X135374272Y-63752291D01*
X135922455Y-63647069D01*
X136472087Y-63549703D01*
X137023057Y-63460214D01*
X137575250Y-63378619D01*
X138010749Y-63320624D01*
X138015509Y-63399816D01*
X131000000Y-98000000D02*
X129000000Y-106000000D01*
X131000000Y-98000000D02*
X137500000Y-99500000D01*
X135000000Y-80000000D02*
X140500000Y-82000000D01*
X135500000Y-108000000D02*
X129000000Y-106000000D01*
X137000000Y-73000000D02*
X135000000Y-80000000D01*
X137000000Y-73000000D02*
X143000000Y-75000000D01*
X137500000Y-99500000D02*
X135500000Y-108000000D01*
X143000000Y-75000000D02*
X140500000Y-82000000D01*
M02*
