%TF.GenerationSoftware,KiCad,Pcbnew,10.0.6*%
%TF.CreationDate,2026-09-24T17:55:31-04:00*%
%TF.ProjectId,Speaker_Stake_v2.0.1,53706561-6b65-4725-9f53-74616b655f76,v2.0.1*%
%TF.SameCoordinates,Original*%
%TF.FileFunction,Legend,Top*%
%TF.FilePolarity,Positive*%
%FSLAX46Y46*%
G04 Gerber Fmt 4.6, Leading zero omitted, Abs format (unit mm)*
G04 Created by KiCad (PCBNEW 10.0.6) date 2026-09-24 17:55:31*
%MOMM*%
%LPD*%
G01*
G04 APERTURE LIST*
%ADD10C,0.152400*%
%ADD11C,0.150000*%
%ADD12C,0.127000*%
%ADD13C,0.100000*%
%ADD14C,0.504000*%
%ADD15C,0.120000*%
G04 APERTURE END LIST*
D10*
X120449428Y-103686003D02*
X119955943Y-103686003D01*
X120202686Y-103686003D02*
X120202686Y-102186003D01*
X120202686Y-102186003D02*
X120120438Y-102400289D01*
X120120438Y-102400289D02*
X120038190Y-102543146D01*
X120038190Y-102543146D02*
X119955943Y-102614575D01*
X120819543Y-103686003D02*
X120819543Y-102186003D01*
X120819543Y-102186003D02*
X121313028Y-103686003D01*
X121313028Y-103686003D02*
X121313028Y-102186003D01*
X122135505Y-102186003D02*
X121724267Y-102186003D01*
X121724267Y-102186003D02*
X121683143Y-102900289D01*
X121683143Y-102900289D02*
X121724267Y-102828860D01*
X121724267Y-102828860D02*
X121806514Y-102757432D01*
X121806514Y-102757432D02*
X122012133Y-102757432D01*
X122012133Y-102757432D02*
X122094381Y-102828860D01*
X122094381Y-102828860D02*
X122135505Y-102900289D01*
X122135505Y-102900289D02*
X122176628Y-103043146D01*
X122176628Y-103043146D02*
X122176628Y-103400289D01*
X122176628Y-103400289D02*
X122135505Y-103543146D01*
X122135505Y-103543146D02*
X122094381Y-103614575D01*
X122094381Y-103614575D02*
X122012133Y-103686003D01*
X122012133Y-103686003D02*
X121806514Y-103686003D01*
X121806514Y-103686003D02*
X121724267Y-103614575D01*
X121724267Y-103614575D02*
X121683143Y-103543146D01*
X122670114Y-102828860D02*
X122587866Y-102757432D01*
X122587866Y-102757432D02*
X122546743Y-102686003D01*
X122546743Y-102686003D02*
X122505619Y-102543146D01*
X122505619Y-102543146D02*
X122505619Y-102471717D01*
X122505619Y-102471717D02*
X122546743Y-102328860D01*
X122546743Y-102328860D02*
X122587866Y-102257432D01*
X122587866Y-102257432D02*
X122670114Y-102186003D01*
X122670114Y-102186003D02*
X122834609Y-102186003D01*
X122834609Y-102186003D02*
X122916857Y-102257432D01*
X122916857Y-102257432D02*
X122957981Y-102328860D01*
X122957981Y-102328860D02*
X122999104Y-102471717D01*
X122999104Y-102471717D02*
X122999104Y-102543146D01*
X122999104Y-102543146D02*
X122957981Y-102686003D01*
X122957981Y-102686003D02*
X122916857Y-102757432D01*
X122916857Y-102757432D02*
X122834609Y-102828860D01*
X122834609Y-102828860D02*
X122670114Y-102828860D01*
X122670114Y-102828860D02*
X122587866Y-102900289D01*
X122587866Y-102900289D02*
X122546743Y-102971717D01*
X122546743Y-102971717D02*
X122505619Y-103114575D01*
X122505619Y-103114575D02*
X122505619Y-103400289D01*
X122505619Y-103400289D02*
X122546743Y-103543146D01*
X122546743Y-103543146D02*
X122587866Y-103614575D01*
X122587866Y-103614575D02*
X122670114Y-103686003D01*
X122670114Y-103686003D02*
X122834609Y-103686003D01*
X122834609Y-103686003D02*
X122916857Y-103614575D01*
X122916857Y-103614575D02*
X122957981Y-103543146D01*
X122957981Y-103543146D02*
X122999104Y-103400289D01*
X122999104Y-103400289D02*
X122999104Y-103114575D01*
X122999104Y-103114575D02*
X122957981Y-102971717D01*
X122957981Y-102971717D02*
X122916857Y-102900289D01*
X122916857Y-102900289D02*
X122834609Y-102828860D01*
X123821580Y-103686003D02*
X123328095Y-103686003D01*
X123574838Y-103686003D02*
X123574838Y-102186003D01*
X123574838Y-102186003D02*
X123492590Y-102400289D01*
X123492590Y-102400289D02*
X123410342Y-102543146D01*
X123410342Y-102543146D02*
X123328095Y-102614575D01*
X124109447Y-102186003D02*
X124685180Y-102186003D01*
X124685180Y-102186003D02*
X124315066Y-103686003D01*
X109595874Y-85684000D02*
X109677499Y-85800875D01*
X109677499Y-85800875D02*
X109863853Y-85887773D01*
X109863853Y-85887773D02*
X109968582Y-85857796D01*
X109968582Y-85857796D02*
X110036040Y-85810440D01*
X110036040Y-85810440D02*
X110133685Y-85698347D01*
X110133685Y-85698347D02*
X110194059Y-85568874D01*
X110194059Y-85568874D02*
X110217162Y-85422022D01*
X110217162Y-85422022D02*
X110210078Y-85339906D01*
X110210078Y-85339906D02*
X110165723Y-85240410D01*
X110165723Y-85240410D02*
X110046827Y-85106156D01*
X110046827Y-85106156D02*
X110002472Y-85006660D01*
X110002472Y-85006660D02*
X109995389Y-84924544D01*
X109995389Y-84924544D02*
X110018492Y-84777692D01*
X110018492Y-84777692D02*
X110078866Y-84648219D01*
X110078866Y-84648219D02*
X110176511Y-84536126D01*
X110176511Y-84536126D02*
X110243969Y-84488770D01*
X110243969Y-84488770D02*
X110348697Y-84458793D01*
X110348697Y-84458793D02*
X110535051Y-84545691D01*
X110535051Y-84545691D02*
X110616677Y-84662566D01*
X110770992Y-85207401D02*
X110137065Y-86566863D01*
X110740805Y-85272137D02*
X110845534Y-85242160D01*
X110845534Y-85242160D02*
X110994617Y-85311679D01*
X110994617Y-85311679D02*
X111038972Y-85411175D01*
X111038972Y-85411175D02*
X111046055Y-85493291D01*
X111046055Y-85493291D02*
X111022952Y-85640143D01*
X111022952Y-85640143D02*
X110841830Y-86028560D01*
X110841830Y-86028560D02*
X110744185Y-86140653D01*
X110744185Y-86140653D02*
X110676727Y-86188010D01*
X110676727Y-86188010D02*
X110571999Y-86217987D01*
X110571999Y-86217987D02*
X110422915Y-86148468D01*
X110422915Y-86148468D02*
X110378561Y-86048973D01*
X111384873Y-86518224D02*
X111280144Y-86548201D01*
X111280144Y-86548201D02*
X111131061Y-86478682D01*
X111131061Y-86478682D02*
X111086706Y-86379186D01*
X111086706Y-86379186D02*
X111109809Y-86232334D01*
X111109809Y-86232334D02*
X111351306Y-85714444D01*
X111351306Y-85714444D02*
X111448950Y-85602351D01*
X111448950Y-85602351D02*
X111553679Y-85572374D01*
X111553679Y-85572374D02*
X111702762Y-85641893D01*
X111702762Y-85641893D02*
X111747117Y-85741388D01*
X111747117Y-85741388D02*
X111724014Y-85888241D01*
X111724014Y-85888241D02*
X111663640Y-86017713D01*
X111663640Y-86017713D02*
X111230557Y-85973389D01*
X112062832Y-86913174D02*
X112394889Y-86201075D01*
X112394889Y-86201075D02*
X112417992Y-86054223D01*
X112417992Y-86054223D02*
X112373638Y-85954727D01*
X112373638Y-85954727D02*
X112224554Y-85885208D01*
X112224554Y-85885208D02*
X112119826Y-85915185D01*
X112093019Y-86848438D02*
X111988290Y-86878414D01*
X111988290Y-86878414D02*
X111801936Y-86791516D01*
X111801936Y-86791516D02*
X111757582Y-86692020D01*
X111757582Y-86692020D02*
X111780685Y-86545168D01*
X111780685Y-86545168D02*
X111841059Y-86415696D01*
X111841059Y-86415696D02*
X111938704Y-86303603D01*
X111938704Y-86303603D02*
X112043432Y-86273626D01*
X112043432Y-86273626D02*
X112229786Y-86360524D01*
X112229786Y-86360524D02*
X112334515Y-86330547D01*
X112435540Y-87086970D02*
X113069467Y-85727509D01*
X112751578Y-86603840D02*
X112733707Y-87226008D01*
X113156325Y-86319700D02*
X112616662Y-86698553D01*
X113397498Y-87456726D02*
X113292769Y-87486703D01*
X113292769Y-87486703D02*
X113143686Y-87417184D01*
X113143686Y-87417184D02*
X113099331Y-87317689D01*
X113099331Y-87317689D02*
X113122434Y-87170836D01*
X113122434Y-87170836D02*
X113363931Y-86652946D01*
X113363931Y-86652946D02*
X113461575Y-86540853D01*
X113461575Y-86540853D02*
X113566304Y-86510876D01*
X113566304Y-86510876D02*
X113715387Y-86580395D01*
X113715387Y-86580395D02*
X113759742Y-86679891D01*
X113759742Y-86679891D02*
X113736639Y-86826743D01*
X113736639Y-86826743D02*
X113676265Y-86956216D01*
X113676265Y-86956216D02*
X113243183Y-86911891D01*
X113740020Y-87695259D02*
X114162638Y-86788951D01*
X114041890Y-87047897D02*
X114139535Y-86935804D01*
X114139535Y-86935804D02*
X114206992Y-86888447D01*
X114206992Y-86888447D02*
X114311721Y-86858470D01*
X114311721Y-86858470D02*
X114386263Y-86893229D01*
X115062370Y-87681380D02*
X115658703Y-87959455D01*
X110795874Y-83084000D02*
X110877499Y-83200875D01*
X110877499Y-83200875D02*
X111063853Y-83287773D01*
X111063853Y-83287773D02*
X111168582Y-83257796D01*
X111168582Y-83257796D02*
X111236040Y-83210440D01*
X111236040Y-83210440D02*
X111333685Y-83098347D01*
X111333685Y-83098347D02*
X111394059Y-82968874D01*
X111394059Y-82968874D02*
X111417162Y-82822022D01*
X111417162Y-82822022D02*
X111410078Y-82739906D01*
X111410078Y-82739906D02*
X111365723Y-82640410D01*
X111365723Y-82640410D02*
X111246827Y-82506156D01*
X111246827Y-82506156D02*
X111202472Y-82406660D01*
X111202472Y-82406660D02*
X111195389Y-82324544D01*
X111195389Y-82324544D02*
X111218492Y-82177692D01*
X111218492Y-82177692D02*
X111278866Y-82048219D01*
X111278866Y-82048219D02*
X111376511Y-81936126D01*
X111376511Y-81936126D02*
X111443969Y-81888770D01*
X111443969Y-81888770D02*
X111548697Y-81858793D01*
X111548697Y-81858793D02*
X111735051Y-81945691D01*
X111735051Y-81945691D02*
X111816677Y-82062566D01*
X111970992Y-82607401D02*
X111337065Y-83966863D01*
X111940805Y-82672137D02*
X112045534Y-82642160D01*
X112045534Y-82642160D02*
X112194617Y-82711679D01*
X112194617Y-82711679D02*
X112238972Y-82811175D01*
X112238972Y-82811175D02*
X112246055Y-82893291D01*
X112246055Y-82893291D02*
X112222952Y-83040143D01*
X112222952Y-83040143D02*
X112041830Y-83428560D01*
X112041830Y-83428560D02*
X111944185Y-83540653D01*
X111944185Y-83540653D02*
X111876727Y-83588010D01*
X111876727Y-83588010D02*
X111771999Y-83617987D01*
X111771999Y-83617987D02*
X111622915Y-83548468D01*
X111622915Y-83548468D02*
X111578561Y-83448973D01*
X112584873Y-83918224D02*
X112480144Y-83948201D01*
X112480144Y-83948201D02*
X112331061Y-83878682D01*
X112331061Y-83878682D02*
X112286706Y-83779186D01*
X112286706Y-83779186D02*
X112309809Y-83632334D01*
X112309809Y-83632334D02*
X112551306Y-83114444D01*
X112551306Y-83114444D02*
X112648950Y-83002351D01*
X112648950Y-83002351D02*
X112753679Y-82972374D01*
X112753679Y-82972374D02*
X112902762Y-83041893D01*
X112902762Y-83041893D02*
X112947117Y-83141388D01*
X112947117Y-83141388D02*
X112924014Y-83288241D01*
X112924014Y-83288241D02*
X112863640Y-83417713D01*
X112863640Y-83417713D02*
X112430557Y-83373389D01*
X113262832Y-84313174D02*
X113594889Y-83601075D01*
X113594889Y-83601075D02*
X113617992Y-83454223D01*
X113617992Y-83454223D02*
X113573638Y-83354727D01*
X113573638Y-83354727D02*
X113424554Y-83285208D01*
X113424554Y-83285208D02*
X113319826Y-83315185D01*
X113293019Y-84248438D02*
X113188290Y-84278414D01*
X113188290Y-84278414D02*
X113001936Y-84191516D01*
X113001936Y-84191516D02*
X112957582Y-84092020D01*
X112957582Y-84092020D02*
X112980685Y-83945168D01*
X112980685Y-83945168D02*
X113041059Y-83815696D01*
X113041059Y-83815696D02*
X113138704Y-83703603D01*
X113138704Y-83703603D02*
X113243432Y-83673626D01*
X113243432Y-83673626D02*
X113429786Y-83760524D01*
X113429786Y-83760524D02*
X113534515Y-83730547D01*
X113635540Y-84486970D02*
X114269467Y-83127509D01*
X113951578Y-84003840D02*
X113933707Y-84626008D01*
X114356325Y-83719700D02*
X113816662Y-84098553D01*
X114597498Y-84856726D02*
X114492769Y-84886703D01*
X114492769Y-84886703D02*
X114343686Y-84817184D01*
X114343686Y-84817184D02*
X114299331Y-84717689D01*
X114299331Y-84717689D02*
X114322434Y-84570836D01*
X114322434Y-84570836D02*
X114563931Y-84052946D01*
X114563931Y-84052946D02*
X114661575Y-83940853D01*
X114661575Y-83940853D02*
X114766304Y-83910876D01*
X114766304Y-83910876D02*
X114915387Y-83980395D01*
X114915387Y-83980395D02*
X114959742Y-84079891D01*
X114959742Y-84079891D02*
X114936639Y-84226743D01*
X114936639Y-84226743D02*
X114876265Y-84356216D01*
X114876265Y-84356216D02*
X114443183Y-84311891D01*
X114940020Y-85095259D02*
X115362638Y-84188951D01*
X115241890Y-84447897D02*
X115339535Y-84335804D01*
X115339535Y-84335804D02*
X115406992Y-84288447D01*
X115406992Y-84288447D02*
X115511721Y-84258470D01*
X115511721Y-84258470D02*
X115586263Y-84293229D01*
X116262370Y-85081380D02*
X116858703Y-85359455D01*
X116319041Y-85738307D02*
X116802033Y-84702527D01*
X115512239Y-81227777D02*
X115139531Y-81053980D01*
X115139531Y-81053980D02*
X114800390Y-81683963D01*
X114800390Y-81683963D02*
X114867847Y-81636606D01*
X114867847Y-81636606D02*
X114972576Y-81606629D01*
X114972576Y-81606629D02*
X115158930Y-81693528D01*
X115158930Y-81693528D02*
X115203285Y-81793023D01*
X115203285Y-81793023D02*
X115210369Y-81875139D01*
X115210369Y-81875139D02*
X115187265Y-82021991D01*
X115187265Y-82021991D02*
X115036330Y-82345673D01*
X115036330Y-82345673D02*
X114938686Y-82457766D01*
X114938686Y-82457766D02*
X114871228Y-82505122D01*
X114871228Y-82505122D02*
X114766499Y-82535099D01*
X114766499Y-82535099D02*
X114580145Y-82448201D01*
X114580145Y-82448201D02*
X114535790Y-82348705D01*
X114535790Y-82348705D02*
X114528706Y-82266589D01*
X115773135Y-81349434D02*
X115400103Y-82830554D01*
X115400103Y-82830554D02*
X116294926Y-81592750D01*
X115921895Y-83073869D02*
X116555822Y-81714407D01*
X116555822Y-81714407D02*
X116742176Y-81801306D01*
X116742176Y-81801306D02*
X116823802Y-81918181D01*
X116823802Y-81918181D02*
X116837970Y-82082413D01*
X116837970Y-82082413D02*
X116814866Y-82229265D01*
X116814866Y-82229265D02*
X116731389Y-82505590D01*
X116731389Y-82505590D02*
X116640828Y-82699799D01*
X116640828Y-82699799D02*
X116482809Y-82941364D01*
X116482809Y-82941364D02*
X116385164Y-83053457D01*
X116385164Y-83053457D02*
X116250249Y-83148170D01*
X116250249Y-83148170D02*
X116108249Y-83160768D01*
X116108249Y-83160768D02*
X115921895Y-83073869D01*
X117212206Y-83517926D02*
X117144748Y-83565282D01*
X117144748Y-83565282D02*
X117002749Y-83577880D01*
X117002749Y-83577880D02*
X116928207Y-83543120D01*
X116928207Y-83543120D02*
X116846582Y-83426245D01*
X116846582Y-83426245D02*
X116832414Y-83262013D01*
X116832414Y-83262013D02*
X116855517Y-83115161D01*
X116855517Y-83115161D02*
X116938995Y-82838836D01*
X116938995Y-82838836D02*
X117029556Y-82644627D01*
X117029556Y-82644627D02*
X117187575Y-82403062D01*
X117187575Y-82403062D02*
X117285219Y-82290969D01*
X117285219Y-82290969D02*
X117420135Y-82196256D01*
X117420135Y-82196256D02*
X117562135Y-82183659D01*
X117562135Y-82183659D02*
X117636676Y-82218418D01*
X117636676Y-82218418D02*
X117718302Y-82335293D01*
X117718302Y-82335293D02*
X117725386Y-82417409D01*
X117417489Y-79148930D02*
X117373134Y-79049434D01*
X117373134Y-79049434D02*
X117261322Y-78997295D01*
X117261322Y-78997295D02*
X117119322Y-79009892D01*
X117119322Y-79009892D02*
X116984407Y-79104605D01*
X116984407Y-79104605D02*
X116886762Y-79216698D01*
X116886762Y-79216698D02*
X116728743Y-79458264D01*
X116728743Y-79458264D02*
X116638182Y-79652473D01*
X116638182Y-79652473D02*
X116554704Y-79928797D01*
X116554704Y-79928797D02*
X116531601Y-80075650D01*
X116531601Y-80075650D02*
X116545769Y-80239881D01*
X116545769Y-80239881D02*
X116627394Y-80356757D01*
X116627394Y-80356757D02*
X116701936Y-80391516D01*
X116701936Y-80391516D02*
X116843936Y-80378919D01*
X116843936Y-80378919D02*
X116911393Y-80331562D01*
X116911393Y-80331562D02*
X117122703Y-79878408D01*
X117122703Y-79878408D02*
X116973619Y-79808890D01*
X117186457Y-80617452D02*
X117820384Y-79257990D01*
X117820384Y-79257990D02*
X117633707Y-80826008D01*
X117633707Y-80826008D02*
X118267634Y-79466546D01*
X118006415Y-80999805D02*
X118640343Y-79640343D01*
X118640343Y-79640343D02*
X118826697Y-79727241D01*
X118826697Y-79727241D02*
X118908322Y-79844117D01*
X118908322Y-79844117D02*
X118922490Y-80008349D01*
X118922490Y-80008349D02*
X118899387Y-80155201D01*
X118899387Y-80155201D02*
X118815909Y-80431526D01*
X118815909Y-80431526D02*
X118725348Y-80625734D01*
X118725348Y-80625734D02*
X118567329Y-80867300D01*
X118567329Y-80867300D02*
X118469685Y-80979393D01*
X118469685Y-80979393D02*
X118334769Y-81074106D01*
X118334769Y-81074106D02*
X118192769Y-81086703D01*
X118192769Y-81086703D02*
X118006415Y-80999805D01*
D11*
X128709523Y-87207242D02*
X128852380Y-87278670D01*
X128852380Y-87278670D02*
X129090475Y-87278670D01*
X129090475Y-87278670D02*
X129185713Y-87207242D01*
X129185713Y-87207242D02*
X129233332Y-87135813D01*
X129233332Y-87135813D02*
X129280951Y-86992956D01*
X129280951Y-86992956D02*
X129280951Y-86850099D01*
X129280951Y-86850099D02*
X129233332Y-86707242D01*
X129233332Y-86707242D02*
X129185713Y-86635813D01*
X129185713Y-86635813D02*
X129090475Y-86564384D01*
X129090475Y-86564384D02*
X128899999Y-86492956D01*
X128899999Y-86492956D02*
X128804761Y-86421527D01*
X128804761Y-86421527D02*
X128757142Y-86350099D01*
X128757142Y-86350099D02*
X128709523Y-86207242D01*
X128709523Y-86207242D02*
X128709523Y-86064384D01*
X128709523Y-86064384D02*
X128757142Y-85921527D01*
X128757142Y-85921527D02*
X128804761Y-85850099D01*
X128804761Y-85850099D02*
X128899999Y-85778670D01*
X128899999Y-85778670D02*
X129138094Y-85778670D01*
X129138094Y-85778670D02*
X129280951Y-85850099D01*
X129709523Y-86278670D02*
X129709523Y-87778670D01*
X129709523Y-86350099D02*
X129804761Y-86278670D01*
X129804761Y-86278670D02*
X129995237Y-86278670D01*
X129995237Y-86278670D02*
X130090475Y-86350099D01*
X130090475Y-86350099D02*
X130138094Y-86421527D01*
X130138094Y-86421527D02*
X130185713Y-86564384D01*
X130185713Y-86564384D02*
X130185713Y-86992956D01*
X130185713Y-86992956D02*
X130138094Y-87135813D01*
X130138094Y-87135813D02*
X130090475Y-87207242D01*
X130090475Y-87207242D02*
X129995237Y-87278670D01*
X129995237Y-87278670D02*
X129804761Y-87278670D01*
X129804761Y-87278670D02*
X129709523Y-87207242D01*
X130995237Y-87207242D02*
X130899999Y-87278670D01*
X130899999Y-87278670D02*
X130709523Y-87278670D01*
X130709523Y-87278670D02*
X130614285Y-87207242D01*
X130614285Y-87207242D02*
X130566666Y-87064384D01*
X130566666Y-87064384D02*
X130566666Y-86492956D01*
X130566666Y-86492956D02*
X130614285Y-86350099D01*
X130614285Y-86350099D02*
X130709523Y-86278670D01*
X130709523Y-86278670D02*
X130899999Y-86278670D01*
X130899999Y-86278670D02*
X130995237Y-86350099D01*
X130995237Y-86350099D02*
X131042856Y-86492956D01*
X131042856Y-86492956D02*
X131042856Y-86635813D01*
X131042856Y-86635813D02*
X130566666Y-86778670D01*
X131899999Y-87278670D02*
X131899999Y-86492956D01*
X131899999Y-86492956D02*
X131852380Y-86350099D01*
X131852380Y-86350099D02*
X131757142Y-86278670D01*
X131757142Y-86278670D02*
X131566666Y-86278670D01*
X131566666Y-86278670D02*
X131471428Y-86350099D01*
X131899999Y-87207242D02*
X131804761Y-87278670D01*
X131804761Y-87278670D02*
X131566666Y-87278670D01*
X131566666Y-87278670D02*
X131471428Y-87207242D01*
X131471428Y-87207242D02*
X131423809Y-87064384D01*
X131423809Y-87064384D02*
X131423809Y-86921527D01*
X131423809Y-86921527D02*
X131471428Y-86778670D01*
X131471428Y-86778670D02*
X131566666Y-86707242D01*
X131566666Y-86707242D02*
X131804761Y-86707242D01*
X131804761Y-86707242D02*
X131899999Y-86635813D01*
X132376190Y-87278670D02*
X132376190Y-85778670D01*
X132471428Y-86707242D02*
X132757142Y-87278670D01*
X132757142Y-86278670D02*
X132376190Y-86850099D01*
X133566666Y-87207242D02*
X133471428Y-87278670D01*
X133471428Y-87278670D02*
X133280952Y-87278670D01*
X133280952Y-87278670D02*
X133185714Y-87207242D01*
X133185714Y-87207242D02*
X133138095Y-87064384D01*
X133138095Y-87064384D02*
X133138095Y-86492956D01*
X133138095Y-86492956D02*
X133185714Y-86350099D01*
X133185714Y-86350099D02*
X133280952Y-86278670D01*
X133280952Y-86278670D02*
X133471428Y-86278670D01*
X133471428Y-86278670D02*
X133566666Y-86350099D01*
X133566666Y-86350099D02*
X133614285Y-86492956D01*
X133614285Y-86492956D02*
X133614285Y-86635813D01*
X133614285Y-86635813D02*
X133138095Y-86778670D01*
X134042857Y-87278670D02*
X134042857Y-86278670D01*
X134042857Y-86564384D02*
X134090476Y-86421527D01*
X134090476Y-86421527D02*
X134138095Y-86350099D01*
X134138095Y-86350099D02*
X134233333Y-86278670D01*
X134233333Y-86278670D02*
X134328571Y-86278670D01*
X135376191Y-87207242D02*
X135519048Y-87278670D01*
X135519048Y-87278670D02*
X135757143Y-87278670D01*
X135757143Y-87278670D02*
X135852381Y-87207242D01*
X135852381Y-87207242D02*
X135900000Y-87135813D01*
X135900000Y-87135813D02*
X135947619Y-86992956D01*
X135947619Y-86992956D02*
X135947619Y-86850099D01*
X135947619Y-86850099D02*
X135900000Y-86707242D01*
X135900000Y-86707242D02*
X135852381Y-86635813D01*
X135852381Y-86635813D02*
X135757143Y-86564384D01*
X135757143Y-86564384D02*
X135566667Y-86492956D01*
X135566667Y-86492956D02*
X135471429Y-86421527D01*
X135471429Y-86421527D02*
X135423810Y-86350099D01*
X135423810Y-86350099D02*
X135376191Y-86207242D01*
X135376191Y-86207242D02*
X135376191Y-86064384D01*
X135376191Y-86064384D02*
X135423810Y-85921527D01*
X135423810Y-85921527D02*
X135471429Y-85850099D01*
X135471429Y-85850099D02*
X135566667Y-85778670D01*
X135566667Y-85778670D02*
X135804762Y-85778670D01*
X135804762Y-85778670D02*
X135947619Y-85850099D01*
X136233334Y-86278670D02*
X136614286Y-86278670D01*
X136376191Y-85778670D02*
X136376191Y-87064384D01*
X136376191Y-87064384D02*
X136423810Y-87207242D01*
X136423810Y-87207242D02*
X136519048Y-87278670D01*
X136519048Y-87278670D02*
X136614286Y-87278670D01*
X137376191Y-87278670D02*
X137376191Y-86492956D01*
X137376191Y-86492956D02*
X137328572Y-86350099D01*
X137328572Y-86350099D02*
X137233334Y-86278670D01*
X137233334Y-86278670D02*
X137042858Y-86278670D01*
X137042858Y-86278670D02*
X136947620Y-86350099D01*
X137376191Y-87207242D02*
X137280953Y-87278670D01*
X137280953Y-87278670D02*
X137042858Y-87278670D01*
X137042858Y-87278670D02*
X136947620Y-87207242D01*
X136947620Y-87207242D02*
X136900001Y-87064384D01*
X136900001Y-87064384D02*
X136900001Y-86921527D01*
X136900001Y-86921527D02*
X136947620Y-86778670D01*
X136947620Y-86778670D02*
X137042858Y-86707242D01*
X137042858Y-86707242D02*
X137280953Y-86707242D01*
X137280953Y-86707242D02*
X137376191Y-86635813D01*
X137852382Y-87278670D02*
X137852382Y-85778670D01*
X137947620Y-86707242D02*
X138233334Y-87278670D01*
X138233334Y-86278670D02*
X137852382Y-86850099D01*
X139042858Y-87207242D02*
X138947620Y-87278670D01*
X138947620Y-87278670D02*
X138757144Y-87278670D01*
X138757144Y-87278670D02*
X138661906Y-87207242D01*
X138661906Y-87207242D02*
X138614287Y-87064384D01*
X138614287Y-87064384D02*
X138614287Y-86492956D01*
X138614287Y-86492956D02*
X138661906Y-86350099D01*
X138661906Y-86350099D02*
X138757144Y-86278670D01*
X138757144Y-86278670D02*
X138947620Y-86278670D01*
X138947620Y-86278670D02*
X139042858Y-86350099D01*
X139042858Y-86350099D02*
X139090477Y-86492956D01*
X139090477Y-86492956D02*
X139090477Y-86635813D01*
X139090477Y-86635813D02*
X138614287Y-86778670D01*
X132519048Y-88693586D02*
X132757143Y-89693586D01*
X132757143Y-89693586D02*
X132995238Y-88693586D01*
X133328572Y-88336443D02*
X133376191Y-88265015D01*
X133376191Y-88265015D02*
X133471429Y-88193586D01*
X133471429Y-88193586D02*
X133709524Y-88193586D01*
X133709524Y-88193586D02*
X133804762Y-88265015D01*
X133804762Y-88265015D02*
X133852381Y-88336443D01*
X133852381Y-88336443D02*
X133900000Y-88479300D01*
X133900000Y-88479300D02*
X133900000Y-88622158D01*
X133900000Y-88622158D02*
X133852381Y-88836443D01*
X133852381Y-88836443D02*
X133280953Y-89693586D01*
X133280953Y-89693586D02*
X133900000Y-89693586D01*
X134328572Y-89550729D02*
X134376191Y-89622158D01*
X134376191Y-89622158D02*
X134328572Y-89693586D01*
X134328572Y-89693586D02*
X134280953Y-89622158D01*
X134280953Y-89622158D02*
X134328572Y-89550729D01*
X134328572Y-89550729D02*
X134328572Y-89693586D01*
X134995238Y-88193586D02*
X135090476Y-88193586D01*
X135090476Y-88193586D02*
X135185714Y-88265015D01*
X135185714Y-88265015D02*
X135233333Y-88336443D01*
X135233333Y-88336443D02*
X135280952Y-88479300D01*
X135280952Y-88479300D02*
X135328571Y-88765015D01*
X135328571Y-88765015D02*
X135328571Y-89122158D01*
X135328571Y-89122158D02*
X135280952Y-89407872D01*
X135280952Y-89407872D02*
X135233333Y-89550729D01*
X135233333Y-89550729D02*
X135185714Y-89622158D01*
X135185714Y-89622158D02*
X135090476Y-89693586D01*
X135090476Y-89693586D02*
X134995238Y-89693586D01*
X134995238Y-89693586D02*
X134900000Y-89622158D01*
X134900000Y-89622158D02*
X134852381Y-89550729D01*
X134852381Y-89550729D02*
X134804762Y-89407872D01*
X134804762Y-89407872D02*
X134757143Y-89122158D01*
X134757143Y-89122158D02*
X134757143Y-88765015D01*
X134757143Y-88765015D02*
X134804762Y-88479300D01*
X134804762Y-88479300D02*
X134852381Y-88336443D01*
X134852381Y-88336443D02*
X134900000Y-88265015D01*
X134900000Y-88265015D02*
X134995238Y-88193586D01*
X135757143Y-89550729D02*
X135804762Y-89622158D01*
X135804762Y-89622158D02*
X135757143Y-89693586D01*
X135757143Y-89693586D02*
X135709524Y-89622158D01*
X135709524Y-89622158D02*
X135757143Y-89550729D01*
X135757143Y-89550729D02*
X135757143Y-89693586D01*
X136757142Y-89693586D02*
X136185714Y-89693586D01*
X136471428Y-89693586D02*
X136471428Y-88193586D01*
X136471428Y-88193586D02*
X136376190Y-88407872D01*
X136376190Y-88407872D02*
X136280952Y-88550729D01*
X136280952Y-88550729D02*
X136185714Y-88622158D01*
X126580952Y-91321527D02*
X126628571Y-91250099D01*
X126628571Y-91250099D02*
X126723809Y-91178670D01*
X126723809Y-91178670D02*
X126961904Y-91178670D01*
X126961904Y-91178670D02*
X127057142Y-91250099D01*
X127057142Y-91250099D02*
X127104761Y-91321527D01*
X127104761Y-91321527D02*
X127152380Y-91464384D01*
X127152380Y-91464384D02*
X127152380Y-91607242D01*
X127152380Y-91607242D02*
X127104761Y-91821527D01*
X127104761Y-91821527D02*
X126533333Y-92678670D01*
X126533333Y-92678670D02*
X127152380Y-92678670D01*
X127771428Y-91178670D02*
X127866666Y-91178670D01*
X127866666Y-91178670D02*
X127961904Y-91250099D01*
X127961904Y-91250099D02*
X128009523Y-91321527D01*
X128009523Y-91321527D02*
X128057142Y-91464384D01*
X128057142Y-91464384D02*
X128104761Y-91750099D01*
X128104761Y-91750099D02*
X128104761Y-92107242D01*
X128104761Y-92107242D02*
X128057142Y-92392956D01*
X128057142Y-92392956D02*
X128009523Y-92535813D01*
X128009523Y-92535813D02*
X127961904Y-92607242D01*
X127961904Y-92607242D02*
X127866666Y-92678670D01*
X127866666Y-92678670D02*
X127771428Y-92678670D01*
X127771428Y-92678670D02*
X127676190Y-92607242D01*
X127676190Y-92607242D02*
X127628571Y-92535813D01*
X127628571Y-92535813D02*
X127580952Y-92392956D01*
X127580952Y-92392956D02*
X127533333Y-92107242D01*
X127533333Y-92107242D02*
X127533333Y-91750099D01*
X127533333Y-91750099D02*
X127580952Y-91464384D01*
X127580952Y-91464384D02*
X127628571Y-91321527D01*
X127628571Y-91321527D02*
X127676190Y-91250099D01*
X127676190Y-91250099D02*
X127771428Y-91178670D01*
X128485714Y-91321527D02*
X128533333Y-91250099D01*
X128533333Y-91250099D02*
X128628571Y-91178670D01*
X128628571Y-91178670D02*
X128866666Y-91178670D01*
X128866666Y-91178670D02*
X128961904Y-91250099D01*
X128961904Y-91250099D02*
X129009523Y-91321527D01*
X129009523Y-91321527D02*
X129057142Y-91464384D01*
X129057142Y-91464384D02*
X129057142Y-91607242D01*
X129057142Y-91607242D02*
X129009523Y-91821527D01*
X129009523Y-91821527D02*
X128438095Y-92678670D01*
X128438095Y-92678670D02*
X129057142Y-92678670D01*
X129914285Y-91178670D02*
X129723809Y-91178670D01*
X129723809Y-91178670D02*
X129628571Y-91250099D01*
X129628571Y-91250099D02*
X129580952Y-91321527D01*
X129580952Y-91321527D02*
X129485714Y-91535813D01*
X129485714Y-91535813D02*
X129438095Y-91821527D01*
X129438095Y-91821527D02*
X129438095Y-92392956D01*
X129438095Y-92392956D02*
X129485714Y-92535813D01*
X129485714Y-92535813D02*
X129533333Y-92607242D01*
X129533333Y-92607242D02*
X129628571Y-92678670D01*
X129628571Y-92678670D02*
X129819047Y-92678670D01*
X129819047Y-92678670D02*
X129914285Y-92607242D01*
X129914285Y-92607242D02*
X129961904Y-92535813D01*
X129961904Y-92535813D02*
X130009523Y-92392956D01*
X130009523Y-92392956D02*
X130009523Y-92035813D01*
X130009523Y-92035813D02*
X129961904Y-91892956D01*
X129961904Y-91892956D02*
X129914285Y-91821527D01*
X129914285Y-91821527D02*
X129819047Y-91750099D01*
X129819047Y-91750099D02*
X129628571Y-91750099D01*
X129628571Y-91750099D02*
X129533333Y-91821527D01*
X129533333Y-91821527D02*
X129485714Y-91892956D01*
X129485714Y-91892956D02*
X129438095Y-92035813D01*
X131200000Y-92107242D02*
X131961905Y-92107242D01*
X133200000Y-91892956D02*
X133533333Y-91892956D01*
X133676190Y-92678670D02*
X133200000Y-92678670D01*
X133200000Y-92678670D02*
X133200000Y-91178670D01*
X133200000Y-91178670D02*
X133676190Y-91178670D01*
X134104762Y-92678670D02*
X134104762Y-91678670D01*
X134104762Y-91964384D02*
X134152381Y-91821527D01*
X134152381Y-91821527D02*
X134200000Y-91750099D01*
X134200000Y-91750099D02*
X134295238Y-91678670D01*
X134295238Y-91678670D02*
X134390476Y-91678670D01*
X134723810Y-92678670D02*
X134723810Y-91678670D01*
X134723810Y-91178670D02*
X134676191Y-91250099D01*
X134676191Y-91250099D02*
X134723810Y-91321527D01*
X134723810Y-91321527D02*
X134771429Y-91250099D01*
X134771429Y-91250099D02*
X134723810Y-91178670D01*
X134723810Y-91178670D02*
X134723810Y-91321527D01*
X135628571Y-92607242D02*
X135533333Y-92678670D01*
X135533333Y-92678670D02*
X135342857Y-92678670D01*
X135342857Y-92678670D02*
X135247619Y-92607242D01*
X135247619Y-92607242D02*
X135200000Y-92535813D01*
X135200000Y-92535813D02*
X135152381Y-92392956D01*
X135152381Y-92392956D02*
X135152381Y-91964384D01*
X135152381Y-91964384D02*
X135200000Y-91821527D01*
X135200000Y-91821527D02*
X135247619Y-91750099D01*
X135247619Y-91750099D02*
X135342857Y-91678670D01*
X135342857Y-91678670D02*
X135533333Y-91678670D01*
X135533333Y-91678670D02*
X135628571Y-91750099D01*
X136819048Y-92678670D02*
X136819048Y-91178670D01*
X136819048Y-91892956D02*
X137390476Y-91892956D01*
X137390476Y-92678670D02*
X137390476Y-91178670D01*
X138295238Y-92678670D02*
X138295238Y-91892956D01*
X138295238Y-91892956D02*
X138247619Y-91750099D01*
X138247619Y-91750099D02*
X138152381Y-91678670D01*
X138152381Y-91678670D02*
X137961905Y-91678670D01*
X137961905Y-91678670D02*
X137866667Y-91750099D01*
X138295238Y-92607242D02*
X138200000Y-92678670D01*
X138200000Y-92678670D02*
X137961905Y-92678670D01*
X137961905Y-92678670D02*
X137866667Y-92607242D01*
X137866667Y-92607242D02*
X137819048Y-92464384D01*
X137819048Y-92464384D02*
X137819048Y-92321527D01*
X137819048Y-92321527D02*
X137866667Y-92178670D01*
X137866667Y-92178670D02*
X137961905Y-92107242D01*
X137961905Y-92107242D02*
X138200000Y-92107242D01*
X138200000Y-92107242D02*
X138295238Y-92035813D01*
X138771429Y-91678670D02*
X138771429Y-92678670D01*
X138771429Y-91821527D02*
X138819048Y-91750099D01*
X138819048Y-91750099D02*
X138914286Y-91678670D01*
X138914286Y-91678670D02*
X139057143Y-91678670D01*
X139057143Y-91678670D02*
X139152381Y-91750099D01*
X139152381Y-91750099D02*
X139200000Y-91892956D01*
X139200000Y-91892956D02*
X139200000Y-92678670D01*
X139628572Y-92607242D02*
X139723810Y-92678670D01*
X139723810Y-92678670D02*
X139914286Y-92678670D01*
X139914286Y-92678670D02*
X140009524Y-92607242D01*
X140009524Y-92607242D02*
X140057143Y-92464384D01*
X140057143Y-92464384D02*
X140057143Y-92392956D01*
X140057143Y-92392956D02*
X140009524Y-92250099D01*
X140009524Y-92250099D02*
X139914286Y-92178670D01*
X139914286Y-92178670D02*
X139771429Y-92178670D01*
X139771429Y-92178670D02*
X139676191Y-92107242D01*
X139676191Y-92107242D02*
X139628572Y-91964384D01*
X139628572Y-91964384D02*
X139628572Y-91892956D01*
X139628572Y-91892956D02*
X139676191Y-91750099D01*
X139676191Y-91750099D02*
X139771429Y-91678670D01*
X139771429Y-91678670D02*
X139914286Y-91678670D01*
X139914286Y-91678670D02*
X140009524Y-91750099D01*
X140866667Y-92607242D02*
X140771429Y-92678670D01*
X140771429Y-92678670D02*
X140580953Y-92678670D01*
X140580953Y-92678670D02*
X140485715Y-92607242D01*
X140485715Y-92607242D02*
X140438096Y-92464384D01*
X140438096Y-92464384D02*
X140438096Y-91892956D01*
X140438096Y-91892956D02*
X140485715Y-91750099D01*
X140485715Y-91750099D02*
X140580953Y-91678670D01*
X140580953Y-91678670D02*
X140771429Y-91678670D01*
X140771429Y-91678670D02*
X140866667Y-91750099D01*
X140866667Y-91750099D02*
X140914286Y-91892956D01*
X140914286Y-91892956D02*
X140914286Y-92035813D01*
X140914286Y-92035813D02*
X140438096Y-92178670D01*
X141342858Y-91678670D02*
X141342858Y-92678670D01*
X141342858Y-91821527D02*
X141390477Y-91750099D01*
X141390477Y-91750099D02*
X141485715Y-91678670D01*
X141485715Y-91678670D02*
X141628572Y-91678670D01*
X141628572Y-91678670D02*
X141723810Y-91750099D01*
X141723810Y-91750099D02*
X141771429Y-91892956D01*
X141771429Y-91892956D02*
X141771429Y-92678670D01*
X124199999Y-95093586D02*
X124199999Y-93593586D01*
X124628570Y-95093586D02*
X124628570Y-94307872D01*
X124628570Y-94307872D02*
X124580951Y-94165015D01*
X124580951Y-94165015D02*
X124485713Y-94093586D01*
X124485713Y-94093586D02*
X124342856Y-94093586D01*
X124342856Y-94093586D02*
X124247618Y-94165015D01*
X124247618Y-94165015D02*
X124199999Y-94236443D01*
X124961904Y-94093586D02*
X125342856Y-94093586D01*
X125104761Y-93593586D02*
X125104761Y-94879300D01*
X125104761Y-94879300D02*
X125152380Y-95022158D01*
X125152380Y-95022158D02*
X125247618Y-95093586D01*
X125247618Y-95093586D02*
X125342856Y-95093586D01*
X125533333Y-94093586D02*
X125914285Y-94093586D01*
X125676190Y-93593586D02*
X125676190Y-94879300D01*
X125676190Y-94879300D02*
X125723809Y-95022158D01*
X125723809Y-95022158D02*
X125819047Y-95093586D01*
X125819047Y-95093586D02*
X125914285Y-95093586D01*
X126247619Y-94093586D02*
X126247619Y-95593586D01*
X126247619Y-94165015D02*
X126342857Y-94093586D01*
X126342857Y-94093586D02*
X126533333Y-94093586D01*
X126533333Y-94093586D02*
X126628571Y-94165015D01*
X126628571Y-94165015D02*
X126676190Y-94236443D01*
X126676190Y-94236443D02*
X126723809Y-94379300D01*
X126723809Y-94379300D02*
X126723809Y-94807872D01*
X126723809Y-94807872D02*
X126676190Y-94950729D01*
X126676190Y-94950729D02*
X126628571Y-95022158D01*
X126628571Y-95022158D02*
X126533333Y-95093586D01*
X126533333Y-95093586D02*
X126342857Y-95093586D01*
X126342857Y-95093586D02*
X126247619Y-95022158D01*
X127104762Y-95022158D02*
X127200000Y-95093586D01*
X127200000Y-95093586D02*
X127390476Y-95093586D01*
X127390476Y-95093586D02*
X127485714Y-95022158D01*
X127485714Y-95022158D02*
X127533333Y-94879300D01*
X127533333Y-94879300D02*
X127533333Y-94807872D01*
X127533333Y-94807872D02*
X127485714Y-94665015D01*
X127485714Y-94665015D02*
X127390476Y-94593586D01*
X127390476Y-94593586D02*
X127247619Y-94593586D01*
X127247619Y-94593586D02*
X127152381Y-94522158D01*
X127152381Y-94522158D02*
X127104762Y-94379300D01*
X127104762Y-94379300D02*
X127104762Y-94307872D01*
X127104762Y-94307872D02*
X127152381Y-94165015D01*
X127152381Y-94165015D02*
X127247619Y-94093586D01*
X127247619Y-94093586D02*
X127390476Y-94093586D01*
X127390476Y-94093586D02*
X127485714Y-94165015D01*
X127961905Y-94950729D02*
X128009524Y-95022158D01*
X128009524Y-95022158D02*
X127961905Y-95093586D01*
X127961905Y-95093586D02*
X127914286Y-95022158D01*
X127914286Y-95022158D02*
X127961905Y-94950729D01*
X127961905Y-94950729D02*
X127961905Y-95093586D01*
X127961905Y-94165015D02*
X128009524Y-94236443D01*
X128009524Y-94236443D02*
X127961905Y-94307872D01*
X127961905Y-94307872D02*
X127914286Y-94236443D01*
X127914286Y-94236443D02*
X127961905Y-94165015D01*
X127961905Y-94165015D02*
X127961905Y-94307872D01*
X129152380Y-93522158D02*
X128295238Y-95450729D01*
X130199999Y-93522158D02*
X129342857Y-95450729D01*
X130533333Y-95093586D02*
X130533333Y-94093586D01*
X130533333Y-94379300D02*
X130580952Y-94236443D01*
X130580952Y-94236443D02*
X130628571Y-94165015D01*
X130628571Y-94165015D02*
X130723809Y-94093586D01*
X130723809Y-94093586D02*
X130819047Y-94093586D01*
X131533333Y-95022158D02*
X131438095Y-95093586D01*
X131438095Y-95093586D02*
X131247619Y-95093586D01*
X131247619Y-95093586D02*
X131152381Y-95022158D01*
X131152381Y-95022158D02*
X131104762Y-94879300D01*
X131104762Y-94879300D02*
X131104762Y-94307872D01*
X131104762Y-94307872D02*
X131152381Y-94165015D01*
X131152381Y-94165015D02*
X131247619Y-94093586D01*
X131247619Y-94093586D02*
X131438095Y-94093586D01*
X131438095Y-94093586D02*
X131533333Y-94165015D01*
X131533333Y-94165015D02*
X131580952Y-94307872D01*
X131580952Y-94307872D02*
X131580952Y-94450729D01*
X131580952Y-94450729D02*
X131104762Y-94593586D01*
X132438095Y-95093586D02*
X132438095Y-94307872D01*
X132438095Y-94307872D02*
X132390476Y-94165015D01*
X132390476Y-94165015D02*
X132295238Y-94093586D01*
X132295238Y-94093586D02*
X132104762Y-94093586D01*
X132104762Y-94093586D02*
X132009524Y-94165015D01*
X132438095Y-95022158D02*
X132342857Y-95093586D01*
X132342857Y-95093586D02*
X132104762Y-95093586D01*
X132104762Y-95093586D02*
X132009524Y-95022158D01*
X132009524Y-95022158D02*
X131961905Y-94879300D01*
X131961905Y-94879300D02*
X131961905Y-94736443D01*
X131961905Y-94736443D02*
X132009524Y-94593586D01*
X132009524Y-94593586D02*
X132104762Y-94522158D01*
X132104762Y-94522158D02*
X132342857Y-94522158D01*
X132342857Y-94522158D02*
X132438095Y-94450729D01*
X133057143Y-95093586D02*
X132961905Y-95022158D01*
X132961905Y-95022158D02*
X132914286Y-94879300D01*
X132914286Y-94879300D02*
X132914286Y-93593586D01*
X133580953Y-95093586D02*
X133485715Y-95022158D01*
X133485715Y-95022158D02*
X133438096Y-94879300D01*
X133438096Y-94879300D02*
X133438096Y-93593586D01*
X133961906Y-95093586D02*
X133961906Y-94093586D01*
X133961906Y-93593586D02*
X133914287Y-93665015D01*
X133914287Y-93665015D02*
X133961906Y-93736443D01*
X133961906Y-93736443D02*
X134009525Y-93665015D01*
X134009525Y-93665015D02*
X133961906Y-93593586D01*
X133961906Y-93593586D02*
X133961906Y-93736443D01*
X134295239Y-94093586D02*
X134676191Y-94093586D01*
X134438096Y-95093586D02*
X134438096Y-93807872D01*
X134438096Y-93807872D02*
X134485715Y-93665015D01*
X134485715Y-93665015D02*
X134580953Y-93593586D01*
X134580953Y-93593586D02*
X134676191Y-93593586D01*
X135390477Y-95022158D02*
X135295239Y-95093586D01*
X135295239Y-95093586D02*
X135104763Y-95093586D01*
X135104763Y-95093586D02*
X135009525Y-95022158D01*
X135009525Y-95022158D02*
X134961906Y-94879300D01*
X134961906Y-94879300D02*
X134961906Y-94307872D01*
X134961906Y-94307872D02*
X135009525Y-94165015D01*
X135009525Y-94165015D02*
X135104763Y-94093586D01*
X135104763Y-94093586D02*
X135295239Y-94093586D01*
X135295239Y-94093586D02*
X135390477Y-94165015D01*
X135390477Y-94165015D02*
X135438096Y-94307872D01*
X135438096Y-94307872D02*
X135438096Y-94450729D01*
X135438096Y-94450729D02*
X134961906Y-94593586D01*
X136295239Y-95093586D02*
X136295239Y-94307872D01*
X136295239Y-94307872D02*
X136247620Y-94165015D01*
X136247620Y-94165015D02*
X136152382Y-94093586D01*
X136152382Y-94093586D02*
X135961906Y-94093586D01*
X135961906Y-94093586D02*
X135866668Y-94165015D01*
X136295239Y-95022158D02*
X136200001Y-95093586D01*
X136200001Y-95093586D02*
X135961906Y-95093586D01*
X135961906Y-95093586D02*
X135866668Y-95022158D01*
X135866668Y-95022158D02*
X135819049Y-94879300D01*
X135819049Y-94879300D02*
X135819049Y-94736443D01*
X135819049Y-94736443D02*
X135866668Y-94593586D01*
X135866668Y-94593586D02*
X135961906Y-94522158D01*
X135961906Y-94522158D02*
X136200001Y-94522158D01*
X136200001Y-94522158D02*
X136295239Y-94450729D01*
X136723811Y-95022158D02*
X136819049Y-95093586D01*
X136819049Y-95093586D02*
X137009525Y-95093586D01*
X137009525Y-95093586D02*
X137104763Y-95022158D01*
X137104763Y-95022158D02*
X137152382Y-94879300D01*
X137152382Y-94879300D02*
X137152382Y-94807872D01*
X137152382Y-94807872D02*
X137104763Y-94665015D01*
X137104763Y-94665015D02*
X137009525Y-94593586D01*
X137009525Y-94593586D02*
X136866668Y-94593586D01*
X136866668Y-94593586D02*
X136771430Y-94522158D01*
X136771430Y-94522158D02*
X136723811Y-94379300D01*
X136723811Y-94379300D02*
X136723811Y-94307872D01*
X136723811Y-94307872D02*
X136771430Y-94165015D01*
X136771430Y-94165015D02*
X136866668Y-94093586D01*
X136866668Y-94093586D02*
X137009525Y-94093586D01*
X137009525Y-94093586D02*
X137104763Y-94165015D01*
X138009525Y-95022158D02*
X137914287Y-95093586D01*
X137914287Y-95093586D02*
X137723811Y-95093586D01*
X137723811Y-95093586D02*
X137628573Y-95022158D01*
X137628573Y-95022158D02*
X137580954Y-94950729D01*
X137580954Y-94950729D02*
X137533335Y-94807872D01*
X137533335Y-94807872D02*
X137533335Y-94379300D01*
X137533335Y-94379300D02*
X137580954Y-94236443D01*
X137580954Y-94236443D02*
X137628573Y-94165015D01*
X137628573Y-94165015D02*
X137723811Y-94093586D01*
X137723811Y-94093586D02*
X137914287Y-94093586D01*
X137914287Y-94093586D02*
X138009525Y-94165015D01*
X138580954Y-95093586D02*
X138485716Y-95022158D01*
X138485716Y-95022158D02*
X138438097Y-94950729D01*
X138438097Y-94950729D02*
X138390478Y-94807872D01*
X138390478Y-94807872D02*
X138390478Y-94379300D01*
X138390478Y-94379300D02*
X138438097Y-94236443D01*
X138438097Y-94236443D02*
X138485716Y-94165015D01*
X138485716Y-94165015D02*
X138580954Y-94093586D01*
X138580954Y-94093586D02*
X138723811Y-94093586D01*
X138723811Y-94093586D02*
X138819049Y-94165015D01*
X138819049Y-94165015D02*
X138866668Y-94236443D01*
X138866668Y-94236443D02*
X138914287Y-94379300D01*
X138914287Y-94379300D02*
X138914287Y-94807872D01*
X138914287Y-94807872D02*
X138866668Y-94950729D01*
X138866668Y-94950729D02*
X138819049Y-95022158D01*
X138819049Y-95022158D02*
X138723811Y-95093586D01*
X138723811Y-95093586D02*
X138580954Y-95093586D01*
X139771430Y-95093586D02*
X139771430Y-93593586D01*
X139771430Y-95022158D02*
X139676192Y-95093586D01*
X139676192Y-95093586D02*
X139485716Y-95093586D01*
X139485716Y-95093586D02*
X139390478Y-95022158D01*
X139390478Y-95022158D02*
X139342859Y-94950729D01*
X139342859Y-94950729D02*
X139295240Y-94807872D01*
X139295240Y-94807872D02*
X139295240Y-94379300D01*
X139295240Y-94379300D02*
X139342859Y-94236443D01*
X139342859Y-94236443D02*
X139390478Y-94165015D01*
X139390478Y-94165015D02*
X139485716Y-94093586D01*
X139485716Y-94093586D02*
X139676192Y-94093586D01*
X139676192Y-94093586D02*
X139771430Y-94165015D01*
X140628573Y-95022158D02*
X140533335Y-95093586D01*
X140533335Y-95093586D02*
X140342859Y-95093586D01*
X140342859Y-95093586D02*
X140247621Y-95022158D01*
X140247621Y-95022158D02*
X140200002Y-94879300D01*
X140200002Y-94879300D02*
X140200002Y-94307872D01*
X140200002Y-94307872D02*
X140247621Y-94165015D01*
X140247621Y-94165015D02*
X140342859Y-94093586D01*
X140342859Y-94093586D02*
X140533335Y-94093586D01*
X140533335Y-94093586D02*
X140628573Y-94165015D01*
X140628573Y-94165015D02*
X140676192Y-94307872D01*
X140676192Y-94307872D02*
X140676192Y-94450729D01*
X140676192Y-94450729D02*
X140200002Y-94593586D01*
X141104764Y-94950729D02*
X141152383Y-95022158D01*
X141152383Y-95022158D02*
X141104764Y-95093586D01*
X141104764Y-95093586D02*
X141057145Y-95022158D01*
X141057145Y-95022158D02*
X141104764Y-94950729D01*
X141104764Y-94950729D02*
X141104764Y-95093586D01*
X142009525Y-95022158D02*
X141914287Y-95093586D01*
X141914287Y-95093586D02*
X141723811Y-95093586D01*
X141723811Y-95093586D02*
X141628573Y-95022158D01*
X141628573Y-95022158D02*
X141580954Y-94950729D01*
X141580954Y-94950729D02*
X141533335Y-94807872D01*
X141533335Y-94807872D02*
X141533335Y-94379300D01*
X141533335Y-94379300D02*
X141580954Y-94236443D01*
X141580954Y-94236443D02*
X141628573Y-94165015D01*
X141628573Y-94165015D02*
X141723811Y-94093586D01*
X141723811Y-94093586D02*
X141914287Y-94093586D01*
X141914287Y-94093586D02*
X142009525Y-94165015D01*
X142580954Y-95093586D02*
X142485716Y-95022158D01*
X142485716Y-95022158D02*
X142438097Y-94950729D01*
X142438097Y-94950729D02*
X142390478Y-94807872D01*
X142390478Y-94807872D02*
X142390478Y-94379300D01*
X142390478Y-94379300D02*
X142438097Y-94236443D01*
X142438097Y-94236443D02*
X142485716Y-94165015D01*
X142485716Y-94165015D02*
X142580954Y-94093586D01*
X142580954Y-94093586D02*
X142723811Y-94093586D01*
X142723811Y-94093586D02*
X142819049Y-94165015D01*
X142819049Y-94165015D02*
X142866668Y-94236443D01*
X142866668Y-94236443D02*
X142914287Y-94379300D01*
X142914287Y-94379300D02*
X142914287Y-94807872D01*
X142914287Y-94807872D02*
X142866668Y-94950729D01*
X142866668Y-94950729D02*
X142819049Y-95022158D01*
X142819049Y-95022158D02*
X142723811Y-95093586D01*
X142723811Y-95093586D02*
X142580954Y-95093586D01*
X143342859Y-95093586D02*
X143342859Y-94093586D01*
X143342859Y-94236443D02*
X143390478Y-94165015D01*
X143390478Y-94165015D02*
X143485716Y-94093586D01*
X143485716Y-94093586D02*
X143628573Y-94093586D01*
X143628573Y-94093586D02*
X143723811Y-94165015D01*
X143723811Y-94165015D02*
X143771430Y-94307872D01*
X143771430Y-94307872D02*
X143771430Y-95093586D01*
X143771430Y-94307872D02*
X143819049Y-94165015D01*
X143819049Y-94165015D02*
X143914287Y-94093586D01*
X143914287Y-94093586D02*
X144057144Y-94093586D01*
X144057144Y-94093586D02*
X144152383Y-94165015D01*
X144152383Y-94165015D02*
X144200002Y-94307872D01*
X144200002Y-94307872D02*
X144200002Y-95093586D01*
X129718095Y-121752242D02*
X129860952Y-121823670D01*
X129860952Y-121823670D02*
X130099047Y-121823670D01*
X130099047Y-121823670D02*
X130194285Y-121752242D01*
X130194285Y-121752242D02*
X130241904Y-121680813D01*
X130241904Y-121680813D02*
X130289523Y-121537956D01*
X130289523Y-121537956D02*
X130289523Y-121395099D01*
X130289523Y-121395099D02*
X130241904Y-121252242D01*
X130241904Y-121252242D02*
X130194285Y-121180813D01*
X130194285Y-121180813D02*
X130099047Y-121109384D01*
X130099047Y-121109384D02*
X129908571Y-121037956D01*
X129908571Y-121037956D02*
X129813333Y-120966527D01*
X129813333Y-120966527D02*
X129765714Y-120895099D01*
X129765714Y-120895099D02*
X129718095Y-120752242D01*
X129718095Y-120752242D02*
X129718095Y-120609384D01*
X129718095Y-120609384D02*
X129765714Y-120466527D01*
X129765714Y-120466527D02*
X129813333Y-120395099D01*
X129813333Y-120395099D02*
X129908571Y-120323670D01*
X129908571Y-120323670D02*
X130146666Y-120323670D01*
X130146666Y-120323670D02*
X130289523Y-120395099D01*
X131099047Y-121752242D02*
X131003809Y-121823670D01*
X131003809Y-121823670D02*
X130813333Y-121823670D01*
X130813333Y-121823670D02*
X130718095Y-121752242D01*
X130718095Y-121752242D02*
X130670476Y-121609384D01*
X130670476Y-121609384D02*
X130670476Y-121037956D01*
X130670476Y-121037956D02*
X130718095Y-120895099D01*
X130718095Y-120895099D02*
X130813333Y-120823670D01*
X130813333Y-120823670D02*
X131003809Y-120823670D01*
X131003809Y-120823670D02*
X131099047Y-120895099D01*
X131099047Y-120895099D02*
X131146666Y-121037956D01*
X131146666Y-121037956D02*
X131146666Y-121180813D01*
X131146666Y-121180813D02*
X130670476Y-121323670D01*
X131956190Y-121752242D02*
X131860952Y-121823670D01*
X131860952Y-121823670D02*
X131670476Y-121823670D01*
X131670476Y-121823670D02*
X131575238Y-121752242D01*
X131575238Y-121752242D02*
X131527619Y-121609384D01*
X131527619Y-121609384D02*
X131527619Y-121037956D01*
X131527619Y-121037956D02*
X131575238Y-120895099D01*
X131575238Y-120895099D02*
X131670476Y-120823670D01*
X131670476Y-120823670D02*
X131860952Y-120823670D01*
X131860952Y-120823670D02*
X131956190Y-120895099D01*
X131956190Y-120895099D02*
X132003809Y-121037956D01*
X132003809Y-121037956D02*
X132003809Y-121180813D01*
X132003809Y-121180813D02*
X131527619Y-121323670D01*
X132813333Y-121752242D02*
X132718095Y-121823670D01*
X132718095Y-121823670D02*
X132527619Y-121823670D01*
X132527619Y-121823670D02*
X132432381Y-121752242D01*
X132432381Y-121752242D02*
X132384762Y-121609384D01*
X132384762Y-121609384D02*
X132384762Y-121037956D01*
X132384762Y-121037956D02*
X132432381Y-120895099D01*
X132432381Y-120895099D02*
X132527619Y-120823670D01*
X132527619Y-120823670D02*
X132718095Y-120823670D01*
X132718095Y-120823670D02*
X132813333Y-120895099D01*
X132813333Y-120895099D02*
X132860952Y-121037956D01*
X132860952Y-121037956D02*
X132860952Y-121180813D01*
X132860952Y-121180813D02*
X132384762Y-121323670D01*
X133718095Y-121823670D02*
X133718095Y-120323670D01*
X133718095Y-121752242D02*
X133622857Y-121823670D01*
X133622857Y-121823670D02*
X133432381Y-121823670D01*
X133432381Y-121823670D02*
X133337143Y-121752242D01*
X133337143Y-121752242D02*
X133289524Y-121680813D01*
X133289524Y-121680813D02*
X133241905Y-121537956D01*
X133241905Y-121537956D02*
X133241905Y-121109384D01*
X133241905Y-121109384D02*
X133289524Y-120966527D01*
X133289524Y-120966527D02*
X133337143Y-120895099D01*
X133337143Y-120895099D02*
X133432381Y-120823670D01*
X133432381Y-120823670D02*
X133622857Y-120823670D01*
X133622857Y-120823670D02*
X133718095Y-120895099D01*
X134908572Y-121752242D02*
X135051429Y-121823670D01*
X135051429Y-121823670D02*
X135289524Y-121823670D01*
X135289524Y-121823670D02*
X135384762Y-121752242D01*
X135384762Y-121752242D02*
X135432381Y-121680813D01*
X135432381Y-121680813D02*
X135480000Y-121537956D01*
X135480000Y-121537956D02*
X135480000Y-121395099D01*
X135480000Y-121395099D02*
X135432381Y-121252242D01*
X135432381Y-121252242D02*
X135384762Y-121180813D01*
X135384762Y-121180813D02*
X135289524Y-121109384D01*
X135289524Y-121109384D02*
X135099048Y-121037956D01*
X135099048Y-121037956D02*
X135003810Y-120966527D01*
X135003810Y-120966527D02*
X134956191Y-120895099D01*
X134956191Y-120895099D02*
X134908572Y-120752242D01*
X134908572Y-120752242D02*
X134908572Y-120609384D01*
X134908572Y-120609384D02*
X134956191Y-120466527D01*
X134956191Y-120466527D02*
X135003810Y-120395099D01*
X135003810Y-120395099D02*
X135099048Y-120323670D01*
X135099048Y-120323670D02*
X135337143Y-120323670D01*
X135337143Y-120323670D02*
X135480000Y-120395099D01*
X135765715Y-120823670D02*
X136146667Y-120823670D01*
X135908572Y-120323670D02*
X135908572Y-121609384D01*
X135908572Y-121609384D02*
X135956191Y-121752242D01*
X135956191Y-121752242D02*
X136051429Y-121823670D01*
X136051429Y-121823670D02*
X136146667Y-121823670D01*
X136908572Y-120823670D02*
X136908572Y-121823670D01*
X136480001Y-120823670D02*
X136480001Y-121609384D01*
X136480001Y-121609384D02*
X136527620Y-121752242D01*
X136527620Y-121752242D02*
X136622858Y-121823670D01*
X136622858Y-121823670D02*
X136765715Y-121823670D01*
X136765715Y-121823670D02*
X136860953Y-121752242D01*
X136860953Y-121752242D02*
X136908572Y-121680813D01*
X137813334Y-121823670D02*
X137813334Y-120323670D01*
X137813334Y-121752242D02*
X137718096Y-121823670D01*
X137718096Y-121823670D02*
X137527620Y-121823670D01*
X137527620Y-121823670D02*
X137432382Y-121752242D01*
X137432382Y-121752242D02*
X137384763Y-121680813D01*
X137384763Y-121680813D02*
X137337144Y-121537956D01*
X137337144Y-121537956D02*
X137337144Y-121109384D01*
X137337144Y-121109384D02*
X137384763Y-120966527D01*
X137384763Y-120966527D02*
X137432382Y-120895099D01*
X137432382Y-120895099D02*
X137527620Y-120823670D01*
X137527620Y-120823670D02*
X137718096Y-120823670D01*
X137718096Y-120823670D02*
X137813334Y-120895099D01*
X138289525Y-121823670D02*
X138289525Y-120823670D01*
X138289525Y-120323670D02*
X138241906Y-120395099D01*
X138241906Y-120395099D02*
X138289525Y-120466527D01*
X138289525Y-120466527D02*
X138337144Y-120395099D01*
X138337144Y-120395099D02*
X138289525Y-120323670D01*
X138289525Y-120323670D02*
X138289525Y-120466527D01*
X138908572Y-121823670D02*
X138813334Y-121752242D01*
X138813334Y-121752242D02*
X138765715Y-121680813D01*
X138765715Y-121680813D02*
X138718096Y-121537956D01*
X138718096Y-121537956D02*
X138718096Y-121109384D01*
X138718096Y-121109384D02*
X138765715Y-120966527D01*
X138765715Y-120966527D02*
X138813334Y-120895099D01*
X138813334Y-120895099D02*
X138908572Y-120823670D01*
X138908572Y-120823670D02*
X139051429Y-120823670D01*
X139051429Y-120823670D02*
X139146667Y-120895099D01*
X139146667Y-120895099D02*
X139194286Y-120966527D01*
X139194286Y-120966527D02*
X139241905Y-121109384D01*
X139241905Y-121109384D02*
X139241905Y-121537956D01*
X139241905Y-121537956D02*
X139194286Y-121680813D01*
X139194286Y-121680813D02*
X139146667Y-121752242D01*
X139146667Y-121752242D02*
X139051429Y-121823670D01*
X139051429Y-121823670D02*
X138908572Y-121823670D01*
X129241905Y-122738586D02*
X129908571Y-124238586D01*
X129908571Y-122738586D02*
X129241905Y-124238586D01*
X130289524Y-124238586D02*
X130289524Y-122738586D01*
X130718095Y-123810015D02*
X131194285Y-123810015D01*
X130622857Y-124238586D02*
X130956190Y-122738586D01*
X130956190Y-122738586D02*
X131289523Y-124238586D01*
X131813333Y-122738586D02*
X132003809Y-122738586D01*
X132003809Y-122738586D02*
X132099047Y-122810015D01*
X132099047Y-122810015D02*
X132194285Y-122952872D01*
X132194285Y-122952872D02*
X132241904Y-123238586D01*
X132241904Y-123238586D02*
X132241904Y-123738586D01*
X132241904Y-123738586D02*
X132194285Y-124024300D01*
X132194285Y-124024300D02*
X132099047Y-124167158D01*
X132099047Y-124167158D02*
X132003809Y-124238586D01*
X132003809Y-124238586D02*
X131813333Y-124238586D01*
X131813333Y-124238586D02*
X131718095Y-124167158D01*
X131718095Y-124167158D02*
X131622857Y-124024300D01*
X131622857Y-124024300D02*
X131575238Y-123738586D01*
X131575238Y-123738586D02*
X131575238Y-123238586D01*
X131575238Y-123238586D02*
X131622857Y-122952872D01*
X131622857Y-122952872D02*
X131718095Y-122810015D01*
X131718095Y-122810015D02*
X131813333Y-122738586D01*
X133432381Y-123452872D02*
X133765714Y-123452872D01*
X133908571Y-124238586D02*
X133432381Y-124238586D01*
X133432381Y-124238586D02*
X133432381Y-122738586D01*
X133432381Y-122738586D02*
X133908571Y-122738586D01*
X134289524Y-124167158D02*
X134432381Y-124238586D01*
X134432381Y-124238586D02*
X134670476Y-124238586D01*
X134670476Y-124238586D02*
X134765714Y-124167158D01*
X134765714Y-124167158D02*
X134813333Y-124095729D01*
X134813333Y-124095729D02*
X134860952Y-123952872D01*
X134860952Y-123952872D02*
X134860952Y-123810015D01*
X134860952Y-123810015D02*
X134813333Y-123667158D01*
X134813333Y-123667158D02*
X134765714Y-123595729D01*
X134765714Y-123595729D02*
X134670476Y-123524300D01*
X134670476Y-123524300D02*
X134480000Y-123452872D01*
X134480000Y-123452872D02*
X134384762Y-123381443D01*
X134384762Y-123381443D02*
X134337143Y-123310015D01*
X134337143Y-123310015D02*
X134289524Y-123167158D01*
X134289524Y-123167158D02*
X134289524Y-123024300D01*
X134289524Y-123024300D02*
X134337143Y-122881443D01*
X134337143Y-122881443D02*
X134384762Y-122810015D01*
X134384762Y-122810015D02*
X134480000Y-122738586D01*
X134480000Y-122738586D02*
X134718095Y-122738586D01*
X134718095Y-122738586D02*
X134860952Y-122810015D01*
X135289524Y-124238586D02*
X135289524Y-122738586D01*
X135289524Y-122738586D02*
X135670476Y-122738586D01*
X135670476Y-122738586D02*
X135765714Y-122810015D01*
X135765714Y-122810015D02*
X135813333Y-122881443D01*
X135813333Y-122881443D02*
X135860952Y-123024300D01*
X135860952Y-123024300D02*
X135860952Y-123238586D01*
X135860952Y-123238586D02*
X135813333Y-123381443D01*
X135813333Y-123381443D02*
X135765714Y-123452872D01*
X135765714Y-123452872D02*
X135670476Y-123524300D01*
X135670476Y-123524300D02*
X135289524Y-123524300D01*
X136194286Y-122738586D02*
X136813333Y-122738586D01*
X136813333Y-122738586D02*
X136480000Y-123310015D01*
X136480000Y-123310015D02*
X136622857Y-123310015D01*
X136622857Y-123310015D02*
X136718095Y-123381443D01*
X136718095Y-123381443D02*
X136765714Y-123452872D01*
X136765714Y-123452872D02*
X136813333Y-123595729D01*
X136813333Y-123595729D02*
X136813333Y-123952872D01*
X136813333Y-123952872D02*
X136765714Y-124095729D01*
X136765714Y-124095729D02*
X136718095Y-124167158D01*
X136718095Y-124167158D02*
X136622857Y-124238586D01*
X136622857Y-124238586D02*
X136337143Y-124238586D01*
X136337143Y-124238586D02*
X136241905Y-124167158D01*
X136241905Y-124167158D02*
X136194286Y-124095729D01*
X137194286Y-122881443D02*
X137241905Y-122810015D01*
X137241905Y-122810015D02*
X137337143Y-122738586D01*
X137337143Y-122738586D02*
X137575238Y-122738586D01*
X137575238Y-122738586D02*
X137670476Y-122810015D01*
X137670476Y-122810015D02*
X137718095Y-122881443D01*
X137718095Y-122881443D02*
X137765714Y-123024300D01*
X137765714Y-123024300D02*
X137765714Y-123167158D01*
X137765714Y-123167158D02*
X137718095Y-123381443D01*
X137718095Y-123381443D02*
X137146667Y-124238586D01*
X137146667Y-124238586D02*
X137765714Y-124238586D01*
X138146667Y-124167158D02*
X138289524Y-124238586D01*
X138289524Y-124238586D02*
X138527619Y-124238586D01*
X138527619Y-124238586D02*
X138622857Y-124167158D01*
X138622857Y-124167158D02*
X138670476Y-124095729D01*
X138670476Y-124095729D02*
X138718095Y-123952872D01*
X138718095Y-123952872D02*
X138718095Y-123810015D01*
X138718095Y-123810015D02*
X138670476Y-123667158D01*
X138670476Y-123667158D02*
X138622857Y-123595729D01*
X138622857Y-123595729D02*
X138527619Y-123524300D01*
X138527619Y-123524300D02*
X138337143Y-123452872D01*
X138337143Y-123452872D02*
X138241905Y-123381443D01*
X138241905Y-123381443D02*
X138194286Y-123310015D01*
X138194286Y-123310015D02*
X138146667Y-123167158D01*
X138146667Y-123167158D02*
X138146667Y-123024300D01*
X138146667Y-123024300D02*
X138194286Y-122881443D01*
X138194286Y-122881443D02*
X138241905Y-122810015D01*
X138241905Y-122810015D02*
X138337143Y-122738586D01*
X138337143Y-122738586D02*
X138575238Y-122738586D01*
X138575238Y-122738586D02*
X138718095Y-122810015D01*
X139051429Y-122738586D02*
X139670476Y-122738586D01*
X139670476Y-122738586D02*
X139337143Y-123310015D01*
X139337143Y-123310015D02*
X139480000Y-123310015D01*
X139480000Y-123310015D02*
X139575238Y-123381443D01*
X139575238Y-123381443D02*
X139622857Y-123452872D01*
X139622857Y-123452872D02*
X139670476Y-123595729D01*
X139670476Y-123595729D02*
X139670476Y-123952872D01*
X139670476Y-123952872D02*
X139622857Y-124095729D01*
X139622857Y-124095729D02*
X139575238Y-124167158D01*
X139575238Y-124167158D02*
X139480000Y-124238586D01*
X139480000Y-124238586D02*
X139194286Y-124238586D01*
X139194286Y-124238586D02*
X139099048Y-124167158D01*
X139099048Y-124167158D02*
X139051429Y-124095729D01*
X134238095Y-133986128D02*
X134238095Y-135200414D01*
X134238095Y-135200414D02*
X134285714Y-135343271D01*
X134285714Y-135343271D02*
X134333333Y-135414700D01*
X134333333Y-135414700D02*
X134428571Y-135486128D01*
X134428571Y-135486128D02*
X134619047Y-135486128D01*
X134619047Y-135486128D02*
X134714285Y-135414700D01*
X134714285Y-135414700D02*
X134761904Y-135343271D01*
X134761904Y-135343271D02*
X134809523Y-135200414D01*
X134809523Y-135200414D02*
X134809523Y-133986128D01*
X135809523Y-135486128D02*
X135238095Y-135486128D01*
X135523809Y-135486128D02*
X135523809Y-133986128D01*
X135523809Y-133986128D02*
X135428571Y-134200414D01*
X135428571Y-134200414D02*
X135333333Y-134343271D01*
X135333333Y-134343271D02*
X135238095Y-134414700D01*
X147859891Y-79388007D02*
X147786546Y-79432619D01*
X147786546Y-79432619D02*
X147626886Y-79436981D01*
X147626886Y-79436981D02*
X147540571Y-79396732D01*
X147540571Y-79396732D02*
X147441286Y-79271621D01*
X147441286Y-79271621D02*
X147415345Y-79101899D01*
X147415345Y-79101899D02*
X147432561Y-78952302D01*
X147432561Y-78952302D02*
X147510152Y-78673232D01*
X147510152Y-78673232D02*
X147600713Y-78479024D01*
X147600713Y-78479024D02*
X147764619Y-78240203D01*
X147764619Y-78240203D02*
X147868150Y-78130855D01*
X147868150Y-78130855D02*
X148014839Y-78041632D01*
X148014839Y-78041632D02*
X148174499Y-78037270D01*
X148174499Y-78037270D02*
X148260814Y-78077519D01*
X148260814Y-78077519D02*
X148360099Y-78202630D01*
X148360099Y-78202630D02*
X148373070Y-78287490D01*
X148187934Y-79698602D02*
X148821862Y-78339140D01*
X148519991Y-78986503D02*
X149037881Y-79227999D01*
X148705824Y-79940098D02*
X149339752Y-78580636D01*
X149943957Y-78862382D02*
X150030272Y-78902631D01*
X150030272Y-78902631D02*
X150086400Y-79007617D01*
X150086400Y-79007617D02*
X150099370Y-79092478D01*
X150099370Y-79092478D02*
X150082154Y-79242075D01*
X150082154Y-79242075D02*
X150004563Y-79521145D01*
X150004563Y-79521145D02*
X149853628Y-79844826D01*
X149853628Y-79844826D02*
X149689723Y-80083646D01*
X149689723Y-80083646D02*
X149586191Y-80192994D01*
X149586191Y-80192994D02*
X149512846Y-80237606D01*
X149512846Y-80237606D02*
X149396344Y-80262093D01*
X149396344Y-80262093D02*
X149310029Y-80221843D01*
X149310029Y-80221843D02*
X149253901Y-80116858D01*
X149253901Y-80116858D02*
X149240931Y-80031997D01*
X149240931Y-80031997D02*
X149258147Y-79882400D01*
X149258147Y-79882400D02*
X149335738Y-79603330D01*
X149335738Y-79603330D02*
X149486673Y-79279648D01*
X149486673Y-79279648D02*
X149650579Y-79040828D01*
X149650579Y-79040828D02*
X149754110Y-78931480D01*
X149754110Y-78931480D02*
X149827455Y-78886869D01*
X149827455Y-78886869D02*
X149943957Y-78862382D01*
X151066052Y-79385623D02*
X150634477Y-79184377D01*
X150634477Y-79184377D02*
X150289449Y-79811615D01*
X150289449Y-79811615D02*
X150362794Y-79767003D01*
X150362794Y-79767003D02*
X150479296Y-79742516D01*
X150479296Y-79742516D02*
X150695084Y-79843139D01*
X150695084Y-79843139D02*
X150751212Y-79948125D01*
X150751212Y-79948125D02*
X150764182Y-80032986D01*
X150764182Y-80032986D02*
X150746966Y-80182583D01*
X150746966Y-80182583D02*
X150596030Y-80506265D01*
X150596030Y-80506265D02*
X150492499Y-80615612D01*
X150492499Y-80615612D02*
X150419154Y-80660224D01*
X150419154Y-80660224D02*
X150302652Y-80684711D01*
X150302652Y-80684711D02*
X150086865Y-80584088D01*
X150086865Y-80584088D02*
X150030737Y-80479102D01*
X150030737Y-80479102D02*
X150017766Y-80394241D01*
X150863700Y-80946332D02*
X151497627Y-79586870D01*
X151497627Y-79586870D02*
X151713415Y-79687494D01*
X151713415Y-79687494D02*
X151812700Y-79812604D01*
X151812700Y-79812604D02*
X151838641Y-79982326D01*
X151838641Y-79982326D02*
X151821425Y-80131923D01*
X151821425Y-80131923D02*
X151743834Y-80410993D01*
X151743834Y-80410993D02*
X151653273Y-80605202D01*
X151653273Y-80605202D02*
X151489368Y-80844022D01*
X151489368Y-80844022D02*
X151385836Y-80953370D01*
X151385836Y-80953370D02*
X151239147Y-81042593D01*
X151239147Y-81042593D02*
X151079488Y-81046955D01*
X151079488Y-81046955D02*
X150863700Y-80946332D01*
X160686900Y-107572243D02*
X161320828Y-106212781D01*
X161320828Y-106212781D02*
X161666088Y-106373779D01*
X161666088Y-106373779D02*
X161722216Y-106478764D01*
X161722216Y-106478764D02*
X161735186Y-106563625D01*
X161735186Y-106563625D02*
X161717970Y-106713222D01*
X161717970Y-106713222D02*
X161627409Y-106907431D01*
X161627409Y-106907431D02*
X161523877Y-107016779D01*
X161523877Y-107016779D02*
X161450533Y-107061391D01*
X161450533Y-107061391D02*
X161334031Y-107085878D01*
X161334031Y-107085878D02*
X160988771Y-106924880D01*
X162171472Y-108106885D02*
X162098128Y-108151496D01*
X162098128Y-108151496D02*
X161938468Y-108155859D01*
X161938468Y-108155859D02*
X161852153Y-108115609D01*
X161852153Y-108115609D02*
X161752868Y-107990499D01*
X161752868Y-107990499D02*
X161726927Y-107820777D01*
X161726927Y-107820777D02*
X161744143Y-107671180D01*
X161744143Y-107671180D02*
X161821734Y-107392110D01*
X161821734Y-107392110D02*
X161912295Y-107197901D01*
X161912295Y-107197901D02*
X162076200Y-106959081D01*
X162076200Y-106959081D02*
X162179732Y-106849733D01*
X162179732Y-106849733D02*
X162326421Y-106760510D01*
X162326421Y-106760510D02*
X162486081Y-106756147D01*
X162486081Y-106756147D02*
X162572396Y-106796397D01*
X162572396Y-106796397D02*
X162671681Y-106921507D01*
X162671681Y-106921507D02*
X162684652Y-107006368D01*
X162499516Y-108417479D02*
X163133443Y-107058018D01*
X163133443Y-107058018D02*
X162982741Y-108169934D01*
X162982741Y-108169934D02*
X163737649Y-107339763D01*
X163737649Y-107339763D02*
X163103721Y-108699225D01*
X164600799Y-107742257D02*
X164169224Y-107541010D01*
X164169224Y-107541010D02*
X163824196Y-108168248D01*
X163824196Y-108168248D02*
X163897540Y-108123636D01*
X163897540Y-108123636D02*
X164014042Y-108099149D01*
X164014042Y-108099149D02*
X164229830Y-108199773D01*
X164229830Y-108199773D02*
X164285958Y-108304758D01*
X164285958Y-108304758D02*
X164298929Y-108389619D01*
X164298929Y-108389619D02*
X164281712Y-108539217D01*
X164281712Y-108539217D02*
X164130777Y-108862898D01*
X164130777Y-108862898D02*
X164027245Y-108972246D01*
X164027245Y-108972246D02*
X163953901Y-109016857D01*
X163953901Y-109016857D02*
X163837399Y-109041344D01*
X163837399Y-109041344D02*
X163621611Y-108940721D01*
X163621611Y-108940721D02*
X163565483Y-108835735D01*
X163565483Y-108835735D02*
X163552513Y-108750874D01*
X164873179Y-109524337D02*
X164355289Y-109282841D01*
X164614234Y-109403589D02*
X165248161Y-108044127D01*
X165248161Y-108044127D02*
X165071285Y-108198086D01*
X165071285Y-108198086D02*
X164924596Y-108287310D01*
X164924596Y-108287310D02*
X164808094Y-108311796D01*
X166068154Y-108426496D02*
X166154469Y-108466745D01*
X166154469Y-108466745D02*
X166210597Y-108571731D01*
X166210597Y-108571731D02*
X166223568Y-108656592D01*
X166223568Y-108656592D02*
X166206351Y-108806189D01*
X166206351Y-108806189D02*
X166128761Y-109085259D01*
X166128761Y-109085259D02*
X165977826Y-109408940D01*
X165977826Y-109408940D02*
X165813920Y-109647761D01*
X165813920Y-109647761D02*
X165710388Y-109757108D01*
X165710388Y-109757108D02*
X165637044Y-109801720D01*
X165637044Y-109801720D02*
X165520542Y-109826207D01*
X165520542Y-109826207D02*
X165434227Y-109785958D01*
X165434227Y-109785958D02*
X165378099Y-109680972D01*
X165378099Y-109680972D02*
X165365128Y-109596111D01*
X165365128Y-109596111D02*
X165382345Y-109446514D01*
X165382345Y-109446514D02*
X165459935Y-109167444D01*
X165459935Y-109167444D02*
X165610871Y-108843763D01*
X165610871Y-108843763D02*
X165774776Y-108604942D01*
X165774776Y-108604942D02*
X165878308Y-108495594D01*
X165878308Y-108495594D02*
X165951652Y-108450983D01*
X165951652Y-108450983D02*
X166068154Y-108426496D01*
X166655143Y-108857839D02*
X166728487Y-108813227D01*
X166728487Y-108813227D02*
X166844990Y-108788740D01*
X166844990Y-108788740D02*
X167060777Y-108889363D01*
X167060777Y-108889363D02*
X167116905Y-108994349D01*
X167116905Y-108994349D02*
X167129876Y-109079210D01*
X167129876Y-109079210D02*
X167112659Y-109228807D01*
X167112659Y-109228807D02*
X167052285Y-109358280D01*
X167052285Y-109358280D02*
X166918566Y-109532364D01*
X166918566Y-109532364D02*
X166038432Y-110067703D01*
X166038432Y-110067703D02*
X166599480Y-110329324D01*
X167125862Y-110101904D02*
X167557437Y-110303150D01*
X166858425Y-110450072D02*
X167794455Y-109231483D01*
X167794455Y-109231483D02*
X167462630Y-110731817D01*
X160553436Y-85140387D02*
X160040257Y-86240903D01*
X160040257Y-86240903D02*
X160023040Y-86390500D01*
X160023040Y-86390500D02*
X160036011Y-86475361D01*
X160036011Y-86475361D02*
X160092139Y-86580347D01*
X160092139Y-86580347D02*
X160264769Y-86660846D01*
X160264769Y-86660846D02*
X160381271Y-86636359D01*
X160381271Y-86636359D02*
X160454616Y-86591747D01*
X160454616Y-86591747D02*
X160558147Y-86482399D01*
X160558147Y-86482399D02*
X161071326Y-85381883D01*
X161416586Y-85542880D02*
X161977634Y-85804501D01*
X161977634Y-85804501D02*
X161434035Y-86181518D01*
X161434035Y-86181518D02*
X161563508Y-86241892D01*
X161563508Y-86241892D02*
X161619636Y-86346878D01*
X161619636Y-86346878D02*
X161632606Y-86431739D01*
X161632606Y-86431739D02*
X161615390Y-86581336D01*
X161615390Y-86581336D02*
X161464455Y-86905018D01*
X161464455Y-86905018D02*
X161360923Y-87014365D01*
X161360923Y-87014365D02*
X161287579Y-87058977D01*
X161287579Y-87058977D02*
X161171077Y-87083464D01*
X161171077Y-87083464D02*
X160912132Y-86962716D01*
X160912132Y-86962716D02*
X160856004Y-86857730D01*
X160856004Y-86857730D02*
X160843033Y-86772869D01*
X152813916Y-90452120D02*
X152913201Y-90577230D01*
X152913201Y-90577230D02*
X153128989Y-90677853D01*
X153128989Y-90677853D02*
X153245491Y-90653367D01*
X153245491Y-90653367D02*
X153318835Y-90608755D01*
X153318835Y-90608755D02*
X153422367Y-90499407D01*
X153422367Y-90499407D02*
X153482741Y-90369935D01*
X153482741Y-90369935D02*
X153499957Y-90220337D01*
X153499957Y-90220337D02*
X153486987Y-90135476D01*
X153486987Y-90135476D02*
X153430859Y-90030491D01*
X153430859Y-90030491D02*
X153288416Y-89885256D01*
X153288416Y-89885256D02*
X153232288Y-89780270D01*
X153232288Y-89780270D02*
X153219317Y-89695409D01*
X153219317Y-89695409D02*
X153236534Y-89545812D01*
X153236534Y-89545812D02*
X153296908Y-89416339D01*
X153296908Y-89416339D02*
X153400439Y-89306992D01*
X153400439Y-89306992D02*
X153473784Y-89262380D01*
X153473784Y-89262380D02*
X153590286Y-89237893D01*
X153590286Y-89237893D02*
X153806074Y-89338516D01*
X153806074Y-89338516D02*
X153905359Y-89463627D01*
X153690036Y-90939474D02*
X154323964Y-89580013D01*
X154323964Y-89580013D02*
X154669224Y-89741010D01*
X154669224Y-89741010D02*
X154725352Y-89845996D01*
X154725352Y-89845996D02*
X154738322Y-89930857D01*
X154738322Y-89930857D02*
X154721106Y-90080454D01*
X154721106Y-90080454D02*
X154630545Y-90274663D01*
X154630545Y-90274663D02*
X154527013Y-90384011D01*
X154527013Y-90384011D02*
X154453669Y-90428622D01*
X154453669Y-90428622D02*
X154337167Y-90453109D01*
X154337167Y-90453109D02*
X153991907Y-90292112D01*
X154596344Y-91362093D02*
X155230272Y-90002631D01*
X155114234Y-91603589D02*
X155088061Y-90645631D01*
X155748162Y-90244127D02*
X154868027Y-90779466D01*
X155744148Y-91266821D02*
X156434668Y-91588816D01*
X154013916Y-88252120D02*
X154113201Y-88377230D01*
X154113201Y-88377230D02*
X154328989Y-88477853D01*
X154328989Y-88477853D02*
X154445491Y-88453367D01*
X154445491Y-88453367D02*
X154518835Y-88408755D01*
X154518835Y-88408755D02*
X154622367Y-88299407D01*
X154622367Y-88299407D02*
X154682741Y-88169935D01*
X154682741Y-88169935D02*
X154699957Y-88020337D01*
X154699957Y-88020337D02*
X154686987Y-87935476D01*
X154686987Y-87935476D02*
X154630859Y-87830491D01*
X154630859Y-87830491D02*
X154488416Y-87685256D01*
X154488416Y-87685256D02*
X154432288Y-87580270D01*
X154432288Y-87580270D02*
X154419317Y-87495409D01*
X154419317Y-87495409D02*
X154436534Y-87345812D01*
X154436534Y-87345812D02*
X154496908Y-87216339D01*
X154496908Y-87216339D02*
X154600439Y-87106992D01*
X154600439Y-87106992D02*
X154673784Y-87062380D01*
X154673784Y-87062380D02*
X154790286Y-87037893D01*
X154790286Y-87037893D02*
X155006074Y-87138516D01*
X155006074Y-87138516D02*
X155105359Y-87263627D01*
X154890036Y-88739474D02*
X155523964Y-87380013D01*
X155523964Y-87380013D02*
X155869224Y-87541010D01*
X155869224Y-87541010D02*
X155925352Y-87645996D01*
X155925352Y-87645996D02*
X155938322Y-87730857D01*
X155938322Y-87730857D02*
X155921106Y-87880454D01*
X155921106Y-87880454D02*
X155830545Y-88074663D01*
X155830545Y-88074663D02*
X155727013Y-88184011D01*
X155727013Y-88184011D02*
X155653669Y-88228622D01*
X155653669Y-88228622D02*
X155537167Y-88253109D01*
X155537167Y-88253109D02*
X155191907Y-88092112D01*
X155796344Y-89162093D02*
X156430272Y-87802631D01*
X156314234Y-89403589D02*
X156288061Y-88445631D01*
X156948162Y-88044127D02*
X156068027Y-88579466D01*
X156944148Y-89066821D02*
X157634668Y-89388816D01*
X157047912Y-89745708D02*
X157530904Y-88709928D01*
X155815196Y-84604956D02*
X155483372Y-86105290D01*
X155483372Y-86105290D02*
X156419402Y-84886701D01*
X156665841Y-86499059D02*
X156592497Y-86543671D01*
X156592497Y-86543671D02*
X156432837Y-86548033D01*
X156432837Y-86548033D02*
X156346522Y-86507784D01*
X156346522Y-86507784D02*
X156247237Y-86382673D01*
X156247237Y-86382673D02*
X156221296Y-86212952D01*
X156221296Y-86212952D02*
X156238512Y-86063354D01*
X156238512Y-86063354D02*
X156316103Y-85784285D01*
X156316103Y-85784285D02*
X156406664Y-85590076D01*
X156406664Y-85590076D02*
X156570569Y-85351255D01*
X156570569Y-85351255D02*
X156674101Y-85241907D01*
X156674101Y-85241907D02*
X156820790Y-85152684D01*
X156820790Y-85152684D02*
X156980449Y-85148322D01*
X156980449Y-85148322D02*
X157066764Y-85188571D01*
X157066764Y-85188571D02*
X157166050Y-85313682D01*
X157166050Y-85313682D02*
X157179020Y-85398543D01*
X157572149Y-86921678D02*
X157498804Y-86966289D01*
X157498804Y-86966289D02*
X157339145Y-86970651D01*
X157339145Y-86970651D02*
X157252830Y-86930402D01*
X157252830Y-86930402D02*
X157153544Y-86805292D01*
X157153544Y-86805292D02*
X157127603Y-86635570D01*
X157127603Y-86635570D02*
X157144820Y-86485973D01*
X157144820Y-86485973D02*
X157222410Y-86206903D01*
X157222410Y-86206903D02*
X157312971Y-86012694D01*
X157312971Y-86012694D02*
X157476877Y-85773874D01*
X157476877Y-85773874D02*
X157580409Y-85664526D01*
X157580409Y-85664526D02*
X157727098Y-85575303D01*
X157727098Y-85575303D02*
X157886757Y-85570940D01*
X157886757Y-85570940D02*
X157973072Y-85611190D01*
X157973072Y-85611190D02*
X158072358Y-85736300D01*
X158072358Y-85736300D02*
X158085328Y-85821161D01*
X157376349Y-82609165D02*
X157320221Y-82504179D01*
X157320221Y-82504179D02*
X157190748Y-82443805D01*
X157190748Y-82443805D02*
X157031089Y-82448168D01*
X157031089Y-82448168D02*
X156884399Y-82537391D01*
X156884399Y-82537391D02*
X156780868Y-82646739D01*
X156780868Y-82646739D02*
X156616962Y-82885559D01*
X156616962Y-82885559D02*
X156526401Y-83079768D01*
X156526401Y-83079768D02*
X156448811Y-83358838D01*
X156448811Y-83358838D02*
X156431594Y-83508435D01*
X156431594Y-83508435D02*
X156457535Y-83678157D01*
X156457535Y-83678157D02*
X156556821Y-83803267D01*
X156556821Y-83803267D02*
X156643136Y-83843516D01*
X156643136Y-83843516D02*
X156802795Y-83839154D01*
X156802795Y-83839154D02*
X156876140Y-83794543D01*
X156876140Y-83794543D02*
X157087449Y-83341389D01*
X157087449Y-83341389D02*
X156914819Y-83260890D01*
X157204183Y-84105137D02*
X157838111Y-82745676D01*
X157838111Y-82745676D02*
X157722074Y-84346633D01*
X157722074Y-84346633D02*
X158356001Y-82987172D01*
X158153649Y-84547880D02*
X158787576Y-83188419D01*
X158787576Y-83188419D02*
X159003364Y-83289042D01*
X159003364Y-83289042D02*
X159102649Y-83414152D01*
X159102649Y-83414152D02*
X159128590Y-83583874D01*
X159128590Y-83583874D02*
X159111374Y-83733471D01*
X159111374Y-83733471D02*
X159033783Y-84012541D01*
X159033783Y-84012541D02*
X158943222Y-84206750D01*
X158943222Y-84206750D02*
X158779316Y-84445570D01*
X158779316Y-84445570D02*
X158675785Y-84554918D01*
X158675785Y-84554918D02*
X158529096Y-84644141D01*
X158529096Y-84644141D02*
X158369436Y-84648504D01*
X158369436Y-84648504D02*
X158153649Y-84547880D01*
X157457641Y-81420747D02*
X158091568Y-80061286D01*
X158091568Y-80061286D02*
X158307356Y-80161909D01*
X158307356Y-80161909D02*
X158406641Y-80287019D01*
X158406641Y-80287019D02*
X158432582Y-80456741D01*
X158432582Y-80456741D02*
X158415366Y-80606339D01*
X158415366Y-80606339D02*
X158337775Y-80885408D01*
X158337775Y-80885408D02*
X158247214Y-81079617D01*
X158247214Y-81079617D02*
X158083308Y-81318437D01*
X158083308Y-81318437D02*
X157979777Y-81427785D01*
X157979777Y-81427785D02*
X157833088Y-81517009D01*
X157833088Y-81517009D02*
X157673428Y-81521371D01*
X157673428Y-81521371D02*
X157457641Y-81420747D01*
X158501913Y-81434823D02*
X158933488Y-81636070D01*
X158234476Y-81782992D02*
X159170506Y-80564403D01*
X159170506Y-80564403D02*
X158838681Y-82064737D01*
X159719048Y-82317634D02*
X159645703Y-82362245D01*
X159645703Y-82362245D02*
X159486044Y-82366607D01*
X159486044Y-82366607D02*
X159399729Y-82326358D01*
X159399729Y-82326358D02*
X159300443Y-82201248D01*
X159300443Y-82201248D02*
X159274502Y-82031526D01*
X159274502Y-82031526D02*
X159291719Y-81881929D01*
X159291719Y-81881929D02*
X159369309Y-81602859D01*
X159369309Y-81602859D02*
X159459870Y-81408650D01*
X159459870Y-81408650D02*
X159623776Y-81169830D01*
X159623776Y-81169830D02*
X159727308Y-81060482D01*
X159727308Y-81060482D02*
X159873997Y-80971259D01*
X159873997Y-80971259D02*
X160033656Y-80966896D01*
X160033656Y-80966896D02*
X160119971Y-81007146D01*
X160119971Y-81007146D02*
X160219257Y-81132256D01*
X160219257Y-81132256D02*
X160232227Y-81217117D01*
X159523250Y-78005124D02*
X159467122Y-77900138D01*
X159467122Y-77900138D02*
X159337649Y-77839764D01*
X159337649Y-77839764D02*
X159177990Y-77844127D01*
X159177990Y-77844127D02*
X159031300Y-77933350D01*
X159031300Y-77933350D02*
X158927769Y-78042698D01*
X158927769Y-78042698D02*
X158763863Y-78281518D01*
X158763863Y-78281518D02*
X158673302Y-78475727D01*
X158673302Y-78475727D02*
X158595712Y-78754797D01*
X158595712Y-78754797D02*
X158578495Y-78904394D01*
X158578495Y-78904394D02*
X158604436Y-79074116D01*
X158604436Y-79074116D02*
X158703722Y-79199226D01*
X158703722Y-79199226D02*
X158790037Y-79239475D01*
X158790037Y-79239475D02*
X158949696Y-79235113D01*
X158949696Y-79235113D02*
X159023041Y-79190502D01*
X159023041Y-79190502D02*
X159234350Y-78737348D01*
X159234350Y-78737348D02*
X159061720Y-78656849D01*
X159351084Y-79501096D02*
X159985012Y-78141635D01*
X159985012Y-78141635D02*
X159868975Y-79742592D01*
X159868975Y-79742592D02*
X160502902Y-78383131D01*
X160300550Y-79943839D02*
X160934477Y-78584378D01*
X160934477Y-78584378D02*
X161150265Y-78685001D01*
X161150265Y-78685001D02*
X161249550Y-78810111D01*
X161249550Y-78810111D02*
X161275491Y-78979833D01*
X161275491Y-78979833D02*
X161258275Y-79129430D01*
X161258275Y-79129430D02*
X161180684Y-79408500D01*
X161180684Y-79408500D02*
X161090123Y-79602709D01*
X161090123Y-79602709D02*
X160926217Y-79841529D01*
X160926217Y-79841529D02*
X160822686Y-79950877D01*
X160822686Y-79950877D02*
X160675997Y-80040100D01*
X160675997Y-80040100D02*
X160516337Y-80044463D01*
X160516337Y-80044463D02*
X160300550Y-79943839D01*
X124568644Y-78475245D02*
X124115838Y-79446289D01*
X124115838Y-79446289D02*
X123982120Y-79620373D01*
X123982120Y-79620373D02*
X123835431Y-79709596D01*
X123835431Y-79709596D02*
X123675771Y-79713958D01*
X123675771Y-79713958D02*
X123589456Y-79673709D01*
X124841024Y-80257325D02*
X124323134Y-80015829D01*
X124582079Y-80136577D02*
X125216007Y-78777115D01*
X125216007Y-78777115D02*
X125039131Y-78931074D01*
X125039131Y-78931074D02*
X124892441Y-79020298D01*
X124892441Y-79020298D02*
X124775939Y-79044785D01*
X121161905Y-100986128D02*
X121161905Y-99486128D01*
X121161905Y-99486128D02*
X121400000Y-99486128D01*
X121400000Y-99486128D02*
X121542857Y-99557557D01*
X121542857Y-99557557D02*
X121638095Y-99700414D01*
X121638095Y-99700414D02*
X121685714Y-99843271D01*
X121685714Y-99843271D02*
X121733333Y-100128985D01*
X121733333Y-100128985D02*
X121733333Y-100343271D01*
X121733333Y-100343271D02*
X121685714Y-100628985D01*
X121685714Y-100628985D02*
X121638095Y-100771842D01*
X121638095Y-100771842D02*
X121542857Y-100914700D01*
X121542857Y-100914700D02*
X121400000Y-100986128D01*
X121400000Y-100986128D02*
X121161905Y-100986128D01*
X122685714Y-100986128D02*
X122114286Y-100986128D01*
X122400000Y-100986128D02*
X122400000Y-99486128D01*
X122400000Y-99486128D02*
X122304762Y-99700414D01*
X122304762Y-99700414D02*
X122209524Y-99843271D01*
X122209524Y-99843271D02*
X122114286Y-99914700D01*
X151653436Y-99440387D02*
X151140257Y-100540903D01*
X151140257Y-100540903D02*
X151123040Y-100690500D01*
X151123040Y-100690500D02*
X151136011Y-100775361D01*
X151136011Y-100775361D02*
X151192139Y-100880347D01*
X151192139Y-100880347D02*
X151364769Y-100960846D01*
X151364769Y-100960846D02*
X151481271Y-100936359D01*
X151481271Y-100936359D02*
X151554616Y-100891747D01*
X151554616Y-100891747D02*
X151658147Y-100782399D01*
X151658147Y-100782399D02*
X152171326Y-99681883D01*
X152499370Y-99992477D02*
X152572714Y-99947866D01*
X152572714Y-99947866D02*
X152689216Y-99923379D01*
X152689216Y-99923379D02*
X152905004Y-100024002D01*
X152905004Y-100024002D02*
X152961132Y-100128988D01*
X152961132Y-100128988D02*
X152974103Y-100213849D01*
X152974103Y-100213849D02*
X152956886Y-100363446D01*
X152956886Y-100363446D02*
X152896512Y-100492919D01*
X152896512Y-100492919D02*
X152762793Y-100667003D01*
X152762793Y-100667003D02*
X151882659Y-101202342D01*
X151882659Y-101202342D02*
X152443707Y-101463963D01*
X150071814Y-123779995D02*
X150196924Y-123680709D01*
X150196924Y-123680709D02*
X150297548Y-123464922D01*
X150297548Y-123464922D02*
X150273061Y-123348420D01*
X150273061Y-123348420D02*
X150228449Y-123275075D01*
X150228449Y-123275075D02*
X150119101Y-123171544D01*
X150119101Y-123171544D02*
X149989629Y-123111170D01*
X149989629Y-123111170D02*
X149840031Y-123093953D01*
X149840031Y-123093953D02*
X149755170Y-123106924D01*
X149755170Y-123106924D02*
X149650185Y-123163052D01*
X149650185Y-123163052D02*
X149504950Y-123305495D01*
X149504950Y-123305495D02*
X149399964Y-123361623D01*
X149399964Y-123361623D02*
X149315103Y-123374593D01*
X149315103Y-123374593D02*
X149165506Y-123357377D01*
X149165506Y-123357377D02*
X149036033Y-123297003D01*
X149036033Y-123297003D02*
X148926686Y-123193471D01*
X148926686Y-123193471D02*
X148882074Y-123120126D01*
X148882074Y-123120126D02*
X148857587Y-123003624D01*
X148857587Y-123003624D02*
X148958211Y-122787837D01*
X148958211Y-122787837D02*
X149083321Y-122688551D01*
X150671192Y-122325610D02*
X150715804Y-122398954D01*
X150715804Y-122398954D02*
X150720166Y-122558614D01*
X150720166Y-122558614D02*
X150679916Y-122644929D01*
X150679916Y-122644929D02*
X150554806Y-122744214D01*
X150554806Y-122744214D02*
X150385084Y-122770155D01*
X150385084Y-122770155D02*
X150235487Y-122752939D01*
X150235487Y-122752939D02*
X149956417Y-122675348D01*
X149956417Y-122675348D02*
X149762208Y-122584787D01*
X149762208Y-122584787D02*
X149523388Y-122420882D01*
X149523388Y-122420882D02*
X149414040Y-122317350D01*
X149414040Y-122317350D02*
X149324817Y-122170661D01*
X149324817Y-122170661D02*
X149320455Y-122011002D01*
X149320455Y-122011002D02*
X149360704Y-121924687D01*
X149360704Y-121924687D02*
X149485814Y-121825401D01*
X149485814Y-121825401D02*
X149570675Y-121812431D01*
X150981787Y-121997566D02*
X149622325Y-121363639D01*
X151223283Y-121479676D02*
X150265325Y-121505849D01*
X149863821Y-120845749D02*
X150399160Y-121725883D01*
X150559460Y-110938061D02*
X150257357Y-110797188D01*
X149925300Y-111509287D02*
X150559227Y-110149825D01*
X150559227Y-110149825D02*
X150990802Y-110351072D01*
X151133710Y-112072778D02*
X150702135Y-111871531D01*
X150702135Y-111871531D02*
X151336063Y-110512070D01*
X151940268Y-110793815D02*
X152458158Y-111035311D01*
X151565286Y-112274025D02*
X152199213Y-110914563D01*
X149791623Y-108367168D02*
X150425550Y-107007706D01*
X150425550Y-107007706D02*
X150641338Y-107108330D01*
X150641338Y-107108330D02*
X150740623Y-107233440D01*
X150740623Y-107233440D02*
X150766564Y-107403162D01*
X150766564Y-107403162D02*
X150749348Y-107552759D01*
X150749348Y-107552759D02*
X150671757Y-107831829D01*
X150671757Y-107831829D02*
X150581196Y-108026038D01*
X150581196Y-108026038D02*
X150417290Y-108264858D01*
X150417290Y-108264858D02*
X150313759Y-108374206D01*
X150313759Y-108374206D02*
X150167070Y-108463429D01*
X150167070Y-108463429D02*
X150007410Y-108467791D01*
X150007410Y-108467791D02*
X149791623Y-108367168D01*
X151029988Y-108077687D02*
X151332090Y-108218560D01*
X151129506Y-108991033D02*
X150697931Y-108789786D01*
X150697931Y-108789786D02*
X151331858Y-107430325D01*
X151331858Y-107430325D02*
X151763433Y-107631571D01*
X151517923Y-109172155D02*
X152151851Y-107812693D01*
X152151851Y-107812693D02*
X152001148Y-108924610D01*
X152001148Y-108924610D02*
X152756056Y-108094439D01*
X152756056Y-108094439D02*
X152122129Y-109453901D01*
X152553704Y-109655147D02*
X153187631Y-108295686D01*
X153187631Y-108295686D02*
X153532891Y-108456683D01*
X153532891Y-108456683D02*
X153589019Y-108561669D01*
X153589019Y-108561669D02*
X153601990Y-108646530D01*
X153601990Y-108646530D02*
X153584773Y-108796127D01*
X153584773Y-108796127D02*
X153494212Y-108990336D01*
X153494212Y-108990336D02*
X153390680Y-109099684D01*
X153390680Y-109099684D02*
X153317336Y-109144295D01*
X153317336Y-109144295D02*
X153200834Y-109168782D01*
X153200834Y-109168782D02*
X152855574Y-109007785D01*
X151447127Y-104917768D02*
X151417405Y-106558976D01*
X152051333Y-105199514D02*
X150813200Y-106277230D01*
X151749695Y-106635112D02*
X151848980Y-106760222D01*
X151848980Y-106760222D02*
X152064768Y-106860846D01*
X152064768Y-106860846D02*
X152181270Y-106836359D01*
X152181270Y-106836359D02*
X152254614Y-106791747D01*
X152254614Y-106791747D02*
X152358146Y-106682399D01*
X152358146Y-106682399D02*
X152418520Y-106552927D01*
X152418520Y-106552927D02*
X152435737Y-106403330D01*
X152435737Y-106403330D02*
X152422766Y-106318469D01*
X152422766Y-106318469D02*
X152366638Y-106213483D01*
X152366638Y-106213483D02*
X152224195Y-106068248D01*
X152224195Y-106068248D02*
X152168067Y-105963262D01*
X152168067Y-105963262D02*
X152155097Y-105878401D01*
X152155097Y-105878401D02*
X152172313Y-105728804D01*
X152172313Y-105728804D02*
X152232687Y-105599332D01*
X152232687Y-105599332D02*
X152336219Y-105489984D01*
X152336219Y-105489984D02*
X152409563Y-105445372D01*
X152409563Y-105445372D02*
X152526065Y-105420885D01*
X152526065Y-105420885D02*
X152741853Y-105521509D01*
X152741853Y-105521509D02*
X152841138Y-105646619D01*
X152625816Y-107122467D02*
X153259743Y-105763005D01*
X153259743Y-105763005D02*
X153109040Y-106874922D01*
X153109040Y-106874922D02*
X153863948Y-106044750D01*
X153863948Y-106044750D02*
X153230021Y-107404212D01*
X154166051Y-106185623D02*
X154683941Y-106427119D01*
X153791068Y-107665833D02*
X154424996Y-106306371D01*
X151867345Y-124249471D02*
X151992455Y-124150186D01*
X151992455Y-124150186D02*
X152077316Y-124137215D01*
X152077316Y-124137215D02*
X152226913Y-124154432D01*
X152226913Y-124154432D02*
X152421122Y-124244993D01*
X152421122Y-124244993D02*
X152530470Y-124348524D01*
X152530470Y-124348524D02*
X152575082Y-124421869D01*
X152575082Y-124421869D02*
X152599569Y-124538371D01*
X152599569Y-124538371D02*
X152438571Y-124883631D01*
X152438571Y-124883631D02*
X151079109Y-124249703D01*
X151079109Y-124249703D02*
X151219982Y-123947601D01*
X151219982Y-123947601D02*
X151324968Y-123891473D01*
X151324968Y-123891473D02*
X151409829Y-123878502D01*
X151409829Y-123878502D02*
X151559426Y-123895719D01*
X151559426Y-123895719D02*
X151688899Y-123956093D01*
X151688899Y-123956093D02*
X151798246Y-124059624D01*
X151798246Y-124059624D02*
X151842858Y-124132969D01*
X151842858Y-124132969D02*
X151867345Y-124249471D01*
X151867345Y-124249471D02*
X151726472Y-124551574D01*
X152973213Y-123399059D02*
X153017825Y-123472403D01*
X153017825Y-123472403D02*
X153022187Y-123632063D01*
X153022187Y-123632063D02*
X152981937Y-123718378D01*
X152981937Y-123718378D02*
X152856827Y-123817663D01*
X152856827Y-123817663D02*
X152687105Y-123843604D01*
X152687105Y-123843604D02*
X152537508Y-123826388D01*
X152537508Y-123826388D02*
X152258438Y-123748797D01*
X152258438Y-123748797D02*
X152064229Y-123658236D01*
X152064229Y-123658236D02*
X151825409Y-123494331D01*
X151825409Y-123494331D02*
X151716061Y-123390799D01*
X151716061Y-123390799D02*
X151626838Y-123244110D01*
X151626838Y-123244110D02*
X151622476Y-123084451D01*
X151622476Y-123084451D02*
X151662725Y-122998136D01*
X151662725Y-122998136D02*
X151787835Y-122898850D01*
X151787835Y-122898850D02*
X151872696Y-122885880D01*
X153283808Y-123071015D02*
X151924346Y-122437088D01*
X153525304Y-122553125D02*
X152567346Y-122579298D01*
X152165842Y-121919198D02*
X152701181Y-122799332D01*
X153608409Y-103867625D02*
X153306306Y-103726752D01*
X152974249Y-104438851D02*
X153608176Y-103079389D01*
X153608176Y-103079389D02*
X154039752Y-103280636D01*
X153751084Y-104801095D02*
X154385012Y-103441634D01*
X154385012Y-103441634D02*
X154234309Y-104553550D01*
X154234309Y-104553550D02*
X154989217Y-103723379D01*
X154989217Y-103723379D02*
X154355290Y-105082841D01*
X155291319Y-103864252D02*
X155809210Y-104105748D01*
X154916337Y-105344462D02*
X155550265Y-103985000D01*
X153380638Y-101429062D02*
X153812213Y-101630309D01*
X153113201Y-101777230D02*
X154049231Y-100558641D01*
X154049231Y-100558641D02*
X153717406Y-102058975D01*
X154523964Y-100780013D02*
X154192139Y-102280347D01*
X154192139Y-102280347D02*
X155128169Y-101061758D01*
X154796344Y-102562093D02*
X155430272Y-101202631D01*
X155430272Y-101202631D02*
X155646059Y-101303254D01*
X155646059Y-101303254D02*
X155745345Y-101428365D01*
X155745345Y-101428365D02*
X155771286Y-101598087D01*
X155771286Y-101598087D02*
X155754069Y-101747684D01*
X155754069Y-101747684D02*
X155676479Y-102026753D01*
X155676479Y-102026753D02*
X155585918Y-102220962D01*
X155585918Y-102220962D02*
X155422012Y-102459783D01*
X155422012Y-102459783D02*
X155318480Y-102569131D01*
X155318480Y-102569131D02*
X155171791Y-102658354D01*
X155171791Y-102658354D02*
X155012132Y-102662716D01*
X155012132Y-102662716D02*
X154796344Y-102562093D01*
X155702652Y-102984711D02*
X156336579Y-101625249D01*
X156336579Y-101625249D02*
X156552367Y-101725873D01*
X156552367Y-101725873D02*
X156651652Y-101850983D01*
X156651652Y-101850983D02*
X156677593Y-102020705D01*
X156677593Y-102020705D02*
X156660377Y-102170302D01*
X156660377Y-102170302D02*
X156582786Y-102449372D01*
X156582786Y-102449372D02*
X156492225Y-102643581D01*
X156492225Y-102643581D02*
X156328320Y-102882401D01*
X156328320Y-102882401D02*
X156224788Y-102991749D01*
X156224788Y-102991749D02*
X156078099Y-103080972D01*
X156078099Y-103080972D02*
X155918440Y-103085334D01*
X155918440Y-103085334D02*
X155702652Y-102984711D01*
X154941840Y-125525506D02*
X153582378Y-124891579D01*
X153582378Y-124891579D02*
X153683002Y-124675791D01*
X153683002Y-124675791D02*
X153808112Y-124576506D01*
X153808112Y-124576506D02*
X153977834Y-124550565D01*
X153977834Y-124550565D02*
X154127431Y-124567781D01*
X154127431Y-124567781D02*
X154406501Y-124645372D01*
X154406501Y-124645372D02*
X154600710Y-124735933D01*
X154600710Y-124735933D02*
X154839530Y-124899838D01*
X154839530Y-124899838D02*
X154948878Y-125003370D01*
X154948878Y-125003370D02*
X155038101Y-125150059D01*
X155038101Y-125150059D02*
X155042464Y-125309719D01*
X155042464Y-125309719D02*
X154941840Y-125525506D01*
X155364458Y-124619198D02*
X154004997Y-123985271D01*
X155565705Y-124187624D02*
X154206243Y-123553696D01*
X154206243Y-123553696D02*
X155807201Y-123669734D01*
X155807201Y-123669734D02*
X154447739Y-123035806D01*
X156123250Y-98505123D02*
X156067122Y-98400137D01*
X156067122Y-98400137D02*
X155937649Y-98339763D01*
X155937649Y-98339763D02*
X155777990Y-98344126D01*
X155777990Y-98344126D02*
X155631300Y-98433349D01*
X155631300Y-98433349D02*
X155527769Y-98542697D01*
X155527769Y-98542697D02*
X155363863Y-98781517D01*
X155363863Y-98781517D02*
X155273302Y-98975726D01*
X155273302Y-98975726D02*
X155195712Y-99254796D01*
X155195712Y-99254796D02*
X155178495Y-99404393D01*
X155178495Y-99404393D02*
X155204436Y-99574115D01*
X155204436Y-99574115D02*
X155303722Y-99699225D01*
X155303722Y-99699225D02*
X155390037Y-99739474D01*
X155390037Y-99739474D02*
X155549696Y-99735112D01*
X155549696Y-99735112D02*
X155623041Y-99690501D01*
X155623041Y-99690501D02*
X155834350Y-99237347D01*
X155834350Y-99237347D02*
X155661720Y-99156848D01*
X155951084Y-100001095D02*
X156585012Y-98641634D01*
X156585012Y-98641634D02*
X156468975Y-100242591D01*
X156468975Y-100242591D02*
X157102902Y-98883130D01*
X156900550Y-100443838D02*
X157534477Y-99084377D01*
X157534477Y-99084377D02*
X157750265Y-99185000D01*
X157750265Y-99185000D02*
X157849550Y-99310110D01*
X157849550Y-99310110D02*
X157875491Y-99479832D01*
X157875491Y-99479832D02*
X157858275Y-99629429D01*
X157858275Y-99629429D02*
X157780684Y-99908499D01*
X157780684Y-99908499D02*
X157690123Y-100102708D01*
X157690123Y-100102708D02*
X157526217Y-100341528D01*
X157526217Y-100341528D02*
X157422686Y-100450876D01*
X157422686Y-100450876D02*
X157275997Y-100540099D01*
X157275997Y-100540099D02*
X157116337Y-100544462D01*
X157116337Y-100544462D02*
X156900550Y-100443838D01*
X156284496Y-95628454D02*
X156457126Y-95708953D01*
X156457126Y-95708953D02*
X156513254Y-95813939D01*
X156513254Y-95813939D02*
X156539195Y-95983661D01*
X156539195Y-95983661D02*
X156461605Y-96262730D01*
X156461605Y-96262730D02*
X156250295Y-96715884D01*
X156250295Y-96715884D02*
X156086390Y-96954705D01*
X156086390Y-96954705D02*
X155939701Y-97043928D01*
X155939701Y-97043928D02*
X155823199Y-97068415D01*
X155823199Y-97068415D02*
X155650569Y-96987916D01*
X155650569Y-96987916D02*
X155594441Y-96882930D01*
X155594441Y-96882930D02*
X155568500Y-96713208D01*
X155568500Y-96713208D02*
X155646090Y-96434139D01*
X155646090Y-96434139D02*
X155857399Y-95980985D01*
X155857399Y-95980985D02*
X156021305Y-95742164D01*
X156021305Y-95742164D02*
X156167994Y-95652941D01*
X156167994Y-95652941D02*
X156284496Y-95628454D01*
X157061331Y-95990698D02*
X156548152Y-97091215D01*
X156548152Y-97091215D02*
X156530935Y-97240812D01*
X156530935Y-97240812D02*
X156543906Y-97325673D01*
X156543906Y-97325673D02*
X156600034Y-97430659D01*
X156600034Y-97430659D02*
X156772664Y-97511158D01*
X156772664Y-97511158D02*
X156889166Y-97486671D01*
X156889166Y-97486671D02*
X156962511Y-97442059D01*
X156962511Y-97442059D02*
X157066042Y-97332711D01*
X157066042Y-97332711D02*
X157579222Y-96232195D01*
X157881324Y-96373067D02*
X158399214Y-96614564D01*
X157506342Y-97853277D02*
X158140269Y-96493815D01*
X158585280Y-98356394D02*
X158585047Y-97568159D01*
X158067390Y-98114898D02*
X158701317Y-96755436D01*
X158701317Y-96755436D02*
X159046577Y-96916434D01*
X159046577Y-96916434D02*
X159102705Y-97021419D01*
X159102705Y-97021419D02*
X159115676Y-97106280D01*
X159115676Y-97106280D02*
X159098459Y-97255878D01*
X159098459Y-97255878D02*
X159007898Y-97450086D01*
X159007898Y-97450086D02*
X158904367Y-97559434D01*
X158904367Y-97559434D02*
X158831022Y-97604046D01*
X158831022Y-97604046D02*
X158714520Y-97628533D01*
X158714520Y-97628533D02*
X158369260Y-97467535D01*
X156901742Y-127332636D02*
X156700495Y-127764211D01*
X156700495Y-127764211D02*
X155341034Y-127130283D01*
X157284111Y-126512643D02*
X156495876Y-126512875D01*
X157042615Y-127030533D02*
X155683153Y-126396605D01*
X155683153Y-126396605D02*
X155844151Y-126051345D01*
X155844151Y-126051345D02*
X155949136Y-125995217D01*
X155949136Y-125995217D02*
X156033997Y-125982247D01*
X156033997Y-125982247D02*
X156183595Y-125999463D01*
X156183595Y-125999463D02*
X156377803Y-126090024D01*
X156377803Y-126090024D02*
X156487151Y-126193556D01*
X156487151Y-126193556D02*
X156531763Y-126266900D01*
X156531763Y-126266900D02*
X156556250Y-126383403D01*
X156556250Y-126383403D02*
X156395252Y-126728663D01*
X157577257Y-125545961D02*
X157621869Y-125619305D01*
X157621869Y-125619305D02*
X157626231Y-125778965D01*
X157626231Y-125778965D02*
X157585981Y-125865280D01*
X157585981Y-125865280D02*
X157460871Y-125964565D01*
X157460871Y-125964565D02*
X157291149Y-125990506D01*
X157291149Y-125990506D02*
X157141552Y-125973290D01*
X157141552Y-125973290D02*
X156862482Y-125895699D01*
X156862482Y-125895699D02*
X156668273Y-125805138D01*
X156668273Y-125805138D02*
X156429453Y-125641233D01*
X156429453Y-125641233D02*
X156320105Y-125537701D01*
X156320105Y-125537701D02*
X156230882Y-125391012D01*
X156230882Y-125391012D02*
X156226520Y-125231353D01*
X156226520Y-125231353D02*
X156266769Y-125145038D01*
X156266769Y-125145038D02*
X156391879Y-125045752D01*
X156391879Y-125045752D02*
X156476740Y-125032782D01*
X157887852Y-125217917D02*
X156528390Y-124583990D01*
X158129348Y-124700027D02*
X157171390Y-124726200D01*
X156769886Y-124066100D02*
X157305225Y-124946234D01*
X158323250Y-93905123D02*
X158267122Y-93800137D01*
X158267122Y-93800137D02*
X158137649Y-93739763D01*
X158137649Y-93739763D02*
X157977990Y-93744126D01*
X157977990Y-93744126D02*
X157831300Y-93833349D01*
X157831300Y-93833349D02*
X157727769Y-93942697D01*
X157727769Y-93942697D02*
X157563863Y-94181517D01*
X157563863Y-94181517D02*
X157473302Y-94375726D01*
X157473302Y-94375726D02*
X157395712Y-94654796D01*
X157395712Y-94654796D02*
X157378495Y-94804393D01*
X157378495Y-94804393D02*
X157404436Y-94974115D01*
X157404436Y-94974115D02*
X157503722Y-95099225D01*
X157503722Y-95099225D02*
X157590037Y-95139474D01*
X157590037Y-95139474D02*
X157749696Y-95135112D01*
X157749696Y-95135112D02*
X157823041Y-95090501D01*
X157823041Y-95090501D02*
X158034350Y-94637347D01*
X158034350Y-94637347D02*
X157861720Y-94556848D01*
X158151084Y-95401095D02*
X158785012Y-94041634D01*
X158785012Y-94041634D02*
X158668975Y-95642591D01*
X158668975Y-95642591D02*
X159302902Y-94283130D01*
X159100550Y-95843838D02*
X159734477Y-94484377D01*
X159734477Y-94484377D02*
X159950265Y-94585000D01*
X159950265Y-94585000D02*
X160049550Y-94710110D01*
X160049550Y-94710110D02*
X160075491Y-94879832D01*
X160075491Y-94879832D02*
X160058275Y-95029429D01*
X160058275Y-95029429D02*
X159980684Y-95308499D01*
X159980684Y-95308499D02*
X159890123Y-95502708D01*
X159890123Y-95502708D02*
X159726217Y-95741528D01*
X159726217Y-95741528D02*
X159622686Y-95850876D01*
X159622686Y-95850876D02*
X159475997Y-95940099D01*
X159475997Y-95940099D02*
X159316337Y-95944462D01*
X159316337Y-95944462D02*
X159100550Y-95843838D01*
X157617656Y-90957394D02*
X157790286Y-91037893D01*
X157790286Y-91037893D02*
X157846414Y-91142879D01*
X157846414Y-91142879D02*
X157872355Y-91312601D01*
X157872355Y-91312601D02*
X157794765Y-91591670D01*
X157794765Y-91591670D02*
X157583456Y-92044824D01*
X157583456Y-92044824D02*
X157419550Y-92283645D01*
X157419550Y-92283645D02*
X157272861Y-92372868D01*
X157272861Y-92372868D02*
X157156359Y-92397355D01*
X157156359Y-92397355D02*
X156983729Y-92316856D01*
X156983729Y-92316856D02*
X156927601Y-92211871D01*
X156927601Y-92211871D02*
X156901660Y-92042149D01*
X156901660Y-92042149D02*
X156979250Y-91763079D01*
X156979250Y-91763079D02*
X157190559Y-91309925D01*
X157190559Y-91309925D02*
X157354465Y-91071105D01*
X157354465Y-91071105D02*
X157501154Y-90981881D01*
X157501154Y-90981881D02*
X157617656Y-90957394D01*
X158394491Y-91319639D02*
X157881312Y-92420155D01*
X157881312Y-92420155D02*
X157864096Y-92569752D01*
X157864096Y-92569752D02*
X157877066Y-92654613D01*
X157877066Y-92654613D02*
X157933194Y-92759599D01*
X157933194Y-92759599D02*
X158105824Y-92840098D01*
X158105824Y-92840098D02*
X158222326Y-92815611D01*
X158222326Y-92815611D02*
X158295671Y-92770999D01*
X158295671Y-92770999D02*
X158399202Y-92661651D01*
X158399202Y-92661651D02*
X158912382Y-91561135D01*
X159214484Y-91702008D02*
X159732374Y-91943504D01*
X158839502Y-93182217D02*
X159473429Y-91822756D01*
X159832125Y-93645085D02*
X159400550Y-93443838D01*
X159400550Y-93443838D02*
X160034477Y-92084377D01*
X160652118Y-94027454D02*
X160651885Y-93239219D01*
X160134228Y-93785958D02*
X160768155Y-92426496D01*
X160768155Y-92426496D02*
X161113415Y-92587494D01*
X161113415Y-92587494D02*
X161169543Y-92692479D01*
X161169543Y-92692479D02*
X161182514Y-92777340D01*
X161182514Y-92777340D02*
X161165297Y-92926937D01*
X161165297Y-92926937D02*
X161074736Y-93121146D01*
X161074736Y-93121146D02*
X160971204Y-93230494D01*
X160971204Y-93230494D02*
X160897860Y-93275106D01*
X160897860Y-93275106D02*
X160781358Y-93299593D01*
X160781358Y-93299593D02*
X160436098Y-93138595D01*
X158251159Y-127068666D02*
X158146173Y-127124794D01*
X158146173Y-127124794D02*
X158085799Y-127254267D01*
X158085799Y-127254267D02*
X158090161Y-127413926D01*
X158090161Y-127413926D02*
X158179384Y-127560615D01*
X158179384Y-127560615D02*
X158288732Y-127664147D01*
X158288732Y-127664147D02*
X158527553Y-127828053D01*
X158527553Y-127828053D02*
X158721761Y-127918614D01*
X158721761Y-127918614D02*
X159000831Y-127996204D01*
X159000831Y-127996204D02*
X159150428Y-128013421D01*
X159150428Y-128013421D02*
X159320150Y-127987480D01*
X159320150Y-127987480D02*
X159445261Y-127888194D01*
X159445261Y-127888194D02*
X159485510Y-127801879D01*
X159485510Y-127801879D02*
X159481148Y-127642220D01*
X159481148Y-127642220D02*
X159436536Y-127568875D01*
X159436536Y-127568875D02*
X158983382Y-127357566D01*
X158983382Y-127357566D02*
X158902883Y-127530196D01*
X159747131Y-127240832D02*
X158387669Y-126606904D01*
X158387669Y-126606904D02*
X159988627Y-126722941D01*
X159988627Y-126722941D02*
X158629165Y-126089014D01*
X160189874Y-126291366D02*
X158830412Y-125657439D01*
X158830412Y-125657439D02*
X158931035Y-125441651D01*
X158931035Y-125441651D02*
X159056146Y-125342366D01*
X159056146Y-125342366D02*
X159225868Y-125316425D01*
X159225868Y-125316425D02*
X159375465Y-125333641D01*
X159375465Y-125333641D02*
X159654535Y-125411232D01*
X159654535Y-125411232D02*
X159848743Y-125501793D01*
X159848743Y-125501793D02*
X160087564Y-125665699D01*
X160087564Y-125665699D02*
X160196912Y-125769230D01*
X160196912Y-125769230D02*
X160286135Y-125915919D01*
X160286135Y-125915919D02*
X160290497Y-126075579D01*
X160290497Y-126075579D02*
X160189874Y-126291366D01*
X160488444Y-128111930D02*
X161988779Y-128443755D01*
X161988779Y-128443755D02*
X160770190Y-127507725D01*
X162270524Y-127839549D02*
X160911063Y-127205622D01*
X162471771Y-127407975D02*
X161112309Y-126774047D01*
X161112309Y-126774047D02*
X162713267Y-126890085D01*
X162713267Y-126890085D02*
X161353805Y-126256157D01*
%TO.C,U1*%
D12*
X122429000Y-126336272D02*
X122429000Y-118341000D01*
X122929000Y-117841000D02*
X123939000Y-117841000D01*
D13*
X123939000Y-115360000D02*
X123939000Y-129330000D01*
D12*
X123939000Y-115360000D02*
X123939000Y-129330000D01*
X123939000Y-126840000D02*
X122928728Y-126836272D01*
X144894000Y-129330000D02*
X144894000Y-115360000D01*
X122429000Y-118341000D02*
G75*
G02*
X122929000Y-117841000I500000J0D01*
G01*
X122928728Y-126836272D02*
G75*
G02*
X122429028Y-126336272I272J499972D01*
G01*
X123939000Y-115360000D02*
G75*
G02*
X125844000Y-113455000I1905000J0D01*
G01*
X125844000Y-131235000D02*
G75*
G02*
X123939000Y-129330000I0J1905000D01*
G01*
X142989000Y-113455000D02*
G75*
G02*
X144894000Y-115360000I-1J-1905001D01*
G01*
X144894000Y-129330000D02*
G75*
G02*
X142989000Y-131235000I-1905001J1D01*
G01*
D14*
X124332000Y-131249000D02*
G75*
G02*
X123828000Y-131249000I-252000J0D01*
G01*
X123828000Y-131249000D02*
G75*
G02*
X124332000Y-131249000I252000J0D01*
G01*
X125212000Y-130106000D02*
G75*
G02*
X124708000Y-130106000I-252000J0D01*
G01*
X124708000Y-130106000D02*
G75*
G02*
X125212000Y-130106000I252000J0D01*
G01*
D13*
%TO.C,U3*%
X148788336Y-69401213D02*
X159664029Y-74472632D01*
X151211664Y-92598787D01*
X140335971Y-87527368D01*
X148788336Y-69401213D01*
%TO.C,J1*%
D15*
X116042474Y-89515155D02*
X120649013Y-79636401D01*
X117601323Y-90242059D02*
X122207863Y-80363303D01*
X120410878Y-91552175D02*
X125017417Y-81673420D01*
X120649013Y-79636401D02*
X126757527Y-82484847D01*
X121317185Y-91974793D02*
X125923725Y-82096037D01*
X122150988Y-92363602D02*
X116042474Y-89515155D01*
X122717297Y-91149150D02*
X122150988Y-92363602D01*
X126757527Y-82484847D02*
X122970868Y-90605365D01*
X122844083Y-90877256D02*
X123582882Y-90736279D01*
X123210978Y-91533830D01*
X122844083Y-90877256D01*
G36*
X123210978Y-91533830D02*
G01*
X122844083Y-90877256D01*
X123582882Y-90736279D01*
X123210978Y-91533830D01*
G37*
%TO.C,D1*%
X115930000Y-103400000D02*
X118870000Y-103400000D01*
X115930000Y-103520000D02*
X118870000Y-103520000D01*
X115930000Y-103640000D02*
X118870000Y-103640000D01*
X117400000Y-97960000D02*
X117400000Y-98980000D01*
X117400000Y-105440000D02*
X117400000Y-104420000D01*
X115930000Y-98980000D02*
X118870000Y-98980000D01*
X118870000Y-104420000D01*
X115930000Y-104420000D01*
X115930000Y-98980000D01*
%TO.C,U2*%
D13*
X149738090Y-118095804D02*
X162205328Y-91359724D01*
X163534254Y-90876034D02*
X177128870Y-97215308D01*
X163816396Y-125764004D02*
X150221780Y-119424730D01*
X174170544Y-103559463D02*
X175861017Y-99934232D01*
X174654234Y-104888389D02*
X165145322Y-125280314D01*
X177189942Y-99450542D02*
X177612560Y-98544234D01*
X150221780Y-119424730D02*
G75*
G02*
X149738091Y-118095804I422617J906307D01*
G01*
X162205328Y-91359724D02*
G75*
G02*
X163534254Y-90876034I906308J-422618D01*
G01*
X165145322Y-125280314D02*
G75*
G02*
X163816396Y-125764003I-906307J422617D01*
G01*
X174654234Y-104888389D02*
G75*
G02*
X174170544Y-103559463I422617J906308D01*
G01*
X175861017Y-99934232D02*
G75*
G02*
X177189942Y-99450543I906307J-422618D01*
G01*
X177128870Y-97215308D02*
G75*
G02*
X177612560Y-98544234I-422617J-906308D01*
G01*
%TD*%
M02*
