M48
; DRILL file KiCad 10.0.6 date 2026-09-16T03:01:17
; FORMAT={-:-/ absolute / metric / decimal}
; #@! TF.CreationDate,2026-09-16T03:01:17-04:00
; #@! TF.GenerationSoftware,Kicad,Pcbnew,10.0.6
; #@! TF.FileFunction,Plated,1,2,PTH
FMAT,2
METRIC
; #@! TA.AperFunction,Plated,PTH,ComponentDrill
T1C0.800
; #@! TA.AperFunction,Plated,PTH,ComponentDrill
T2C0.889
; #@! TA.AperFunction,Plated,PTH,ComponentDrill
T3C1.000
; #@! TA.AperFunction,Plated,PTH,ComponentDrill
T4C1.100
; #@! TA.AperFunction,Plated,PTH,ComponentDrill
T5C1.200
%
G90
G05
T1
X159.0Y-99.92
X159.0Y-110.08
T2
X135.198Y-115.38
X135.198Y-130.62
X137.738Y-115.38
X137.738Y-130.62
X140.278Y-115.38
X140.278Y-130.62
X142.819Y-115.38
X142.819Y-130.62
X145.358Y-115.38
X145.358Y-130.62
X147.898Y-115.38
X147.898Y-130.62
X150.439Y-115.38
X150.439Y-130.62
T3
X151.453Y-85.92
X151.453Y-89.42
X164.407Y-80.0
X164.407Y-82.54
X164.407Y-85.08
X164.407Y-87.62
X164.407Y-90.16
X164.407Y-92.7
X164.407Y-95.24
T4
X123.0Y-99.92
X123.0Y-110.08
T5
X123.125Y-83.835
X123.125Y-86.375
X123.125Y-88.915
X123.125Y-91.455
M30
